<svg width="800" height="1080" viewBox="0 0 800 1080" fill="none" xmlns="http://www.w3.org/2000/svg">
<g clip-path="url(#clip0_186_17727)">
<g style="mix-blend-mode:screen" opacity="0.6">
<path d="M1062.7 533.823C1062.76 533.339 1062.76 532.854 1062.76 532.308C1062.76 531.46 1062.09 530.733 1061.3 530.672C1060.39 530.551 1059.79 531.097 1059.42 531.884C1058.63 533.884 1057.85 536.005 1057 538.004C1055.78 539.822 1054.51 541.579 1053.3 543.397C1033.71 558.969 1014.36 550.122 995.687 542.73C991.563 534.793 995.565 525.28 989.258 519.342C988.773 518.069 987.864 516.979 986.469 516.434C985.559 516.009 984.225 516.252 983.982 517.464C983.376 520.554 983.315 523.644 982.952 526.734C982.709 529.158 982.284 531.581 980.95 533.641C979.98 535.156 978.646 536.247 977.069 537.156C969.853 535.399 963.546 533.763 957.118 532.49C949.173 530.915 941.108 528.673 932.982 528.673C914.971 528.673 899.446 536.126 887.803 549.698C877.372 561.938 868.215 575.268 857.663 589.204C854.025 589.446 849.113 589.567 844.322 590.173C788.955 597.141 740.38 615.985 707.087 664.155C688.106 691.664 667.669 717.961 647.839 744.863C643.534 750.619 639.167 756.376 632.8 764.798C632.8 764.677 632.8 764.616 632.8 764.495C631.89 765.949 631.041 767.464 630.132 768.918C629.343 770.19 628.616 771.826 627.403 772.735C626.493 773.462 625.341 772.978 625.22 771.826C625.038 770.13 626.19 768.555 626.796 767.04C627.524 765.101 628.312 763.162 629.101 761.223C630.556 757.769 632.133 754.316 633.588 750.862C634.316 749.165 635.044 747.469 635.65 745.712C636.196 744.015 636.681 742.318 637.166 740.622C637.651 738.986 638.197 737.35 638.864 735.775C639.531 734.139 640.38 732.624 641.108 731.048C641.896 729.291 642.503 727.534 643.23 725.716C658.816 675.668 662.697 624.832 653.176 572.723C648.87 549.516 645.474 526.128 641.775 502.922C640.805 496.62 640.198 490.319 639.41 483.048C638.5 479.23 637.469 475.474 635.711 471.959C635.165 470.929 636.317 469.475 637.469 470.202C638.318 470.808 639.107 471.475 639.774 472.202C639.956 472.262 640.077 472.384 640.198 472.565C640.259 472.565 640.32 472.626 640.38 472.686C640.441 472.747 640.562 472.808 640.623 472.868C640.744 472.989 640.805 473.05 640.865 473.171C641.047 473.232 641.169 473.292 641.29 473.414C642.2 474.141 643.049 474.928 643.958 475.655C651.114 481.715 658.331 487.653 666.032 492.985C673.794 498.317 682.042 503.103 690.835 506.436C700.477 510.071 710.847 512.01 721.096 512.98C731.769 514.01 742.503 513.889 753.176 512.98C758.391 512.495 763.728 512.556 768.822 511.344C771.975 510.617 775.007 509.344 778.1 508.496C779.192 508.375 780.283 508.072 780.89 507.224C781.921 505.891 780.89 503.952 780.647 502.497C780.223 500.134 780.283 497.529 780.223 495.166C780.041 484.562 780.89 473.898 779.798 463.295C779.252 458.023 778.282 452.752 777.13 447.602C776.038 442.573 774.765 437.543 772.945 432.757C771.187 428.091 769.064 423.486 766.699 419.124C764.395 414.943 761.605 411.004 758.573 407.308C755.602 403.612 752.448 400.098 749.355 396.462C747.779 394.645 746.202 392.766 744.322 391.252C743.958 390.949 743.594 390.646 743.352 390.343C743.109 390.04 743.109 389.858 743.049 389.676C743.049 389.494 743.049 389.373 743.17 389.131C744.443 389.494 745.717 389.858 747.051 390.161C749.416 390.888 751.781 391.555 754.086 392.342C755.359 392.524 756.572 392.766 757.845 393.009C758.816 393.312 759.786 393.554 760.756 393.918C762.818 394.584 764.88 395.432 766.881 396.22C770.944 397.856 775.189 398.765 779.374 400.037C783.376 401.249 787.136 403.127 791.078 404.642C793.018 405.43 795.08 406.036 797.021 406.763C797.203 406.824 797.385 406.884 797.566 406.945C797.627 407.005 797.627 407.005 797.688 407.066C797.748 407.126 797.748 407.187 797.809 407.308C799.022 407.793 800.235 408.278 801.448 408.763C801.872 408.944 802.236 409.187 802.721 409.308C802.842 409.368 802.903 409.368 803.024 409.368C821.096 417.064 836.924 427.061 844.928 438.149C833.285 447.056 833.164 447.177 814.668 446.572C814.546 447.299 814.304 448.026 814.668 448.389C823.34 456.933 834.255 458.811 845.656 456.812C849.234 456.206 852.994 453.055 855.056 449.844C865.244 434.817 863.728 416.215 850.629 403.249C839.107 391.857 827.281 380.951 814.607 371.317C814.546 371.256 814.425 371.196 814.365 371.075C813.334 370.105 812.242 369.196 811.15 368.287C808.907 366.409 806.542 364.652 804.177 362.955C799.507 359.562 794.777 356.169 789.925 352.958C784.831 349.565 779.495 346.474 774.037 343.808C768.579 341.142 762.879 338.901 757.178 336.962C753.964 335.871 750.69 334.962 747.354 334.114C747.415 333.993 747.415 333.871 747.475 333.75C747.597 333.447 747.718 333.144 747.779 332.841C747.839 332.66 747.9 332.538 747.961 332.357C747.961 332.357 748.082 332.114 748.082 332.054C748.082 331.993 748.143 331.932 748.143 331.872C752.145 330.115 756.087 328.236 760.029 326.358C764.759 324.056 769.549 321.753 774.401 319.572C778.707 317.694 783.073 315.876 787.318 313.694C788.046 313.331 788.773 312.907 789.501 312.483C789.501 312.483 789.501 312.483 789.501 312.543C793.261 310.665 797.021 308.847 800.781 307.029C814.971 300.183 826.614 290.306 837.651 279.157C861.787 254.678 876.22 224.989 887.015 193.057C888.47 188.876 894.413 180.636 895.383 173.122C891.32 173.607 878.949 179.181 874.401 180.333C858.088 184.271 841.775 188.21 825.523 192.269C822.854 192.633 820.186 192.996 817.518 193.36C813.334 193.905 809.149 194.693 805.026 195.299C801.933 195.784 798.597 195.723 795.383 196.026C792.533 196.329 789.562 196.814 786.954 198.025C785.741 198.389 784.589 198.813 783.376 199.237C781.011 200.086 778.525 200.813 776.16 201.661C773.309 202.752 770.52 203.903 767.73 204.993C766.881 205.175 766.032 205.418 765.244 205.66C764.031 205.963 762.818 206.266 761.666 206.629C759.422 207.296 757.239 208.326 755.116 209.356C753.904 209.962 752.63 210.568 751.417 211.174C748.082 212.386 744.686 213.658 741.351 214.93C737.287 216.203 733.224 217.415 729.161 218.748C725.28 220.081 721.581 221.717 717.821 223.292C715.335 224.322 712.606 225.352 710.362 226.988C709.27 227.412 708.179 227.836 707.087 228.321C702.115 230.563 697.384 233.29 692.715 236.077C688.227 238.743 683.74 241.409 679.737 244.741C677.736 246.377 675.978 248.256 674.158 250.073C672.278 252.012 670.459 253.951 668.7 255.951C666.821 258.072 665.001 260.253 663.243 262.495C661.423 264.434 659.786 266.554 658.573 268.917C658.452 269.099 658.391 269.281 658.27 269.523C658.027 269.887 657.785 270.25 657.542 270.614C657.3 271.038 657.239 271.402 657.3 271.765L657.239 271.826C656.269 272.735 654.874 271.826 655.116 270.614C655.723 267.645 657.906 265.464 659.301 262.919C660.15 261.404 660.817 259.829 661.545 258.253C662.272 256.678 663 255.103 663.667 253.527C664.274 252.073 664.819 250.619 665.183 249.043C665.547 247.589 665.79 246.074 666.093 244.62C666.457 243.105 666.821 241.53 667.184 240.015C667.548 238.561 667.851 236.986 668.276 235.532C669.125 232.563 670.459 229.715 671.733 226.867C672.945 224.14 673.976 221.414 674.947 218.566C675.917 215.718 677.069 212.991 677.918 210.083C678.221 209.053 678.464 207.962 678.646 206.932C679.677 204.448 681.254 202.267 683.497 200.873C683.679 200.752 683.861 200.691 684.043 200.57C684.831 200.388 685.62 200.146 686.348 199.843C686.59 199.722 686.893 199.601 687.136 199.419C687.318 199.116 687.56 198.753 687.742 198.45C688.591 197.783 689.38 196.995 689.986 196.086C691.381 194.026 692.109 191.36 691.866 188.876C691.745 187.18 691.199 185.604 690.289 184.271C689.137 181.302 686.711 178.515 683.801 177.364C680.89 176.212 677.676 177.727 675.735 179.969C674.583 181.302 673.734 182.878 673.188 184.514C672.4 185.725 671.854 187.058 671.551 188.452C671.126 190.451 671.187 192.33 671.915 194.208C672.339 195.299 672.824 196.389 673.612 197.359C673.794 197.601 674.037 197.844 674.28 198.086C674.522 198.45 674.825 198.752 675.129 199.116C675.189 199.54 675.25 199.964 675.189 200.449C675.068 202.085 674.462 203.721 673.976 205.296C673.491 206.932 673.006 208.629 672.521 210.265C672.521 210.386 672.46 210.447 672.46 210.568C669.61 223.777 663.728 240.379 656.511 254.618C656.147 256.375 655.359 258.011 654.571 259.586C653.722 261.343 652.691 262.979 651.842 264.737C650.932 266.494 650.326 268.433 649.416 270.19C648.567 271.765 648.324 273.583 647.051 274.916C646.202 275.825 644.565 274.855 644.928 273.704C645.535 271.523 646.02 269.22 646.566 267.039C647.112 264.858 647.9 262.737 648.506 260.616C649.659 256.86 650.508 253.042 651.357 249.225C652.145 245.469 652.509 241.591 653.055 237.773C653.6 233.714 654.51 229.775 655.116 225.716C655.723 221.595 656.208 217.536 657.057 213.476C657.057 213.476 657.057 213.476 657.057 213.416C657.057 212.992 657.118 212.567 657.178 212.143C657.239 211.78 657.239 211.477 657.36 211.113C657.421 210.992 657.421 210.871 657.482 210.689C657.845 201.358 657.603 192.027 656.814 182.696C656.754 181.787 656.754 180.878 656.693 179.969C656.329 174.516 655.662 169.063 654.692 163.67C653.722 158.338 652.448 153.006 650.629 147.916C648.87 143.008 646.687 138.222 644.261 133.617C639.167 123.983 633.285 114.712 627.16 105.745C624.067 101.2 620.914 96.7771 617.7 92.3539C614.546 87.9913 611.393 83.6893 608.482 79.145C607.027 76.9031 605.753 74.6006 604.419 72.2981C603.024 69.9351 601.508 67.6932 599.992 65.4513C598.597 63.4518 597.142 61.5129 595.868 59.4527C594.656 57.4532 593.503 55.3931 592.048 53.5148C591.805 53.2118 591.623 52.9695 591.381 52.7271C591.138 52.6059 590.896 52.4241 590.653 52.303C590.229 52.0606 589.804 52 589.38 52C588.955 52.0606 588.531 52.1818 588.167 52.4241C588.106 52.5453 588.045 52.7271 587.924 52.8483C587.682 53.2724 587.439 53.7572 587.196 54.1813C587.136 54.4237 587.015 54.666 586.833 54.9084C586.833 55.5143 586.651 56.1808 586.469 56.7867C585.438 62.7247 582.466 68.1173 579.98 73.51C577.009 79.8721 575.129 86.6583 572.763 93.3234C568.155 106.593 562.697 119.559 557.421 132.587C552.145 145.614 546.99 158.702 542.745 172.092C540.623 178.879 538.804 185.725 537.166 192.633C535.529 199.722 534.134 206.872 533.528 214.082C533.042 219.899 533.285 225.716 533.649 231.532C532.679 248.68 534.862 265.585 542.685 281.763C543.23 282.732 543.776 283.641 544.383 284.55C547.112 289.094 550.083 293.578 553.176 297.88C554.692 300.061 556.269 302.182 557.845 304.303C558.149 304.727 558.452 305.151 558.816 305.575C560.21 307.211 561.605 308.847 562.939 310.544C564.031 311.574 562.394 313.21 561.302 312.18C558.694 309.695 556.511 306.787 554.207 304.06C552.206 301.758 550.083 299.577 547.839 297.456C545.717 295.396 544.261 292.972 542.806 290.427C542.745 290.246 542.624 290.124 542.563 289.943C535.408 281.763 530.071 272.977 524.31 264.555C518.488 256.011 511.817 247.892 506.905 238.925C506.905 238.803 506.905 238.622 506.845 238.5C506.542 237.531 505.996 236.622 505.511 235.713C505.025 234.804 504.662 233.896 504.237 232.987C503.813 232.078 503.388 231.169 502.903 230.321C502.478 229.533 501.872 228.806 501.629 227.958C501.144 226.382 501.387 224.564 501.387 222.928C501.387 221.959 501.326 220.99 501.084 220.02C501.326 218.202 501.084 216.203 500.659 214.688C500.295 213.234 499.75 211.84 498.84 210.628C497.688 209.053 496.172 207.781 494.534 206.69C492.897 205.66 490.956 204.812 489.016 204.812C487.075 204.812 485.317 205.781 483.922 207.114C481.86 209.053 480.283 211.84 479.859 214.749C479.313 216.263 479.07 217.899 479.131 219.475C479.192 221.414 480.223 224.867 482.224 225.595C483.315 226.806 485.195 227.533 486.711 227.958C487.803 228.261 488.834 228.503 489.925 228.806C490.289 228.927 490.714 229.048 491.078 229.109C492.594 229.533 494.049 230.078 495.383 231.048C496.596 231.957 497.748 233.108 498.597 234.32C499.568 235.834 500.235 237.47 500.962 239.106C502.66 242.863 505.086 246.256 507.572 249.589C508.603 250.982 509.756 252.376 510.787 253.77C512.97 257.466 515.213 261.101 517.336 264.858C517.457 265.1 517.518 265.282 517.518 265.464C518.67 267.221 519.822 268.978 520.975 270.735C521.46 271.341 521.945 271.947 522.369 272.613C523.703 274.552 525.038 276.491 526.372 278.37C529.222 282.429 532.315 286.307 535.347 290.246C536.863 292.185 538.318 294.245 539.834 296.184C541.229 298.062 542.867 299.698 544.504 301.394C546.141 303.091 547.718 304.788 549.113 306.666C550.265 308.181 551.539 309.695 552.994 310.968C553.055 311.028 553.055 311.028 553.115 311.089L553.176 311.15C553.297 311.271 553.479 311.392 553.661 311.513C554.631 312.24 553.722 313.816 552.691 313.149C552.569 313.028 552.387 312.967 552.266 312.846C552.206 312.846 552.206 312.846 552.145 312.846C551.72 312.725 551.357 312.604 550.932 312.422C550.265 311.877 549.537 311.331 548.87 310.786C543.776 306.666 538.561 302.788 533.285 298.971C528.191 295.335 522.854 292.063 517.215 289.337C514.546 288.064 511.817 286.974 509.089 285.822C506.602 284.792 504.116 283.702 501.569 282.672C497.93 281.217 494.11 279.824 490.168 279.036C478.888 275.037 467.002 272.795 455.116 271.159C441.593 269.342 427.888 268.13 414.243 268.311C407.269 268.433 400.417 269.16 393.503 269.947C386.469 270.735 379.434 271.523 372.46 272.311C358.512 273.947 344.625 276.188 330.677 277.643C323.703 278.37 316.669 279.097 309.695 279.884C302.782 280.672 295.868 280.914 288.955 281.157C287.196 281.217 285.438 281.278 283.679 281.339C282.345 281.399 281.314 283.217 282.466 284.247C285.013 286.428 287.742 288.67 289.622 291.518C289.622 291.821 289.743 292.124 289.925 292.366C289.925 292.427 289.865 292.487 289.865 292.609C301.508 307.635 314.122 323.45 330.253 335.75C346.384 347.989 363.424 359.259 380.465 370.348C396.717 381.012 416.426 382.345 436.499 389.07C436.499 390.706 436.257 392.342 435.468 393.796C431.466 397.068 428.312 399.674 424.916 402.097C420.732 405.127 417.093 408.581 413.879 412.277C413.091 412.883 412.242 413.428 411.454 413.973C408.785 415.73 405.025 418.275 404.722 421.79C403.267 423.426 402.236 425.304 401.326 427.485C399.81 431.06 396.899 433.787 395.383 437.422C394.777 438.876 394.292 440.391 393.928 441.967C393.079 443.663 392.412 445.481 391.805 447.42C390.047 453.358 387.924 461.659 389.925 468.082C389.865 482.32 397.566 494.015 414.183 509.768C413.091 520.251 402.175 527.098 403.146 540.428C420.065 541.518 435.953 541.882 451.72 537.277C467.366 532.611 483.437 529.097 498.476 523.22C503.085 521.463 507.633 519.463 512.121 517.282C512.848 516.797 513.637 516.312 514.364 515.828C515.638 515.04 516.851 514.252 518.003 513.343C519.216 512.495 520.307 511.465 521.46 510.496C522.673 509.526 523.825 508.557 525.098 507.648C526.311 506.799 527.585 506.012 528.737 505.042C529.95 504.012 531.163 503.043 532.436 502.073C533.649 501.164 534.862 500.195 536.014 499.226C537.106 498.195 538.136 497.044 539.289 496.075C539.895 495.59 540.502 495.166 541.047 494.681C541.472 494.257 541.836 493.712 542.26 493.348C543.17 492.621 544.261 493.106 544.443 494.257C544.565 495.348 544.079 496.499 543.958 497.529C543.837 498.62 543.776 499.71 543.655 500.801C543.534 501.892 543.352 502.982 543.109 504.012C543.048 504.194 543.049 504.376 542.988 504.558C543.049 510.071 543.17 514.858 542.988 519.524C541.532 550.668 550.326 579.085 566.639 605.079C567.669 606.775 568.7 608.23 569.671 609.563C569.974 609.805 570.277 610.047 570.52 610.35C571.793 611.441 573.067 612.592 574.401 613.683C575.796 614.773 577.251 615.803 578.888 616.531C579.737 616.652 580.586 616.712 581.435 616.712C589.622 616.955 597.748 614.531 604.844 610.653C606.602 609.684 608.24 608.654 609.877 607.503C611.393 606.412 612.485 605.139 613.637 603.685C614.365 602.776 614.91 601.807 615.395 600.837C616.366 596.475 616.669 591.93 616.851 587.386C616.608 585.447 616.426 583.448 616.002 581.509C615.577 579.327 615.032 577.146 614.365 575.025C613.091 570.966 611.211 567.149 609.574 563.21C608.846 561.453 608.118 559.635 606.966 558.12C606.36 557.333 605.693 556.606 604.904 556.06C604.662 555.879 604.116 555.394 603.813 555.454C603.57 555.515 603.327 555.757 603.146 555.939C603.085 556.06 603.024 556.121 602.964 556.242C603.267 556.787 603.449 557.393 603.631 557.999C603.873 558.605 604.116 559.272 604.358 559.878C604.722 560.423 605.086 560.968 605.389 561.574C606.481 563.755 606.845 566.179 607.633 568.482C608.058 569.693 608.179 570.905 608.482 572.117C608.785 573.329 609.028 574.48 609.089 575.692C609.089 576.237 609.149 576.722 609.149 577.267C609.21 577.51 609.27 577.752 609.331 577.994C609.331 578.055 609.392 578.055 609.392 578.116C609.452 582.478 609.392 586.598 608.967 590.658C608.482 595.808 606.845 600.716 601.63 603.503C601.569 603.564 601.569 603.625 601.508 603.625C601.084 604.049 600.599 604.412 600.113 604.715C599.689 604.958 599.204 605.261 598.719 605.382C598.658 605.382 598.597 605.382 598.597 605.382C598.173 605.745 597.445 605.806 596.899 605.382C594.898 603.806 593.807 601.322 592.715 599.08C591.623 596.838 590.411 594.596 589.501 592.294C589.076 591.325 588.773 590.294 588.47 589.264C586.044 582.781 584.65 576.056 584.225 569.027C583.194 548.183 582.224 527.098 590.411 507.224C590.592 506.799 590.714 506.315 590.896 505.891C592.776 500.68 594.474 495.348 597.142 490.44C598.476 488.016 599.931 485.714 601.508 483.472C603.024 481.23 604.662 479.109 606.117 476.867C607.572 474.565 608.846 472.141 609.877 469.657C610.423 468.263 610.726 466.627 611.454 465.294C612.121 467.173 612.909 468.99 613.334 470.687C613.819 472.565 614.183 474.444 614.607 476.383C614.85 477.11 615.092 477.837 615.274 478.624C615.335 478.867 615.395 479.17 615.395 479.23C615.456 479.473 615.517 479.715 615.577 479.957V480.018C615.638 480.139 615.699 480.321 615.759 480.382C615.82 480.503 615.82 480.624 615.82 480.745C615.82 480.806 615.82 480.806 615.881 480.866C616.002 481.593 616.123 482.32 616.244 483.048C616.305 483.351 616.366 483.654 616.426 483.956C616.548 484.441 616.669 484.987 616.73 485.471C616.972 486.32 617.154 487.107 617.275 487.956C622.309 515.828 627.281 543.821 632.012 571.754C638.379 609.805 638.136 647.917 631.526 686.09C622.794 736.199 602.357 782.066 581.739 827.934C581.678 828.116 581.557 828.358 581.496 828.54C578.707 835.205 575.25 841.567 571.793 847.929C571.429 849.323 570.944 850.717 570.035 851.928C569.853 852.171 569.61 852.352 569.368 852.413C569.064 852.958 568.822 853.443 568.518 853.988C568.215 854.594 567.366 854.776 566.76 854.473C566.699 854.473 566.639 854.413 566.639 854.352C566.639 853.928 566.699 853.564 566.699 853.14C566.76 852.353 566.942 851.625 567.124 850.898C567.973 848.959 568.882 847.02 569.731 845.082C569.853 844.173 569.974 843.324 570.095 842.416C571.247 839.507 572.46 836.599 573.37 833.63C574.886 828.601 575.674 823.39 575.674 818.179C575.917 816.301 575.917 814.422 575.735 812.544C575.614 811.211 575.492 809.878 575.371 808.545C575.371 808.302 575.311 808.121 575.311 807.878C575.25 807.454 575.129 806.97 575.007 806.545C574.825 806.121 574.704 805.636 574.522 805.212C574.462 805.031 574.34 804.909 574.28 804.728C574.158 804.546 574.098 804.304 574.098 804.122C574.037 803.94 573.976 803.758 573.855 803.637C569.853 794.548 565.426 785.581 560.15 774.614C559.968 774.19 559.786 773.705 559.665 773.22C558.816 770.433 558.391 767.585 557.967 764.677C557.845 763.95 556.996 763.404 556.329 763.404C555.602 763.404 554.935 763.95 554.692 764.677C554.267 766.191 553.661 767.646 553.055 769.1C550.75 772.978 548.87 776.068 546.808 779.4C546.748 779.34 546.748 779.34 546.687 779.279C546.081 780.855 545.474 782.491 544.989 784.187C544.989 784.248 544.928 784.369 544.928 784.43C544.868 785.035 544.747 785.641 544.504 786.247C544.261 786.853 543.776 787.217 543.109 787.156C542.563 787.096 541.957 786.55 542.018 785.884C542.078 785.096 542.2 784.308 542.26 783.521C542.26 783.46 542.26 783.399 542.26 783.278C542.26 783.157 542.321 783.036 542.321 782.975C542.321 782.975 542.321 782.915 542.381 782.854C542.381 782.672 542.442 782.491 542.442 782.248C542.321 780.733 541.836 779.158 541.593 777.704C541.29 775.947 540.865 774.25 540.38 772.554C540.32 771.766 540.259 770.918 540.198 770.13C539.956 767.949 539.471 765.828 538.015 764.131C537.045 762.92 535.165 763.95 535.104 765.343C535.044 766.494 534.377 767.585 533.831 768.615C533.164 769.827 532.557 771.099 531.951 772.372C530.738 775.098 529.525 777.825 528.312 780.552C525.887 786.005 523.461 791.458 521.46 797.093C519.398 802.789 517.882 808.545 517.093 814.543C516.669 817.512 516.487 820.481 516.305 823.45C516.123 826.298 515.82 829.146 515.759 831.994C515.699 834.781 516.002 837.508 516.487 840.234C516.487 840.84 516.548 841.385 516.608 841.991C516.911 847.748 516.972 853.504 516.911 859.381C516.851 859.987 516.73 860.532 516.608 861.078C516.244 862.956 515.456 864.653 515.153 866.531C514.91 867.076 514.668 867.622 514.364 868.167C513.273 870.227 512.121 872.408 512.909 874.771C514.061 878.043 517.76 880.164 521.156 880.891C522.612 881.497 524.067 882.164 525.341 883.133C526.736 884.163 528.009 885.375 529.283 886.526C529.95 887.132 530.617 887.859 531.041 888.707C531.526 889.616 531.648 890.768 530.859 891.555C529.889 892.525 528.312 892.343 527.16 891.979C525.523 891.555 524.128 890.707 522.733 889.798C521.945 889.01 520.975 888.344 520.126 887.677C518.973 886.768 517.821 885.86 516.669 884.951C514.486 883.254 512.181 881.497 509.634 880.406C507.027 879.255 504.237 878.892 501.448 878.589C498.476 878.286 495.565 878.952 492.654 879.376C490.047 879.74 487.378 879.679 484.771 880.043C482.891 880.043 481.072 880.043 479.252 879.922C462.575 878.952 447.172 874.165 434.316 863.441C423.036 853.989 412.06 844.476 401.387 834.478C384.043 817.997 367.124 801.092 349.78 784.551C347.354 783.157 345.292 781.158 343.291 779.158C342.685 778.552 342.139 777.886 341.593 777.219C340.683 776.128 339.774 775.038 338.803 774.008C338.015 773.099 337.045 772.251 335.893 771.826C335.165 771.221 334.377 770.675 333.467 770.372C332.133 769.888 331.223 771.342 331.405 772.432C331.708 774.311 332.861 776.007 333.71 777.704C334.619 779.582 335.408 781.461 336.196 783.339C337.833 787.217 339.592 791.095 341.472 794.912C345.292 802.486 349.598 809.817 354.146 816.967C354.813 818.058 355.541 819.148 356.269 820.239L356.329 820.3C356.572 820.542 356.632 820.784 356.693 821.027C356.875 821.269 357.057 821.511 357.178 821.754C357.36 821.996 357.542 822.239 357.663 822.481L357.724 822.542C357.785 822.602 357.906 822.723 357.845 822.723C357.906 822.784 357.967 822.844 358.027 822.966L358.088 823.026C358.149 823.087 358.209 823.208 358.27 823.269C358.33 823.329 358.33 823.39 358.391 823.45C358.391 823.511 358.452 823.572 358.512 823.632C358.512 823.693 358.512 823.693 358.512 823.693C358.573 823.753 358.634 823.814 358.694 823.875L358.755 824.056C358.755 824.117 358.816 824.117 358.816 824.177C358.816 824.117 358.816 824.117 358.755 824.056C358.755 824.177 358.937 824.359 358.998 824.42C359.119 824.602 359.179 824.783 359.24 824.965C361.363 828.237 363.606 831.388 365.729 834.66C366.76 835.872 367.669 837.144 368.155 838.719C368.579 840.113 366.578 840.901 365.85 839.689C365.183 838.538 364.455 837.326 363.667 836.175C362.818 835.145 361.969 834.115 361.12 833.145C359.24 830.964 357.118 829.025 355.056 826.965C352.994 824.905 350.932 822.905 348.87 820.845C344.807 816.664 340.744 812.483 336.257 808.787C336.135 808.666 336.014 808.605 335.832 808.484C335.711 808.363 335.529 808.302 335.407 808.181C335.347 808.121 335.226 808.06 335.165 808C335.104 808 335.104 807.939 335.044 807.939C334.862 807.818 334.68 807.697 334.498 807.515C334.498 807.515 334.498 807.515 334.498 807.454C332.86 806.182 331.102 805.152 329.343 804.061C328.191 803.334 326.978 802.667 325.887 801.819C324.795 800.971 323.703 800.062 322.369 799.699C320.671 799.274 319.58 801.274 320.732 802.546C322.915 804.97 325.462 806.969 328.009 809.03C329.222 810.241 330.495 811.393 331.648 812.665C332.921 814.059 334.134 815.392 335.468 816.725C335.953 817.209 336.378 817.694 336.863 818.179C342.503 824.844 348.264 831.63 353.964 838.477C362.03 847.99 371.369 856.533 379.01 867.379C379.07 867.44 379.07 867.44 379.131 867.5C379.313 867.743 379.555 867.985 379.737 868.227C379.798 868.349 379.919 868.409 379.98 868.47C380.041 868.53 380.101 868.712 380.162 868.773C380.101 868.652 380.041 868.652 380.101 868.712L380.162 868.773C380.283 868.894 380.404 869.076 380.404 869.258C380.344 869.136 380.283 869.015 380.162 868.894C380.283 869.015 380.344 869.197 380.404 869.318C380.647 869.439 380.768 869.621 380.95 869.803C381.011 869.864 381.072 869.985 381.132 870.045C381.132 870.106 381.193 870.106 381.193 870.166L381.253 870.227C381.314 870.288 381.314 870.288 381.375 870.348C381.678 870.651 381.921 871.015 382.102 871.318C383.012 872.53 383.8 873.741 384.528 875.014C385.135 876.044 383.861 877.498 382.77 876.771C379.798 874.771 377.069 872.469 374.219 870.348C371.611 868.409 369.125 866.289 366.639 864.168C364.092 862.047 361.545 860.048 358.998 857.927C356.754 856.109 354.389 854.352 352.084 852.534C351.963 852.474 351.902 852.353 351.781 852.292C341.108 844.657 330.495 836.902 320.004 829.146C319.883 829.146 319.762 829.085 319.701 829.025C319.034 828.54 318.306 828.116 317.579 827.752C317.457 827.692 317.336 827.571 317.215 827.449C317.033 827.328 316.851 827.268 316.669 827.146C315.274 826.419 313.94 825.692 312.545 824.965C307.633 822.239 302.964 819.27 298.112 816.482C295.323 814.907 292.533 813.392 289.743 811.756C288.713 811.029 287.682 810.302 286.651 809.514C285.68 808.787 284.649 808.121 283.558 807.454C283.073 807.151 282.527 806.788 282.042 806.424C281.617 806 281.253 805.576 280.829 805.152C279.555 803.758 277.008 805.637 278.161 807.212C278.221 807.333 278.343 807.454 278.403 807.575L278.464 807.636C278.706 807.939 279.01 808.242 279.252 808.484C280.708 809.999 282.284 811.453 283.8 812.907C285.62 814.725 287.318 816.664 289.137 818.542C290.956 820.421 292.836 822.178 294.656 824.117C295.565 825.086 296.475 826.056 297.384 827.025C297.688 827.328 297.93 827.631 298.233 827.934C298.355 828.055 298.415 828.177 298.537 828.298C298.537 828.298 298.597 828.419 298.658 828.419C298.719 828.479 298.779 828.54 298.779 828.54C299.022 828.904 299.264 829.207 299.446 829.57C299.446 829.631 299.446 829.631 299.507 829.691C299.325 829.752 299.143 829.873 298.961 829.934C297.87 829.146 296.778 828.419 295.747 827.631C290.896 824.056 286.226 820.178 281.557 816.361C279.313 814.543 277.008 812.907 274.947 810.847C272.945 808.848 271.065 806.788 268.882 804.97C266.335 802.91 263.546 801.213 260.999 799.153C258.937 797.517 256.632 796.003 254.753 794.064C254.449 793.761 254.146 793.458 253.904 793.155C253.297 792.488 252.145 792.549 251.478 793.155C250.811 793.821 250.871 794.851 251.478 795.578C251.781 795.942 252.084 796.245 252.448 796.608C254.995 799.335 257.845 801.88 260.453 804.546C263.485 807.636 266.517 810.787 269.549 813.816C271.975 816.24 274.34 818.724 276.705 821.148C276.827 821.33 276.948 821.451 277.13 821.572C277.554 821.996 277.979 822.42 278.403 822.845C281.253 825.632 284.225 828.419 287.136 831.206C290.107 834.054 293.018 836.962 295.808 839.992C298.658 843.143 301.326 846.415 304.055 849.626C305.025 850.777 306.238 851.625 307.269 852.655C308.24 853.443 309.089 854.352 309.938 855.261C310.726 856.109 311.696 856.836 312.303 857.866C312.363 857.927 312.424 857.988 312.485 858.109C312.545 858.169 312.545 858.23 312.606 858.291C312.666 858.351 312.727 858.351 312.727 858.412C312.788 858.472 312.788 858.472 312.848 858.533C313.819 859.381 314.789 860.29 315.699 861.138C317.215 862.593 318.731 864.047 320.307 865.501C322.005 867.076 323.703 868.53 325.341 870.166C326.918 871.742 328.191 873.681 329.889 875.135C330.738 875.862 331.648 876.407 332.618 877.013C332.921 877.195 333.224 877.377 333.467 877.68C333.467 877.68 333.528 877.801 333.588 877.922C333.588 877.922 333.588 877.983 333.649 878.043C333.528 878.164 333.467 878.286 333.346 878.407C333.346 878.407 333.346 878.467 333.285 878.467C331.951 878.467 330.677 878.528 329.343 878.589C326.008 878.77 322.673 879.073 319.398 879.437C316.123 879.8 312.909 880.467 309.695 881.073C305.632 881.861 301.569 882.648 297.627 883.921C296.414 884.345 294.898 884.769 293.988 885.678C293.321 886.344 293.139 887.374 293.564 888.223C294.17 889.313 295.626 889.798 296.717 890.283C297.324 890.525 297.93 890.707 298.476 890.949C298.597 891.01 298.658 891.01 298.779 891.07C298.112 890.828 298.961 891.131 299.022 891.192C299.568 891.434 300.053 891.676 300.599 891.919C301.69 892.404 302.842 892.888 303.934 893.312C308.179 896.039 313.273 896.948 318.246 897.614C321.156 898.038 323.946 898.22 326.918 898.039C329.707 897.857 332.557 897.675 335.347 897.614C336.924 897.554 338.5 897.493 340.077 897.311C341.229 897.311 342.321 897.372 343.473 897.372C344.504 897.372 345.595 897.433 346.626 897.433C347.112 897.372 347.597 897.311 348.082 897.251C348.506 897.19 348.87 897.251 349.173 897.493C349.234 897.493 349.355 897.493 349.416 897.493C350.083 897.493 350.871 897.372 351.538 897.675C352.084 897.857 352.327 898.281 352.327 898.705C352.024 898.826 351.72 898.947 351.357 899.008C348.082 900.22 344.868 901.31 341.472 901.977C338.136 902.583 334.74 902.886 331.405 903.31C329.646 903.492 327.948 903.734 326.129 903.734C324.31 903.734 322.43 903.673 320.611 903.552C318.731 903.431 316.79 903.552 314.91 903.189C313.455 902.946 311.999 902.219 310.483 902.704C309.816 902.886 309.149 903.613 309.27 904.34C309.513 906.582 311.817 907.673 313.637 908.581C315.881 909.733 317.882 911.126 320.004 912.52C325.038 915.731 330.435 918.64 336.014 920.76C344.565 925.608 353.661 929.122 363.303 930.818C387.196 934.939 411.211 937.908 434.983 935.12C435.771 934.939 436.56 934.757 437.348 934.575C439.228 934.09 441.108 933.545 442.988 933.121C444.928 932.697 446.869 932.454 448.749 932.091C452.63 931.364 456.329 929.849 460.089 928.758C461.969 928.213 463.849 927.668 465.608 926.88C467.427 926.092 469.367 925.426 471.247 924.699C473.067 924.032 474.947 923.729 476.887 924.093C477.251 924.153 477.615 924.335 477.918 924.517C478.706 924.699 479.434 925.062 480.101 925.426C481.981 925.971 483.74 926.88 485.438 928.092C485.559 928.152 485.68 928.152 485.802 928.213C487.621 928.637 489.501 929.182 490.047 931.182C490.168 931.667 490.168 932.151 490.107 932.576C490.229 932.697 490.289 932.818 490.411 932.879C489.865 934.636 489.198 936.272 488.349 937.908C486.529 941.483 484.589 944.997 483.012 948.693C481.496 952.147 480.404 955.722 479.98 959.478C479.859 960.326 479.859 961.175 479.919 962.023C479.98 962.871 480.101 963.72 479.859 964.568C479.616 965.356 479.131 966.083 478.828 966.87C478.585 967.416 478.464 967.961 478.282 968.567C477.736 970.566 477.433 973.232 478.403 975.171C478.161 975.898 477.918 976.626 477.615 977.353C476.341 979.11 475.068 980.867 473.794 982.624C470.216 987.593 466.639 992.622 463.243 997.772C459.907 1002.74 456.572 1007.77 454.025 1013.22C451.478 1018.62 449.355 1024.25 446.808 1029.64C445.959 1031.4 445.171 1033.16 444.322 1034.85C410.908 1092.72 385.68 1154.22 367.851 1218.99C362.818 1237.11 358.452 1255.16 353.661 1273.28C351.599 1280.98 350.629 1288.55 350.144 1295.09C349.416 1305.39 357.603 1314.12 367.912 1314L371.429 1313.94C380.283 1313.82 387.136 1306.24 386.287 1297.46C385.68 1291.46 385.256 1284.73 385.438 1278.73C385.802 1268.19 386.529 1257.47 389.016 1247.29C406.178 1175.91 433.042 1108.47 469.307 1044.91C471.065 1040.85 473.067 1036.79 475.371 1033.04C476.523 1031.16 477.918 1029.4 479.07 1027.52C480.223 1025.58 481.314 1023.64 482.588 1021.77C483.073 1020.98 483.679 1020.19 484.043 1019.34C484.346 1018.74 484.589 1018.07 484.953 1017.52C485.377 1016.92 485.923 1016.31 486.711 1016.13C487.803 1015.89 488.47 1016.49 489.258 1017.1C489.622 1017.34 490.289 1017.52 490.896 1017.65C492.472 1017.71 493.988 1017.71 495.444 1017.77C496.899 1017.52 498.415 1017.16 499.628 1016.37C499.871 1016.07 500.113 1015.77 500.477 1015.59C501.205 1015.28 502.115 1015.46 502.357 1016.37C502.418 1016.68 502.478 1016.92 502.478 1017.22C502.721 1017.65 502.842 1018.19 502.903 1018.74C503.024 1019.1 503.146 1019.46 503.267 1019.77C513.273 1025.46 523.34 1029.16 534.377 1027.34C534.862 1027.04 535.347 1026.73 535.711 1026.31C536.62 1025.28 537.287 1024.01 538.864 1024.07C539.774 1024.13 540.501 1024.61 541.169 1025.16C541.29 1025.22 541.351 1025.34 541.472 1025.4C541.593 1025.34 541.714 1025.28 541.836 1025.28C543.776 1026.07 545.595 1026.55 547.293 1026.73C547.475 1026.73 547.657 1026.73 547.779 1026.8C557.178 1027.76 562.515 1020.61 566.82 1012.31C569.853 1006.56 572.218 1000.44 574.037 994.197C577.676 981.897 579.313 969.476 577.251 955.419C577.19 955.237 577.19 955.116 577.13 954.934C576.584 952.571 575.917 950.147 575.068 947.845C574.643 946.693 574.219 945.542 573.673 944.452C573.188 943.422 572.582 942.513 572.096 941.543C571.429 940.271 573.067 938.998 574.098 940.028C574.462 940.331 574.825 940.695 575.129 940.998C578.585 943.603 581.921 946.027 585.256 948.39C586.226 949.784 587.318 951.056 588.531 952.268C590.956 954.691 593.928 956.388 596.899 958.024C603.267 961.478 609.695 965.053 616.608 967.294C616.972 967.416 617.336 967.537 617.7 967.658C621.399 969.355 625.159 970.869 629.04 972.263C649.113 979.231 668.822 985.593 689.501 978.262C693.807 965.901 679.798 962.992 679.616 954.086C681.981 951.117 686.408 950.814 689.744 948.753C691.26 948.208 692.776 947.481 693.989 946.451C695.565 945.057 696.111 942.694 694.716 940.998C693.503 939.544 691.866 938.332 690.229 937.484C686.711 935.666 682.588 934.696 678.707 934.09C674.28 933.363 669.731 933.242 665.365 934.333C663.061 934.939 660.878 935.969 658.755 937.12C658.088 937.484 657.36 937.847 656.693 938.211C645.05 941.604 633.528 941.907 621.884 941.361C617.093 941.119 612.424 939.786 608.3 937.302C607.694 936.938 607.148 936.575 606.542 936.272C604.176 934.393 602.115 932.273 599.81 930.334C597.506 928.395 595.08 926.577 592.594 924.88C590.289 923.305 587.742 922.033 585.317 921.003C583.558 920.215 581.617 919.427 579.677 919.124C579.313 918.882 578.888 918.579 578.464 918.337C577.797 918.094 577.069 917.912 576.402 917.731C574.34 917.246 572.218 916.943 570.095 916.64C569.125 916.519 568.155 916.337 567.184 916.337C566.275 916.337 565.486 916.276 565.001 915.368C564.819 915.004 564.698 914.459 565.001 914.095C565.486 913.429 566.153 913.005 566.76 912.399C567.427 911.793 567.973 911.126 568.64 910.581C570.035 909.43 571.672 908.581 573.431 908.097C576.887 907.188 580.344 906.764 583.922 906.824C587.439 906.885 590.835 907.733 594.292 908.339C595.141 908.46 596.05 908.642 596.899 908.824C598.719 909.005 600.477 909.187 602.297 909.43C636.014 913.974 669.61 918.882 703.327 923.426C705.753 923.547 708.179 923.729 710.665 923.85C714.061 923.972 717.457 924.153 720.853 924.456C724.249 924.759 727.585 925.062 730.981 925.062C734.377 925.002 737.773 924.578 741.108 924.032C744.443 923.487 747.839 923.063 751.175 922.457C754.328 921.911 757.3 921.063 760.271 919.912C760.756 919.73 761.241 919.548 761.727 919.367C762.272 919.245 762.818 919.185 763.364 919.064C765.304 918.64 767.245 918.034 769.186 917.488C772.945 916.398 776.523 914.944 779.919 913.126C781.617 912.278 780.465 909.369 778.585 910.036C776.463 910.823 774.28 911.126 772.036 911.308C770.884 911.429 769.731 911.429 768.64 911.55C767.427 911.611 766.275 911.853 765.062 911.793C764.698 911.793 764.334 911.914 764.031 912.156C734.377 912.096 705.086 908.339 675.371 902.159C673.431 901.795 671.49 901.371 669.549 900.947C667.67 900.523 665.729 900.099 663.849 899.674C661.302 899.19 658.694 898.766 656.147 898.281C652.994 897.675 649.901 897.069 646.748 896.887C645.353 896.827 644.019 896.705 642.624 896.705C641.472 896.705 640.198 896.706 639.167 896.16C638.5 895.797 638.44 895.009 638.682 894.403C638.622 894.161 638.682 893.918 638.743 893.615C638.985 892.888 639.713 892.403 640.32 892.04C640.562 891.858 640.865 891.676 641.108 891.555C641.169 891.555 641.169 891.495 641.229 891.495C640.987 891.616 641.532 891.313 641.351 891.434C641.29 891.434 641.229 891.495 641.229 891.495C641.229 891.495 641.29 891.495 641.351 891.434C641.472 891.373 641.593 891.252 641.775 891.192C644.443 890.162 647.294 889.556 650.022 888.586C655.42 886.708 660.999 885.557 666.639 884.648C672.4 883.678 678.221 883.436 684.104 883.497C689.925 883.557 695.747 884.042 701.569 884.708C707.391 885.375 713.273 885.92 719.034 886.768C724.795 887.617 730.495 888.586 736.196 889.495C738.985 889.919 741.775 890.343 744.565 890.768C747.354 891.192 750.144 891.373 752.933 891.555C758.634 891.919 764.395 892.04 770.095 891.737C772.885 891.616 775.735 891.495 778.525 891.131C780.101 890.949 781.739 890.768 783.315 890.465C785.984 890.04 788.591 889.253 791.26 888.465C791.32 888.465 791.381 888.465 791.502 888.404C793.807 887.92 795.99 887.193 798.234 886.526C800.295 885.92 799.446 882.769 797.324 883.254C795.08 883.739 792.897 884.466 790.714 885.133C789.44 885.435 788.167 885.617 786.833 885.738C783.073 886.041 779.313 886.587 775.492 886.405C771.733 886.223 767.912 885.799 764.213 885.193C763.849 885.132 763.485 885.072 763.061 885.011C764.213 884.951 765.304 884.769 766.396 884.284C766.517 884.224 766.639 884.163 766.699 884.042C767.791 883.799 768.822 883.557 769.853 883.194C771.005 883.012 772.096 882.83 773.249 882.769C774.522 882.648 775.796 882.164 777.069 881.861C778.221 881.618 779.313 881.315 780.465 880.952C781.981 880.467 783.497 879.922 785.013 879.376C792.836 875.68 801.084 871.802 806.42 860.956C774.947 868.894 746.323 873.56 716.911 873.923C690.532 874.287 664.516 872.287 638.076 867.622C633.952 868.167 629.768 868.53 625.644 869.015C625.583 869.015 625.462 869.015 625.401 869.015C624.613 869.076 623.825 868.833 623.4 868.227C622.309 868.53 621.156 867.076 622.127 866.107C625.523 862.592 629.768 860.048 634.255 858.169C642.563 854.655 651.599 853.08 660.514 852.05C663.303 851.686 666.153 851.444 668.943 851.262C671.611 851.08 674.219 851.08 676.887 851.02C677.372 851.02 677.858 851.019 678.403 850.959C681.193 850.656 683.922 850.232 686.59 849.686C698.415 847.142 706.36 840.234 712.06 828.479C712.181 828.358 712.242 828.177 712.363 828.055C712.97 826.419 713.516 824.783 714.122 823.147C714.668 821.633 715.274 819.997 715.517 818.421C715.577 818.118 715.638 817.755 715.638 817.452C715.517 817.331 715.395 817.209 715.274 817.088C715.274 817.088 715.214 817.088 715.214 817.028H715.153C715.032 817.028 714.971 817.028 714.85 817.028C714.789 817.028 714.668 817.028 714.607 817.088C714.122 817.573 713.637 818.058 713.152 818.542C712.363 819.27 711.636 819.997 710.787 820.663C708.3 823.329 705.025 825.208 701.629 826.844C701.023 827.025 700.417 827.207 699.81 827.449C699.022 827.874 698.294 828.298 697.506 828.661C697.263 828.782 697.021 828.904 696.778 829.025C696.414 829.146 696.111 829.328 695.747 829.449C695.565 829.51 695.444 829.631 695.323 829.752C693.928 830.479 692.594 831.206 691.26 831.933C689.986 832.6 688.713 830.964 689.744 829.934C691.745 827.934 694.17 826.359 696.05 824.238C696.96 823.147 697.87 822.057 698.779 820.966C699.507 820.057 700.174 819.148 701.023 818.3C704.176 812.908 707.451 807.757 706.845 801.456C706.845 801.395 706.905 801.274 706.905 801.213C707.209 799.456 707.391 797.699 707.694 795.942C707.997 794.064 708.3 792.125 708.24 790.246C708.24 789.337 707.451 788.671 706.663 788.55C706.299 788.792 705.996 789.095 705.753 789.459C704.904 790.61 704.54 791.943 703.873 793.155C703.328 794.245 702.721 795.397 702.054 796.427C701.326 797.517 700.417 798.487 699.568 799.396C698.658 800.365 697.748 801.395 696.839 802.365C695.929 803.334 694.959 804.182 693.928 804.97C693.564 805.273 693.2 805.515 692.836 805.818C686.529 812.059 680.465 818.24 672.157 822.299C671.915 822.542 671.672 822.723 671.429 822.966C670.641 823.693 669.853 824.42 668.943 825.086C668.155 825.692 667.184 826.238 666.335 826.783C665.547 827.268 664.819 827.874 663.91 828.237C663 828.601 662.09 827.51 662.333 826.662C662.757 825.268 663.849 824.117 664.698 822.966C665.547 821.693 666.517 820.542 667.245 819.209C667.609 818.603 667.851 817.997 668.155 817.391C669.004 816.119 669.853 814.846 670.58 813.513C671.308 812.18 671.915 810.787 672.46 809.393C672.582 808.969 672.703 808.545 672.764 808.121C672.885 807.394 672.945 806.727 673.006 806V805.939C673.006 805.636 672.945 805.273 672.945 804.97C672.642 804.728 672.218 804.546 671.854 804.546C671.672 804.606 671.551 804.728 671.429 804.849C671.066 805.152 670.762 805.455 670.52 805.818C670.277 806.121 669.974 806.364 669.731 806.545C666.942 810.666 661.908 812.544 657.845 815.271C656.572 816.119 655.359 817.028 654.146 817.876C649.659 819.936 645.171 821.936 640.744 823.935C640.562 823.996 640.38 824.056 640.138 824.117C638.804 824.541 637.53 825.026 636.196 825.51C635.832 825.632 635.408 825.692 635.044 825.813C632.861 826.359 630.617 826.965 628.434 827.51C626.432 827.995 624.492 828.358 622.491 828.419C621.52 828.479 620.55 828.419 619.64 828.177C619.58 827.934 619.519 827.752 619.519 827.51C620.489 825.935 621.581 824.359 622.612 822.784C623.703 821.087 624.795 819.451 625.887 817.815C628.191 814.483 630.738 811.393 632.739 807.939C633.77 806.121 634.801 804.364 635.771 802.486C644.383 788.429 653.055 774.25 662.515 760.435C684.164 728.867 706.723 697.966 729.343 667.124C755.177 632.042 792.412 616.894 833.77 609.926C841.593 608.593 849.78 607.018 858.876 612.107C861.727 622.166 864.759 633.011 867.852 643.918C869.913 651.128 873.855 656.763 879.859 661.611C904.176 681.424 930.01 697.057 962.151 698.45C963.182 698.571 964.273 698.693 965.304 698.814C966.214 699.056 967.184 699.299 968.155 699.541C968.458 699.602 968.761 699.602 969.004 699.541C969.974 699.904 970.884 700.207 971.854 700.51C975.553 701.601 979.252 702.51 982.648 704.449C987.803 707.418 992.836 712.507 992.897 718.809C992.897 719.9 992.776 720.99 992.715 722.141C992.654 722.747 992.594 723.293 992.594 723.899C992.594 724.202 992.533 724.505 992.533 724.807C992.533 724.747 992.472 725.474 992.533 725.11C992.291 726.868 991.441 728.685 992.351 730.382C992.594 730.867 993.261 731.23 993.807 731.23C996.172 731.17 997.627 729.594 998.355 727.595C998.415 727.534 998.476 727.413 998.537 727.352C1005.75 713.659 1000.84 700.571 986.772 696.269C982.83 695.118 978.828 694.391 974.765 693.724C974.643 693.663 974.462 693.603 974.34 693.603C971.611 692.815 968.761 692.391 966.154 691.422C965.305 691.119 964.274 690.573 963.425 689.967C963.364 689.907 963.121 689.725 963.061 689.725C962.939 689.604 962.818 689.543 962.697 689.422C962.697 689.362 962.697 689.301 962.636 689.24C962.636 688.998 962.636 688.816 962.636 688.574C962.636 688.331 962.636 688.089 962.636 687.847C962.636 687.726 962.636 687.604 962.636 687.544C962.636 687.483 962.636 687.483 962.636 687.423C962.697 687.362 962.697 687.241 962.697 687.12C963.607 686.211 964.274 685.241 964.88 684.151C965.001 683.969 965.062 683.848 965.183 683.666C966.881 683.181 968.64 682.696 970.398 682.272C981.435 679.425 992.654 677.122 1003.45 673.729C1014 670.457 1022.67 663.974 1024.73 652.34C1029.04 628.831 1032.07 605.503 1017.52 583.872C1015.09 580.297 1010.42 576.54 1015.58 570.057C1021.94 570.057 1029.28 570.299 1036.5 569.936C1045.53 569.451 1051.3 563.452 1055.72 556.484C1057.48 553.758 1059.18 550.728 1059.18 547.699C1060.94 543.942 1062.21 539.943 1062.76 535.762C1062.82 535.52 1062.88 535.338 1063 535.096C1062.88 534.49 1062.88 534.126 1062.7 533.823ZM455.056 443.421C450.993 449.238 447.051 455.115 443.291 461.174C439.592 467.112 436.135 473.232 433.224 479.594C429.768 485.047 426.372 490.44 422.915 495.893C419.64 495.408 416.79 495.651 414.971 494.56C398.658 484.138 397.809 478.806 408.967 463.477C421.096 446.693 438.015 436.877 458.816 430.03C459.058 430.272 459.422 430.515 459.786 430.636C461.302 434.817 457.239 440.391 455.056 443.421Z" fill="#312E21" fill-opacity="0.8"/>
</g>
</g>
<defs>
<clipPath id="clip0_186_17727">
<rect width="800" height="1080" fill="white"/>
</clipPath>
</defs>
</svg>
