<svg width="77" height="77" viewBox="0 0 77 77" fill="#dbd9ca" xmlns="http://www.w3.org/2000/svg">
<path d="M37.7867 12.52L13.52 36.7867C12.8267 37.48 12.8267 38.52 13.52 39.2133L37.7867 63.48C38.48 64.1733 39.52 64.1733 40.2133 63.48L64.48 39.2133C65.1733 38.52 65.1733 37.48 64.48 36.7867L40.2133 12.52C39.52 11.8267 38.48 11.8267 37.7867 12.52ZM40.04 56.1133H37.96C37.0933 56.1133 36.2267 55.7667 35.5333 55.16L34.9267 54.5533C34.06 53.6867 33.6267 52.3867 33.8 51.1733L34.06 49.0067C34.2333 47.9667 34.58 46.9267 35.1867 46.06C35.7933 45.1933 36.5733 44.5 37.5267 43.98C37.96 43.72 38.48 43.6333 39 43.6333C39.52 43.6333 40.04 43.72 40.4733 43.98C42.38 45.02 43.5933 46.84 43.8533 49.0067L44.1133 51.1733C44.2867 52.3867 43.8533 53.6867 42.9867 54.5533L42.4667 55.16C41.7733 55.7667 40.9067 56.1133 40.04 56.1133ZM49.66 40.2533C47.4933 38.1733 45.8467 35.5733 44.98 32.6267L43.7667 28.4667C43.5067 27.6 42.7267 26.9933 41.7733 26.9933H36.14C35.1867 26.9933 34.4067 27.6 34.1467 28.4667L32.9333 32.6267C32.0667 35.4867 30.5067 38.1733 28.2533 40.2533L24.3533 43.98L18.98 38.6067C18.6333 38.26 18.6333 37.74 18.98 37.3933L38.3933 17.98C38.74 17.6333 39.26 17.6333 39.6067 17.98L58.9333 37.3933C59.28 37.74 59.28 38.26 58.9333 38.6067L53.56 43.98L49.66 40.2533Z" fill="#E2DED3"/>
</svg>
