<svg width="77" height="77" viewBox="0 0 77 77" fill="#dbd9ca" xmlns="http://www.w3.org/2000/svg">
<path d="M38.5113 15.4L32.5918 24.343H44.3956L38.5113 15.4Z" fill="#E2DED3"/>
<path d="M26.709 33.2509L32.5933 24.343L38.5128 33.2509H26.709Z" fill="#E2DED3"/>
<path d="M38.5117 33.2509H50.3507L44.396 24.343L38.5117 33.2509Z" fill="#E2DED3"/>
<path d="M0 18.1652L2.89015 26.8448L23.0215 29.8702V32.0029L4.93318 33.9868L8.52095 40.98L23.5198 35.3755L24.4666 37.2106L13.0057 45.8405L17.9388 49.3123L26.3103 40.0376L27.6059 41.2776L23.5198 50.949L28.453 51.941L30.1971 43.1127C31.749 43.3228 34.0283 43.1127 33.9668 40.98C33.9368 39.9407 33.4498 38.6666 31.6482 38.1133C23.8746 35.726 25.4632 26.0512 27.9049 22.0338C24.9863 24.343 24.7787 25.5086 23.9683 26.5968C22.6353 26.2434 0 18.1652 0 18.1652Z" fill="#E2DED3"/>
<path d="M76.9992 18.1652L74.1091 26.8448L53.9777 29.8702V32.0029L72.066 33.9868L68.4783 40.98L53.4794 35.3755L52.5326 37.2106L63.9936 45.8405L59.0604 49.3123L50.6889 40.0376L49.3933 41.2776L53.4794 50.949L48.5462 51.941L46.8022 43.1127C45.2502 43.3228 42.9709 43.1127 43.0325 40.98C43.0625 39.9406 43.5494 38.6666 45.351 38.1133C53.1247 35.726 51.536 26.0512 49.0944 22.0338C52.0129 24.343 52.2205 25.5086 53.0309 26.5968C54.3639 26.2434 76.9992 18.1652 76.9992 18.1652Z" fill="#E2DED3"/>
<path d="M31.5677 57.2231L30.7455 59.6781L33.9471 56.6527C33.9471 56.6527 34.2834 56.0079 33.5858 55.6856C32.8041 55.6856 32.5929 55.6856 32.428 55.6856C32.203 55.6429 32.3758 55.2369 32.3758 55.2369C32.3758 55.2369 33.9821 52.6594 34.8378 51.2714C35.0602 50.2394 33.4415 49.3123 32.5929 50.2485C31.5677 52.3032 30.1849 55.6856 29.9731 55.6856C29.7613 55.6856 23.9686 55.6856 23.9686 55.6856C23.9686 55.6856 22.8225 55.8902 23.5201 56.8015C24.2177 57.7128 28.1543 60.5957 28.1543 60.5957L26.6532 57.2231H31.5677Z" fill="#E2DED3"/>
<path d="M45.4374 57.2231L46.2596 59.6781L43.058 56.6527C43.058 56.6527 42.7216 56.0079 43.4192 55.6856C44.201 55.6856 44.4122 55.6856 44.577 55.6856C44.802 55.6429 44.6292 55.2369 44.6292 55.2369C44.6292 55.2369 43.0229 52.6594 42.1673 51.2714C41.9448 50.2394 43.5635 49.3123 44.4122 50.2485C45.4374 52.3032 46.8201 55.6856 47.0319 55.6856C47.2437 55.6856 53.0365 55.6856 53.0365 55.6856C53.0365 55.6856 54.1825 55.8902 53.4849 56.8015C52.7873 57.7129 48.8507 60.5957 48.8507 60.5957L50.3519 57.2231H45.4374Z" fill="#E2DED3"/>
<path d="M38.5113 36.0039C38.4584 37.0561 37.0478 39.6514 36.6778 40.0377C36.3808 40.3479 35.9733 40.9798 35.1452 43.1125C34.3172 45.2451 34.6595 45.3464 32.9434 46.5951C40.0008 49.8253 35.9737 53.1023 35.9737 53.8555C36.8576 56.0795 38.5113 60.5713 38.5113 60.5713C38.5113 60.5713 40.1628 56.0795 41.0467 53.8555C41.0467 53.1023 37.0195 49.8253 44.077 46.5951C42.3608 45.3464 42.7031 45.2451 41.8751 43.1125C41.0471 40.9798 40.6396 40.3479 40.3425 40.0377C39.9725 39.6514 38.5641 37.0561 38.5113 36.0039Z" fill="#E2DED3"/>
</svg>
