<svg width="380" height="380" viewBox="0 0 380 380" fill="none" xmlns="http://www.w3.org/2000/svg">
<path d="M108.514 40.1051C111.349 44.9656 116.705 48.2208 122.781 48.2208C131.873 48.2208 139.254 40.9078 139.254 31.9002C139.254 30.3841 139.029 28.9126 138.669 27.5303C138.129 25.6128 137.273 23.8291 136.103 22.2684C133.133 18.166 128.272 15.5351 122.781 15.5351C113.689 15.5351 106.308 22.8481 106.308 31.8556C106.308 32.7921 106.398 33.6839 106.533 34.5311C106.803 36.5824 107.523 38.4552 108.514 40.1051ZM122.736 19.37C126.427 19.37 129.802 20.9753 132.098 23.517C133.448 24.9439 134.438 26.7276 134.933 28.6451C135.203 29.6707 135.383 30.7854 135.383 31.9002C135.383 38.812 129.712 44.3859 122.736 44.3859C118.145 44.3859 114.095 41.9334 111.889 38.2323C110.854 36.5824 110.269 34.6649 110.134 32.6137C110.089 32.3462 110.089 32.1232 110.089 31.8556C110.134 24.9885 115.805 19.37 122.736 19.37ZM114.5 36.8499C113.599 35.423 113.104 33.7285 113.104 31.9002C113.104 31.8556 113.104 31.7665 113.104 31.7219C113.194 26.5047 117.47 22.313 122.736 22.313C125.301 22.313 127.642 23.294 129.352 24.9439C130.657 26.1479 131.603 27.7086 132.053 29.4923C132.278 30.2503 132.368 31.053 132.368 31.9002C132.368 37.2066 128.047 41.4874 122.691 41.4874C119.225 41.4874 116.165 39.6146 114.5 36.8499ZM241.916 39.5254C244.752 44.3859 250.108 47.6411 256.184 47.6411C261.63 47.6411 266.491 45.0102 269.506 40.9523C269.596 41.0415 269.731 41.1753 269.866 41.2645C278.373 47.1506 287.284 52.457 295.566 58.6106C320.23 76.8932 339.268 102.533 349.62 131.295C351.285 135.977 353.22 140.436 354.706 145.208C355.831 148.82 356.686 152.521 357.586 156.222C358.081 158.228 360.872 157.827 360.872 155.731C360.872 155.553 360.827 155.375 360.827 155.196C355.831 133.213 346.919 111.987 334.137 93.3476C319.06 71.3639 299.076 55.4 276.572 41.4429C275.717 40.9078 272.702 38.9457 271.306 38.0093C272.207 35.9581 272.747 33.7285 272.747 31.3651C272.747 29.849 272.522 28.3775 272.162 26.9952C271.621 25.0777 270.766 23.2941 269.596 21.7333C266.536 17.6309 261.675 15 256.184 15C247.092 15 239.711 22.313 239.711 31.3205C239.711 32.257 239.801 33.1488 239.936 33.996C240.251 36.0473 240.926 37.8755 241.916 39.5254ZM256.184 18.8349C259.874 18.8349 263.25 20.4402 265.545 22.9819C266.896 24.4088 267.886 26.1925 268.381 28.1099C268.651 29.1356 268.831 30.2503 268.831 31.3651C268.831 38.2768 263.16 43.8508 256.184 43.8508C251.593 43.8508 247.542 41.3983 245.337 37.6972C244.302 36.0473 243.717 34.1298 243.582 32.0786C243.537 31.8111 243.537 31.5881 243.537 31.3205C243.537 24.4088 249.208 18.8349 256.184 18.8349ZM247.902 36.2702C247.002 34.8433 246.507 33.1488 246.507 31.3205C246.507 31.276 246.507 31.1868 246.507 31.1422C246.597 25.925 250.873 21.7333 256.139 21.7333C258.704 21.7333 261.045 22.7144 262.755 24.3643C264.06 25.5682 265.005 27.1289 265.455 28.9126C265.68 29.6707 265.77 30.4733 265.77 31.3205C265.77 36.627 261.45 40.9078 256.094 40.9078C252.673 40.9078 249.613 39.0795 247.902 36.2702ZM270.541 285.181C269.821 284.022 269.416 282.639 269.416 281.168C269.416 281.123 269.416 281.078 269.416 281.034C269.461 276.798 272.927 273.409 277.202 273.409C279.273 273.409 281.163 274.211 282.558 275.549C283.594 276.53 284.404 277.779 284.764 279.206C284.944 279.83 285.034 280.454 285.034 281.168C285.034 285.448 281.523 288.927 277.202 288.927C274.367 288.927 271.892 287.41 270.541 285.181ZM380 189.889C380 188.06 379.73 186.277 379.28 184.627C378.605 182.308 377.57 180.168 376.174 178.295C372.574 173.345 366.723 170.179 360.107 170.179C349.71 170.179 341.203 178.072 340.303 188.149C340.258 188.462 340.078 188.774 339.808 188.952C339.628 189.041 339.448 189.13 339.268 189.175C336.613 189.443 335.712 189.353 333.147 189.487C332.427 189.532 330.086 189.487 329.366 189.487C322.525 189.443 315.729 189.487 308.888 189.443C307.583 189.443 306.953 189.844 306.953 191.182C306.908 192.564 307.538 192.921 308.843 192.876C313.569 192.832 315.999 192.965 320.725 192.965L326.981 192.921C331.842 192.921 332.787 192.876 337.648 192.965C338.143 192.965 338.773 193.01 339.313 193.099C339.988 193.188 340.528 193.679 340.663 194.303C341.113 196.265 341.879 198.049 342.914 199.743C345.929 204.871 351.105 208.483 357.316 209.286C357.811 209.33 358.171 209.732 358.216 210.222C358.891 221.638 352.095 242.997 351.06 245.94C346.604 258.515 340.528 270.555 333.147 281.703C324.37 295.036 313.704 307.12 301.777 317.777C295.791 323.084 289.535 328.123 282.918 332.671C276.302 337.264 269.011 340.787 261.765 344.532C260.054 345.424 257.669 345.023 256.769 343.328C250.873 332.448 246.597 320.453 241.691 309.082C241.241 308.056 240.791 306.942 240.926 305.782C241.196 303.731 243.897 302.839 245.472 301.992C251.863 298.558 257.714 295.08 263.925 291.78C264.15 291.647 265.41 290.978 266.536 290.22C266.941 289.952 267.436 289.997 267.796 290.354C270.226 292.761 273.557 294.278 277.292 294.278C284.629 294.278 290.615 288.392 290.615 281.078C290.615 279.875 290.435 278.671 290.12 277.556C289.67 275.995 288.994 274.568 288.049 273.32C285.619 270.02 281.703 267.879 277.292 267.879C269.956 267.879 263.97 273.765 263.97 281.078C263.97 281.837 264.015 282.55 264.15 283.263C264.33 284.289 264.6 285.315 265.005 286.207C265.185 286.652 265.05 287.143 264.645 287.41C263.745 288.035 262.935 288.57 262.89 288.614C257.444 291.914 252.268 295.125 246.687 298.023C243.852 299.495 241.961 300.565 239.081 302.037C237.731 302.705 236.921 305.158 237.416 306.496C238.361 308.993 239.126 310.554 240.161 313.006C242.366 318.223 244.662 323.396 246.867 328.569C248.668 332.716 250.378 336.863 252.133 340.965C253.168 343.328 254.744 348.635 257.849 348.992C259.379 349.17 260.64 349.081 262.035 348.412C288.409 335.926 311.498 316.841 329.051 293.698C344.534 273.275 356.641 249.062 360.962 223.734C361.637 219.676 361.772 215.484 362.042 211.382C362.087 210.757 362.222 210.222 362.447 209.776C362.627 209.464 362.987 209.241 363.347 209.152C372.754 207.814 380 199.699 380 189.889ZM277.247 271.045C280.218 271.045 282.963 272.339 284.809 274.39C285.889 275.549 286.699 276.976 287.104 278.537C287.329 279.384 287.464 280.231 287.464 281.168C287.464 286.742 282.873 291.245 277.247 291.245C273.512 291.245 270.271 289.239 268.471 286.296C267.661 284.958 267.166 283.397 267.076 281.747C267.031 281.524 267.031 281.346 267.031 281.123C267.031 275.594 271.621 271.045 277.247 271.045ZM360.107 204.96C354.526 204.96 349.665 201.973 347.009 197.558C345.794 195.552 345.029 193.233 344.894 190.78C344.849 190.468 344.849 190.156 344.849 189.889C344.849 181.55 351.69 174.772 360.107 174.772C364.562 174.772 368.613 176.689 371.404 179.766C373.024 181.505 374.239 183.601 374.824 185.964C375.184 187.213 375.364 188.506 375.364 189.889C375.364 198.227 368.523 204.96 360.107 204.96ZM371.404 186.99C371.674 187.882 371.764 188.863 371.764 189.889C371.764 196.265 366.543 201.438 360.107 201.438C355.876 201.438 352.185 199.208 350.16 195.864C349.08 194.125 348.45 192.074 348.45 189.889C348.45 189.844 348.45 189.755 348.45 189.666C348.54 183.378 353.716 178.295 360.062 178.295C363.167 178.295 366.003 179.499 368.073 181.461C369.693 182.977 370.863 184.85 371.404 186.99ZM39.6518 193.01C39.7418 192.653 40.0569 192.341 40.4169 192.386C42.8923 192.43 51.4438 192.296 56.1696 192.386C60.8504 192.475 65.8913 192.386 70.7071 192.296C72.1023 192.252 72.9575 192.296 72.9575 190.825C72.9575 189.264 71.6523 189.353 70.4821 189.353C65.6212 189.398 64.046 189.353 59.1851 189.353L54.3243 189.309C49.5085 189.309 45.8178 189.353 41.002 189.264C40.822 189.264 40.5969 189.22 40.3719 189.175C39.9668 189.086 39.6968 188.729 39.6968 188.372C39.6068 187.079 39.3817 185.831 39.0667 184.627C38.3916 182.308 37.3564 180.168 35.9612 178.295C32.6756 173.836 27.5897 170.803 21.7387 170.268C21.2886 170.224 20.9286 169.778 21.0636 169.332C21.2886 168.262 21.4687 167.147 21.6037 166.077C25.6094 133.703 39.5618 102.756 61.3005 78.0972C68.8618 69.491 77.3682 61.7321 86.5948 54.9095C89.2053 52.9921 91.9057 51.1192 94.6512 49.3356C95.5063 48.7559 95.8664 47.6411 95.3713 46.7493C95.2813 46.5709 95.1463 46.4371 95.0113 46.3033C94.1561 45.5453 92.6709 46.125 91.6807 46.7939C83.6693 51.9665 76.5131 58.8336 69.3119 65.0318C55.5845 76.8932 45.5478 91.6085 37.0413 107.394C32.3155 116.134 27.9498 125.097 25.1143 134.684C23.314 140.793 21.3787 146.858 20.0284 153.011C18.9482 158.05 18.6782 163.223 18.0031 168.351C17.9581 168.618 17.9131 169.02 17.8681 169.421C17.778 169.911 17.418 170.357 16.8779 170.402C7.33625 171.873 0 179.989 0 189.889C0 191.003 0.0900154 192.074 0.270046 193.144C0.675115 195.552 1.48525 197.781 2.70046 199.788C6.12105 205.629 12.5571 209.598 19.8934 209.598C29.6151 209.553 37.8965 202.151 39.6518 193.01ZM6.79616 197.558C5.58096 195.552 4.81582 193.233 4.6808 190.78C4.63579 190.468 4.63579 190.156 4.63579 189.889C4.63579 181.55 11.477 174.772 19.8934 174.772C24.3492 174.772 28.3999 176.689 31.1903 179.766C32.8106 181.505 34.0258 183.601 34.6109 185.964C34.971 187.213 35.151 188.506 35.151 189.889C35.151 198.227 28.3098 204.96 19.8934 204.96C14.3124 204.96 9.45162 201.973 6.79616 197.558ZM19.8934 201.438C15.6627 201.438 11.972 199.208 9.9467 195.864C8.86652 194.125 8.23641 192.074 8.23641 189.889C8.23641 189.844 8.23641 189.755 8.23641 189.666C8.32642 183.378 13.5023 178.295 19.8484 178.295C22.9539 178.295 25.7894 179.499 27.8598 181.461C29.435 182.888 30.6052 184.805 31.1453 186.945C31.4154 187.837 31.5054 188.818 31.5054 189.844C31.5504 196.265 26.3295 201.438 19.8934 201.438ZM76.7381 305.203C74.6678 302.393 71.3372 300.565 67.5566 300.565C61.3005 300.565 56.2146 305.604 56.2146 311.802C56.2146 312.426 56.2596 313.051 56.3946 313.675C56.6197 315.057 57.1148 316.306 57.7899 317.465C59.7702 320.81 63.4158 323.039 67.6016 323.039C73.8576 323.039 78.9435 318 78.9435 311.802C78.9435 310.777 78.8085 309.751 78.5384 308.77C78.1334 307.521 77.5033 306.273 76.7381 305.203ZM67.5566 320.453C64.361 320.453 61.6155 318.758 60.0853 316.217C59.3652 315.057 58.9601 313.764 58.8701 312.337C58.8251 312.159 58.8251 311.98 58.8251 311.802C58.8251 307.031 62.7407 303.196 67.5116 303.196C70.077 303.196 72.3724 304.266 73.9477 306.05C74.8478 307.031 75.5679 308.235 75.883 309.573C76.063 310.286 76.198 311.044 76.198 311.802C76.243 316.573 72.3274 320.453 67.5566 320.453ZM73.9927 310.197C74.1277 310.732 74.2177 311.267 74.2177 311.847C74.2177 315.503 71.2472 318.446 67.5566 318.446C65.1261 318.446 63.0108 317.153 61.8856 315.236C61.2555 314.255 60.9404 313.095 60.9404 311.847C60.9404 311.802 60.9404 311.758 60.9404 311.713C60.9854 308.101 63.9559 305.247 67.6016 305.247C69.3569 305.247 70.9771 305.916 72.1473 307.075C73.0025 307.878 73.6776 308.948 73.9927 310.197ZM124.491 339.092C127.057 339.092 129.397 340.073 131.152 341.723C132.458 342.927 133.403 344.488 133.898 346.271C134.123 347.03 134.213 347.832 134.213 348.679C134.213 353.986 129.892 358.267 124.536 358.267C121.026 358.267 117.965 356.394 116.255 353.629C115.355 352.202 114.86 350.463 114.86 348.679C114.86 348.635 114.86 348.546 114.86 348.501C114.905 343.284 119.18 339.092 124.491 339.092ZM271.892 191.806C273.602 189.22 274.997 188.506 277.652 189.576C284.629 192.43 293.27 185.831 296.106 179.855C298.986 173.746 297.951 166.835 294.26 161.35C293.405 160.101 292.1 158.986 290.255 159.076C290.12 165.319 290.975 173.568 283.233 175.798C280.893 176.466 278.418 176.243 276.077 175.619C269.911 174.014 264.96 170.001 260.19 166.032C255.194 161.885 249.658 158.005 244.032 154.661C229.404 145.877 212.661 138.92 195.468 137.582C178.951 136.334 162.388 140.882 147.58 148.017C139.659 151.852 132.143 156.489 125.121 161.751C118.55 166.656 112.609 172.498 104.598 175.039C104.058 175.218 103.473 175.396 102.888 175.53C98.6119 176.6 93.841 176.065 91.0956 171.784C88.8902 168.351 89.0252 164.56 89.7003 160.726C89.7904 160.19 89.7454 159.655 89.7454 159.12C89.2053 159.254 88.6652 159.343 88.1701 159.566C85.3796 160.859 83.2192 163.713 82.4541 166.656C82.049 168.217 81.959 169.778 81.914 171.383C81.824 175.218 82.2741 179.008 84.6145 182.174C89.2053 188.417 95.6864 189.978 102.978 189.22C106.128 188.908 106.533 189.041 108.108 191.94C114.5 203.444 122.691 213.433 133.448 221.236C138.939 225.205 144.565 228.951 151.001 231.314C155.592 233.009 160.182 234.792 164.863 236.353C167.384 237.2 169.994 237.735 172.56 238.315C175.305 238.895 178.05 239.519 180.841 239.876C182.686 240.099 183.046 241.035 182.866 242.551C181.651 254.234 180.751 266.006 178.185 277.511C174.81 292.94 169.184 308.77 172.605 324.689C173.64 329.594 175.8 334.366 179.491 337.799C183.181 341.233 188.537 343.061 193.398 341.768C197.269 340.742 200.419 337.888 202.715 334.633C212.706 320.185 208.071 300.966 204.11 285.404C203.345 282.327 202.535 279.206 201.86 276.129C199.429 264.847 197.944 253.342 197.134 241.838C197.044 240.366 197.854 239.564 199.294 239.251C203.12 238.404 206.9 237.468 210.726 236.71C215.677 235.729 220.358 234.168 225.038 232.34C236.831 227.702 247.002 220.835 255.914 211.917C262.125 205.852 267.121 198.941 271.892 191.806ZM245.562 209.643C237.866 215.975 229.449 221.192 220.088 224.804C217.117 225.963 211.446 227.435 208.746 227.925C208.431 227.97 208.251 227.568 208.566 227.39C210.546 226.275 212.346 225.205 214.147 224.18C220.763 220.389 225.038 214.637 227.784 207.681C228.504 205.852 228.909 203.444 229.089 201.482C229.089 201.259 228.999 201.036 228.819 200.813C228.279 200.055 227.154 199.966 226.524 200.635C226.434 200.724 226.389 200.813 226.299 200.947C225.399 202.909 224.498 205.362 223.553 207.368C221.168 212.496 217.027 216.153 212.751 219.631C209.061 222.574 204.875 224.67 200.554 226.409C198.844 227.078 196.999 227.524 195.153 227.658C190.293 227.97 185.387 228.104 180.706 226.677C169.004 223.198 159.507 216.554 154.781 204.871C154.421 203.979 154.196 203.043 153.791 202.24C153.341 201.349 152.846 200.412 151.496 200.769C150.191 201.126 150.416 202.776 150.596 203.444C151.406 206.298 152.351 209.063 153.701 211.694C157.257 218.516 162.613 223.644 169.679 226.9C169.769 226.944 169.904 227.033 169.994 227.123C170.489 227.524 170.129 228.327 169.454 228.237C168.239 228.014 166.979 227.836 165.808 227.524C161.128 226.231 156.447 224.893 152.306 222.351C143.89 217.223 135.068 212.496 128.857 204.515C124.986 199.52 121.386 194.348 117.74 189.175C116.57 187.481 116.975 185.385 118.46 184.002C127.777 175.396 137.679 167.548 148.975 161.617C154.196 158.853 159.552 156.266 165.043 154.081C167.339 153.145 169.769 151.941 172.424 152.075C172.83 152.075 172.965 152.654 172.605 152.833C168.374 155.018 164.368 157.381 160.812 160.636C155.412 165.541 151.766 171.428 149.876 178.384C149.561 179.588 149.516 180.926 149.651 182.13C149.696 182.531 149.921 182.888 150.191 183.244C150.506 183.646 151.091 183.735 151.496 183.378C151.856 183.111 152.171 182.798 152.306 182.442C153.701 178.295 155.322 174.237 157.752 170.536C162.208 163.624 168.149 158.63 175.8 155.285C181.606 152.788 187.502 152.253 193.443 153.011C203.84 154.304 212.256 159.432 218.872 167.37C221.933 171.026 224.228 175.53 226.164 179.811C226.389 180.257 226.614 180.747 226.974 181.059C227.289 181.327 227.874 181.55 228.279 181.505C229.179 181.327 229.089 180.078 229.089 179.766C228.954 176.11 228.189 175.084 227.379 173.033C224.723 166.389 220.583 161.038 214.372 157.024C211.896 155.419 209.376 153.992 206.765 152.565C206.54 152.432 206.27 152.298 206 152.164C205.55 151.941 205.82 151.317 206.27 151.406C208.206 151.852 210.186 152.209 212.076 152.877C218.332 155.107 224.408 157.783 229.899 161.617C237.056 166.567 244.122 171.695 251.323 176.6C255.059 179.142 258.884 181.505 262.845 183.735C264.285 184.538 264.15 185.519 263.61 186.455C258.749 195.106 253.303 203.266 245.562 209.643ZM169.859 117.427C174 104.674 180.211 92.6787 186.512 80.8173C187.367 79.212 188.987 77.25 191.013 78.3648C192.093 78.9445 192.723 80.1038 193.308 81.174C197.629 89.3789 201.004 98.0297 204.425 106.68C206.09 110.917 207.756 115.153 209.421 119.389C209.691 120.103 210.006 120.905 209.736 121.619C209.016 123.67 204.65 122.733 203.21 122.511C200.149 122.065 197.044 121.752 193.893 121.619C187.817 121.307 181.696 121.529 175.665 122.332C174.585 122.466 173.595 122.511 172.695 122.421C170.264 122.154 168.734 120.861 169.859 117.427ZM140.604 301.279C140.514 301.234 118.73 290.71 108.379 284.111C97.6217 277.244 88.4851 268.102 80.8788 257.891C76.9182 252.54 74.0827 247.501 70.212 242.061C67.2415 237.914 64.046 239.43 60.4453 240.768C54.0542 243.131 40.5069 248.437 34.3409 251.247C32.9456 251.916 31.1453 252.495 29.9751 251.514C29.5251 251.113 29.255 250.578 29.03 250.043C25.5644 242.284 23.359 234.391 22.4138 225.963C22.3238 224.982 21.8287 224.046 20.9736 223.466C18.3631 221.638 18.4081 225.651 18.6332 226.989C19.1283 229.976 19.7584 232.964 20.5235 235.863C22.0538 241.972 24.1691 247.902 26.7346 253.565C27.1396 254.502 27.6347 255.438 28.4899 255.973C29.8401 256.776 31.5954 256.196 33.0807 255.617C42.7123 251.737 52.389 247.813 62.0206 243.934C62.9208 243.577 63.8659 243.176 64.8561 243.265C67.0615 243.399 68.0966 245.45 69.2218 247.323C75.7029 258.158 83.9394 267.879 92.8509 276.842C93.9761 277.957 95.0113 278.626 95.0563 280.008C95.1013 281.435 93.9761 282.55 93.481 283.085C90.0604 286.742 86.6848 290.398 83.2642 294.099C82.9042 294.501 82.7242 295.08 82.9492 295.615C83.4443 296.775 85.1996 296.017 86.0997 295.125C89.1603 292.182 91.7257 289.283 94.7862 286.251C96.1365 284.913 97.5767 283.263 99.287 283.085C100.862 282.951 102.708 284.423 104.103 285.27C114.5 291.513 124.851 298.023 136.103 302.705C137.724 303.374 139.704 304.4 139.884 305.515C140.109 306.897 138.939 308.993 138.444 310.197C135.788 316.752 133.133 323.262 130.387 329.728C130.027 330.531 129.667 331.378 129.307 332.181C129.082 332.626 128.632 332.849 128.137 332.76C126.922 332.493 125.661 332.314 124.401 332.314C115.265 332.314 107.883 339.627 107.883 348.679C107.883 349.616 107.973 350.508 108.108 351.355C108.424 353.362 109.144 355.19 110.134 356.884C112.969 361.745 118.325 365 124.401 365C133.538 365 140.919 357.687 140.919 348.679C140.919 347.163 140.694 345.692 140.334 344.309C139.794 342.392 138.939 340.608 137.769 339.048C136.373 337.13 134.528 335.525 132.413 334.366C131.963 334.098 131.738 333.563 131.963 333.072C135.518 324.6 138.894 316.573 142.494 308.146C143.124 306.674 143.485 305.158 142.989 303.82C142.494 302.482 141.369 301.635 140.604 301.279ZM133.853 340.296C135.203 341.723 136.193 343.507 136.688 345.424C136.958 346.45 137.138 347.565 137.138 348.679C137.138 355.591 131.467 361.21 124.491 361.21C119.856 361.21 115.805 358.757 113.599 355.056C112.564 353.406 111.979 351.489 111.844 349.438C111.799 349.17 111.799 348.947 111.799 348.679C111.799 341.768 117.47 336.149 124.446 336.149C128.182 336.149 131.558 337.754 133.853 340.296ZM144.385 127.059C145.645 128.04 148.345 129.288 146.635 130.983C145.6 131.964 143.98 132.276 142.719 132.811C139.929 133.926 137.228 135.264 134.573 136.691C129.397 139.5 124.536 142.889 120.126 146.768C118.145 148.507 116.255 150.38 114.095 151.852C112.249 153.145 110.989 151.986 110.989 149.934C110.989 137.137 110.944 124.339 110.944 111.541C110.944 110.159 110.494 107.216 111.349 106.056C112.069 105.031 113.554 105.833 114.41 106.279C125.211 111.675 134.798 119.701 144.385 127.059ZM233.185 127.46C233.14 127.059 233.365 126.658 233.635 126.301C235.12 124.294 237.416 123.269 239.351 121.842C242.772 119.344 246.147 116.847 249.478 114.261C254.654 110.203 260.099 106.591 265.996 103.693C268.696 102.355 269.416 102.801 269.416 105.789C269.461 119.657 269.416 133.525 269.416 147.348C269.416 148.374 269.191 149.711 268.156 149.979C266.941 150.247 265.635 148.864 264.825 148.151C263.385 146.902 261.945 145.654 260.505 144.405C257.579 141.952 254.609 139.589 251.413 137.449C246.102 133.881 240.251 131.563 234.49 128.843C234.4 128.798 234.265 128.753 234.175 128.709C233.725 128.352 233.23 127.995 233.185 127.46ZM153.701 192.207C153.701 193.991 152.216 195.462 150.416 195.462C148.615 195.462 147.13 193.991 147.13 192.207C147.13 190.424 148.615 188.952 150.416 188.952C152.216 188.908 153.701 190.379 153.701 192.207ZM231.295 191.182C231.295 192.965 229.809 194.437 228.009 194.437C226.209 194.437 224.723 192.965 224.723 191.182C224.723 189.398 226.209 187.926 228.009 187.926C229.809 187.926 231.295 189.398 231.295 191.182ZM189.617 162.197C174.18 162.197 161.623 174.594 161.623 189.933C161.623 205.228 174.18 217.669 189.617 217.669C205.1 217.669 217.612 205.273 217.612 189.933C217.567 174.638 205.055 162.197 189.617 162.197ZM189.617 199.609C184.217 199.609 179.851 195.284 179.851 189.933C179.851 184.582 184.217 180.257 189.617 180.257C195.018 180.257 199.384 184.582 199.384 189.933C199.339 195.284 194.973 199.609 189.617 199.609Z" fill="white"/>
</svg>
