<svg width="800" height="1080" viewBox="0 0 800 1080" fill="none" xmlns="http://www.w3.org/2000/svg">
<g clip-path="url(#clip0_174_17615)">
<g style="mix-blend-mode:screen" opacity="0.6" clip-path="url(#clip1_174_17615)">
<path d="M593.753 635.627C600.132 629.801 606.401 623.975 612.78 618.149C619.05 612.434 625.319 607.828 631.588 602.331C637.857 596.835 644.236 591.559 650.176 585.843C653.475 582.655 656.445 579.138 659.634 575.95C660.954 574.631 662.384 573.312 663.374 571.663C663.814 571.224 664.364 570.784 664.694 570.234C665.904 568.695 666.454 566.937 666.344 564.958C666.234 563.859 666.234 562.76 666.124 561.55C666.344 558.033 666.014 554.625 665.684 551.108C664.804 540.116 664.914 532.014 664.584 521.021C664.364 515.415 664.364 509.809 664.804 504.203C665.134 498.597 665.684 492.991 665.904 487.385C666.124 481.669 665.794 475.844 665.684 470.128C665.574 464.522 665.464 458.806 665.464 453.09C665.574 446.714 665.904 440.229 666.014 433.854C666.014 428.357 666.014 422.861 666.014 417.365C666.783 415.607 666.783 413.188 666.893 411.43C667.003 409.121 667.003 406.703 666.893 404.395C666.783 401.647 666.454 398.898 666.344 396.04C666.234 393.292 666.344 390.654 666.344 387.906C666.344 382.63 665.574 377.354 665.684 371.968C665.794 368.23 666.014 364.603 663.704 361.635C663.044 359.107 660.734 357.128 658.865 355.479C655.785 352.621 652.595 349.983 649.516 347.125C643.466 341.409 637.637 335.584 631.808 329.758C625.979 323.932 620.039 318.106 613.88 312.5C607.611 306.784 601.342 301.178 595.183 295.242C593.863 293.923 592.433 292.604 591.223 291.175C590.233 290.076 589.353 288.867 588.254 287.768C586.164 285.679 583.304 283.701 580.225 284.91C580.115 285.02 579.895 285.02 579.785 285.13C579.345 284.91 578.795 285.02 578.245 285.459C576.045 287.438 573.295 288.757 571.096 290.955C568.566 293.374 565.926 295.792 563.287 298.21C557.897 303.157 552.508 308.213 547.119 313.269C542.059 317.886 537.11 322.613 532.051 327.12C526.881 331.736 521.492 335.693 515.883 339.761C509.724 344.157 503.784 348.884 498.395 354.27C498.175 354.49 498.065 354.71 497.955 354.93C494.216 357.898 495.755 362.954 495.315 367.351C494.655 374.496 495.755 381.531 495.755 388.676C495.755 396.04 494.985 403.405 495.315 410.66C495.535 414.397 495.865 418.135 495.865 421.872C495.975 425.609 495.645 429.347 495.535 433.194C495.315 440.559 495.535 447.814 495.535 455.178C495.535 462.433 494.765 469.688 494.875 476.943C495.095 484.527 495.425 492.112 495.205 499.807C495.095 503.324 494.655 506.842 494.326 510.359C493.996 513.986 494.326 517.614 494.326 521.351C494.546 529.595 493.446 534.73 493.116 542.974C492.786 550.229 495.205 557.373 494.765 564.518C494.326 564.848 494.216 565.398 494.436 565.947C494.546 566.057 494.545 566.277 494.655 566.387V566.497C494.545 567.156 494.875 567.596 495.315 567.816C496.635 570.234 498.395 572.213 500.485 574.191C503.344 576.94 505.984 580.017 508.844 582.765C514.673 588.481 520.832 593.758 526.991 599.144C533.261 604.64 539.31 609.466 545.359 615.292C548.329 618.149 551.298 621.007 554.048 623.975C557.018 627.053 559.767 630.351 562.627 633.429C565.706 636.726 569.226 638.694 572.416 641.882C574.615 643.97 577.255 646.609 580.445 645.399C580.664 645.399 580.884 645.399 581.214 645.289C582.864 644.96 584.074 643.86 585.174 642.651C587.924 640.013 590.783 638.265 593.753 635.627ZM580.555 632.219C580.005 632.219 579.565 632.329 579.345 632.769C577.365 632.329 575.605 631.01 574.175 629.911C572.086 628.262 569.996 626.503 567.796 624.965C561.967 621.007 556.468 616.501 551.628 611.444C546.459 605.948 541.51 601.232 536.23 595.846C531.281 590.79 525.782 586.283 520.612 581.446C517.753 578.698 515.113 575.73 512.363 572.762C509.724 569.795 506.974 566.937 504.554 563.749C504.994 561.55 504.884 559.132 504.664 556.934C504.444 553.856 504.444 550.888 504.334 547.81C504.114 540.995 504.774 537.29 504.334 530.475C504.114 527.177 503.784 523.879 503.674 520.472C503.564 517.064 503.564 513.657 503.674 510.249C503.784 503.544 504.004 496.729 503.784 489.914C503.564 483.098 503.344 476.283 503.454 469.358C503.564 462.543 503.784 455.838 503.894 449.023C504.114 435.283 503.894 421.542 503.674 407.802C503.564 400.327 503.234 392.853 504.004 385.378C504.884 378.013 506.204 370.759 506.314 363.394C506.314 363.284 506.314 363.174 506.314 363.064C507.524 360.756 509.724 358.887 511.483 357.238C514.233 354.6 516.653 351.742 519.402 349.214C525.452 343.498 531.831 338.222 537.88 332.616C543.709 327.12 549.099 320.964 555.478 316.018C560.427 312.17 565.486 308.653 569.776 304.036C571.646 302.057 573.625 299.969 575.715 298.32C577.145 297.221 579.345 295.462 581.324 296.342C581.874 296.561 582.314 296.451 582.644 296.122C584.844 297.111 586.384 299.199 588.034 300.848C590.343 303.047 592.763 305.025 595.073 307.114C597.492 309.312 600.022 311.621 602.662 313.709C605.081 315.688 607.611 317.556 610.141 319.425C612.67 321.404 615.09 323.382 617.18 325.691C619.27 327.889 621.249 330.417 623.229 332.726C627.519 337.672 632.578 341.959 636.867 346.796C639.177 349.324 641.267 351.852 644.016 353.94C646.106 355.479 648.196 357.018 650.176 358.667C651.935 360.316 653.695 361.965 655.345 363.833C657.875 366.691 657.655 370.319 657.545 373.946C657.435 378.343 657.655 382.74 657.765 387.137C657.875 391.863 657.985 396.7 657.875 401.427C657.765 403.955 657.655 406.593 657.655 409.121C657.655 409.451 657.655 409.891 657.655 410.33C657.105 410.66 656.775 411.21 656.995 411.979C658.205 416.486 657.655 421.323 657.655 426.049C657.545 431.215 657.875 436.382 657.765 441.548C657.655 447.044 657.435 452.54 657.435 458.036C657.545 463.642 657.765 469.248 657.765 474.854C657.765 480.35 657.435 485.847 657.435 491.343C657.325 496.949 657.545 502.445 657.655 508.051C657.765 513.547 657.985 519.043 657.765 524.539C657.655 530.145 657.105 532.751 657.105 538.357C657.105 544.403 657.325 550.229 656.775 556.274C656.555 559.242 656.445 562.21 656.005 565.068C655.675 566.937 654.905 568.476 653.915 570.014C648.746 574.082 644.016 578.588 639.287 583.205C634.448 587.932 629.388 592.548 624.329 597.165C619.49 601.562 614.54 604.739 609.591 609.026C604.641 613.423 600.242 618.369 595.403 622.876C592.873 625.184 590.343 627.493 587.594 629.471C585.724 630.351 583.084 632.439 580.555 632.219ZM774.57 278.204C773.36 276.336 771.49 274.907 769.73 273.588C767.311 271.829 765.001 270.18 762.801 268.202C760.602 266.223 758.402 264.244 755.872 262.705C753.342 261.167 751.583 258.968 749.383 257.099C747.403 255.451 745.093 254.242 743.224 252.483C741.024 250.504 739.374 248.086 737.065 246.107C734.645 244.019 732.005 242.26 729.585 240.172C729.255 239.842 728.926 239.622 728.596 239.292C728.046 238.743 727.496 238.193 726.946 237.753C726.946 237.314 726.726 236.874 726.396 236.434C724.636 234.236 722.216 231.817 719.467 230.389C717.707 228.63 715.947 226.871 714.077 225.222C713.857 225.002 713.637 224.892 713.308 224.892C709.458 220.935 705.059 217.638 701.319 213.68C697.25 209.393 693.29 204.997 688.891 201.039C684.381 196.972 679.432 193.345 674.812 189.278C670.083 185.211 665.354 181.034 660.734 176.857C651.605 168.503 642.807 159.929 634.008 151.245C625.539 143.001 617.95 133.877 609.261 125.853C604.311 121.346 598.922 117.169 594.083 112.552C591.993 110.574 590.123 108.705 588.473 106.507C587.484 105.188 586.274 103.869 584.844 103.099C584.734 102.879 584.514 102.769 584.294 102.55C580.555 100.131 576.595 103.759 574.065 106.287C572.746 107.606 571.646 109.145 570.436 110.574C568.896 112.443 567.136 114.201 565.376 115.85C560.647 120.247 555.478 124.314 550.968 128.931C546.789 133.108 543.049 137.615 539.09 141.902C526.991 154.652 514.563 166.964 501.475 178.725C499.825 179.715 498.285 180.814 496.745 182.023C489.706 185.431 483.547 190.927 477.828 196.203C474.638 199.171 471.778 202.468 468.699 205.546C467.489 206.755 466.279 208.074 464.959 209.284C461.22 212.251 457.48 215.219 453.961 218.297C441.202 229.289 429.434 241.491 416.785 252.593C412.386 256.44 407.987 260.507 403.917 264.794C401.827 266.443 399.958 268.311 398.088 270.29C395.338 273.148 392.369 275.896 390.389 279.414C388.519 282.601 387.639 286.229 387.309 289.966C386.979 294.583 387.639 299.309 387.529 303.926C387.419 308.763 386.869 313.489 386.759 318.216C386.649 323.162 386.759 328.109 386.869 333.055C386.979 342.838 386.979 352.621 387.419 362.404C387.639 367.791 387.859 373.067 387.859 378.453C387.859 380.981 388.079 383.619 388.079 386.148C388.079 388.346 388.079 390.654 388.629 392.853C388.629 392.853 388.629 392.963 388.739 392.963C388.629 393.183 388.519 393.402 388.519 393.732C388.409 395.711 388.519 397.799 388.629 399.778C388.629 400.657 388.629 401.427 388.739 402.306C388.959 406.703 389.289 411.1 389.179 415.497C389.069 422.861 388.189 430.116 388.189 437.481C388.189 444.736 389.179 451.991 389.069 459.355C388.959 462.873 388.629 466.39 388.629 469.908C388.629 473.645 388.739 477.383 388.959 481.12C389.619 495.849 389.289 510.579 388.409 525.308C387.969 532.673 387.309 540.148 386.979 547.513C386.649 554.877 386.979 562.242 386.319 569.607C385.989 573.674 385.439 577.631 385.439 581.698C385.439 585.875 385.989 589.942 386.319 594.119C386.649 597.747 386.979 601.484 386.539 605.112C386.209 607.97 385.659 611.047 386.869 613.795C386.979 614.125 387.309 614.345 387.529 614.455C397.648 628.195 412.826 636.439 425.804 647.102C433.173 653.257 439.663 660.402 446.482 666.997C448.241 668.646 449.891 670.185 451.871 671.614C453.741 672.933 455.72 674.252 457.37 675.791C459.13 677.44 460.78 679.199 462.43 680.848C464.079 682.496 465.949 683.925 467.489 685.684C468.919 687.333 470.239 689.202 471.668 690.96C473.098 692.719 474.748 694.368 476.508 696.017C477.828 697.226 479.147 698.325 480.577 699.424C483.437 702.172 486.407 704.811 489.266 707.559C495.865 713.714 502.464 723.76 509.284 729.476C510.493 730.465 511.593 731.454 512.803 732.334C519.072 738.27 525.232 746.315 531.501 752.251C533.81 754.449 536.23 756.648 538.65 758.846C541.07 762.474 544.809 765.112 547.999 767.97C550.638 770.278 552.948 774.916 555.698 777.005C559.767 781.072 563.947 785.029 567.906 789.096C569.776 791.075 571.756 793.053 573.955 794.702C575.605 796.021 577.695 797.67 579.895 797.56C580.774 797.56 581.654 797.23 582.314 796.571C582.754 796.791 583.194 796.791 583.634 796.571C587.264 794.812 589.683 791.405 592.213 788.437C595.293 784.699 598.922 781.622 602.332 778.324C606.071 774.586 609.481 768.629 613.33 765.002C616.96 761.484 621.029 758.627 624.549 755.109C632.248 747.854 639.947 740.599 648.086 731.784C656.225 724.969 663.814 717.714 671.623 710.569C679.542 703.534 687.021 691.95 694.5 684.475C701.869 677.11 709.568 670.075 717.377 663.04C721.227 659.633 724.966 656.005 728.926 652.708C732.775 649.41 736.845 646.222 740.804 643.035C744.764 639.847 748.723 636.659 752.573 633.252C756.312 629.954 759.612 626.217 763.571 623.139C766.651 620.72 770.94 619.401 773.03 615.774C774.9 612.476 775.12 608.409 775.23 604.782C775.34 600.495 775.34 596.098 775.23 591.811C775.12 589.613 775.01 587.304 775.01 585.106C775.01 583.457 775.23 581.698 775.12 580.049C775.12 579.17 775.01 578.181 774.79 577.301C775.23 575.653 774.9 573.894 774.57 572.135C774.13 569.607 774.13 567.408 774.24 564.88C774.68 558.944 773.91 553.119 773.58 547.183C773.47 544.215 773.36 541.357 773.58 538.389C773.8 535.751 774.46 533.223 774.79 530.585C775.12 527.947 774.79 525.308 773.47 522.89C772.92 521.901 772.15 521.021 771.93 519.812C771.6 518.273 772.15 516.735 772.59 515.415C773.47 512.667 774.02 510.029 774.02 507.171C773.91 504.203 773.47 501.346 773.36 498.488C773.03 492.002 772.48 485.627 772.15 479.141C771.6 466.39 773.03 453.749 772.92 440.998C772.81 433.963 772.81 427.038 773.14 420.003C773.25 416.596 773.47 413.188 773.47 409.781C773.36 406.373 773.25 402.856 773.69 399.448C773.69 399.118 773.69 398.898 773.58 398.569C774.13 397.03 774.02 395.381 774.02 393.842C773.91 391.424 773.58 389.115 773.58 386.697C773.47 382.74 773.91 378.783 774.02 374.826C774.13 370.649 774.13 366.581 774.13 362.404C774.13 353.94 774.02 345.367 774.46 336.903C774.68 332.616 775.23 328.329 775.45 324.042C775.67 320.085 775.56 316.237 775.23 312.28C775.01 310.082 774.79 307.773 774.79 305.575C774.79 303.376 775.01 301.178 775.23 298.98C775.56 294.583 775.01 290.186 776.109 285.899C776.439 285.679 776.549 285.459 776.659 285.02C776.329 282.821 775.89 280.293 774.57 278.204ZM584.294 238.083C584.624 234.566 584.734 231.048 585.064 227.64C585.614 222.144 586.384 216.648 586.384 211.152C586.384 208.404 587.154 205.766 587.484 203.128C587.814 200.6 587.374 198.181 587.044 195.763C585.394 184.661 583.854 173.009 585.834 161.797C586.824 156.521 587.704 151.245 589.133 146.079C589.573 144.32 589.793 142.561 590.123 140.692C590.233 140.253 590.233 139.483 590.563 139.373C591.223 139.263 592.433 140.473 592.873 140.802C597.382 144.43 601.342 148.607 605.851 152.234C610.031 155.642 614.21 159.489 617.18 164.106C617.51 164.655 618.06 164.875 618.61 164.765C619.929 165.864 621.359 167.074 622.789 168.173C624.659 169.602 626.639 170.921 628.508 172.46C630.268 173.999 631.918 175.757 633.348 177.626C634.778 179.385 635.987 181.144 637.857 182.573C639.397 183.782 641.157 184.881 642.807 185.87C644.786 187.079 646.656 188.508 648.416 190.157C651.935 193.455 654.905 197.302 658.095 200.929C661.174 204.447 664.474 207.745 668.323 210.273C670.303 211.482 672.503 212.471 674.373 213.9C676.132 215.219 677.672 216.758 679.212 218.297C682.621 221.925 686.031 225.552 689.771 228.85C691.64 230.498 693.51 232.037 695.49 233.466C697.58 234.895 699.559 236.324 701.209 238.193C702.969 240.062 704.839 241.381 707.148 242.59C708.248 243.139 709.348 243.689 710.228 244.568C711.328 245.558 712.208 246.657 713.198 247.756C715.177 249.845 716.937 252.043 718.917 254.132C720.787 256.22 722.766 258.199 724.196 260.617C724.416 260.947 724.636 261.167 724.966 261.276C728.156 265.893 732.885 268.751 737.174 272.269C739.704 274.357 741.904 276.666 743.554 279.523C744.324 280.843 745.093 282.272 745.753 283.701C746.193 284.58 746.523 285.569 746.963 286.558C746.853 286.888 746.743 287.218 746.853 287.548C747.513 289.746 744.983 291.505 743.664 292.934C741.574 295.242 739.484 297.551 737.284 299.639C735.085 301.728 732.665 303.706 730.355 305.685C728.046 307.773 725.736 309.862 723.536 312.06C714.297 320.854 704.949 329.538 695.16 337.782C692.85 339.761 690.65 341.739 688.451 344.048C686.801 345.806 685.151 347.345 683.281 348.664C681.632 346.686 679.212 345.257 677.452 343.608C674.153 340.64 671.183 337.232 667.993 334.155C661.174 327.779 654.685 321.074 648.196 314.479C641.597 307.773 634.998 301.068 627.958 294.913C624.659 291.945 621.029 289.307 617.73 286.339C614.21 283.151 611.021 279.633 607.611 276.336C600.682 269.521 593.643 262.596 585.944 256.55C585.614 255.89 585.174 255.231 584.734 254.571C584.074 253.472 584.184 252.153 584.184 250.944C584.294 247.976 583.964 244.898 583.854 241.93C584.294 240.391 584.294 239.182 584.294 238.083ZM415.026 277.105C416.785 275.127 418.875 273.368 420.965 271.719C426.134 267.542 430.534 262.705 435.153 257.979C440.212 252.922 445.272 247.646 450.551 242.7C451.541 241.82 452.421 240.941 453.411 240.062C453.851 239.622 454.291 239.292 454.731 238.852C458.91 235.115 463.09 231.488 467.379 227.97C470.239 225.442 473.208 223.024 476.068 220.496C478.488 218.407 481.017 216.428 483.437 214.45C485.747 212.581 487.946 210.493 489.706 207.964C491.246 205.656 491.246 202.358 493.556 200.71C495.865 199.061 498.725 198.511 501.035 196.972C503.894 195.104 506.534 192.685 509.064 190.377C511.813 187.959 514.563 185.65 517.203 183.232C519.402 181.144 521.382 178.945 523.582 176.967C525.891 174.878 528.421 173.449 531.061 171.91C532.931 170.811 534.69 169.492 536.34 168.173C537.99 166.854 540.63 164.875 542.059 162.457C547.889 154.543 555.368 147.508 563.507 142.011C565.486 140.692 567.466 139.483 569.556 138.494C570.436 138.054 571.866 137.395 572.196 138.164C572.855 139.373 572.746 141.022 572.855 142.341C573.075 144.869 573.405 147.508 573.735 150.036C574.175 152.894 574.505 155.642 574.505 158.5C574.505 161.248 574.285 164.106 574.065 166.854C573.845 169.602 573.625 172.46 573.735 175.208C573.845 177.956 574.395 180.594 574.835 183.342C575.385 186.09 575.935 188.838 576.045 191.696C576.155 194.444 575.825 197.192 575.495 199.83C575.165 202.578 574.725 205.326 574.835 208.184C574.945 210.932 575.275 213.79 575.605 216.538C576.375 222.914 577.145 229.179 577.035 235.555C576.925 241.93 576.485 248.306 576.485 254.681C574.175 257.099 572.306 259.957 569.996 262.376C567.136 265.344 563.727 267.652 560.427 270.07C557.128 272.488 554.378 275.237 551.628 278.204C548.989 281.172 546.349 284.14 543.159 286.668C540.08 289.087 537.77 292.165 535.46 295.242C532.821 298.76 529.631 301.398 526.331 304.256C522.922 307.114 519.512 310.082 516.103 313.05C512.693 316.127 509.504 319.315 506.094 322.503C502.574 325.801 498.945 329.098 495.315 332.396C492.786 334.704 490.366 337.122 488.826 340.09C487.286 341.409 486.187 343.168 485.087 344.927C484.207 346.466 483.217 348.005 481.237 347.785C479.697 347.675 478.268 346.796 476.948 346.136C475.078 345.147 473.428 344.048 471.778 342.948C468.479 340.64 465.179 338.112 462.1 335.584C455.61 330.417 449.781 324.591 443.622 318.985C437.243 313.269 430.534 307.993 424.264 302.277C422.175 300.409 420.085 298.54 418.215 296.451C418.105 296.342 418.105 296.232 417.995 296.232C416.785 294.583 415.576 293.044 414.256 291.615C414.146 291.505 414.036 291.285 413.926 291.175C413.596 290.406 413.156 289.636 412.716 288.757C412.166 287.438 411.946 286.009 412.276 284.58C412.386 283.81 412.056 283.261 411.616 282.931C412.166 280.623 413.596 278.644 415.026 277.105ZM409.196 596.648C408.536 596.538 407.767 596.428 407.217 596.098C406.777 595.878 406.667 595.878 406.777 595.548C407.217 594.559 406.667 593.68 405.897 593.35C405.347 591.152 405.457 588.843 405.677 586.535C405.897 583.567 406.007 580.709 405.897 577.851C405.897 574.443 405.897 571.036 405.897 567.518C405.787 564.111 405.567 560.593 405.237 557.186C404.137 543.446 403.257 529.815 404.357 516.075C405.457 502.555 405.127 488.924 405.127 475.294C405.127 461.554 405.347 447.814 405.897 434.073C406.007 430.336 406.227 426.489 406.227 422.751C406.227 419.234 405.897 415.716 406.007 412.199C406.117 405.824 407.217 399.118 405.347 392.853C405.347 392.743 405.237 392.633 405.237 392.633C405.347 392.413 405.347 392.083 405.347 391.754C404.027 385.378 404.577 378.893 404.907 372.407C405.237 365.812 405.127 359.217 404.907 352.512C404.797 345.586 404.797 338.661 405.017 331.736C405.237 324.921 404.687 317.996 404.907 311.181C404.907 309.422 405.127 307.554 405.237 305.795C405.237 305.025 405.127 303.816 405.897 303.486C407.107 304.476 408.756 304.915 409.966 305.905C410.956 306.674 411.726 307.554 412.826 308.213C413.816 308.763 414.916 309.312 416.016 309.862C416.455 310.082 417.005 310.302 417.445 310.521C417.995 310.961 418.655 311.181 419.315 311.401C420.195 311.84 420.635 312.39 421.295 313.16C422.065 314.039 422.945 314.698 423.715 315.578C424.045 315.908 424.374 316.347 424.814 316.787C425.364 317.666 425.914 318.436 426.574 319.205C428.334 321.294 430.314 323.053 432.513 324.701C436.913 328.109 441.642 330.967 446.152 334.265C451.321 337.892 456.27 341.849 461.33 345.477C464.079 347.455 466.719 349.654 469.139 352.072C470.239 353.171 471.228 354.27 472.108 355.589C472.658 356.469 473.208 357.458 473.868 358.227C473.868 358.337 473.868 358.447 473.978 358.557C474.968 361.415 474.198 364.493 474.198 367.461C474.198 370.978 474.638 374.496 475.078 378.013C475.738 384.938 475.518 391.754 474.968 398.679C473.868 413.078 475.408 427.478 475.628 441.878C475.738 449.023 475.408 456.168 475.848 463.313C476.288 470.457 477.498 477.492 477.718 484.527C477.938 491.672 477.608 498.817 477.168 505.962C476.618 513.107 476.288 520.252 476.178 527.507C476.068 535.531 475.848 540.555 475.518 548.69C475.408 552.537 475.298 556.494 475.078 560.451C474.858 564.299 474.198 568.036 474.088 571.773C473.648 572.433 473.208 573.092 472.768 573.862C472.108 574.961 471.118 575.511 469.909 576.06C467.599 577.159 464.959 578.929 462.54 579.808C457.04 581.567 451.321 584.886 445.602 586.205C439.992 587.524 434.383 589.063 428.994 591.371C426.464 592.471 424.155 593.9 421.625 595.219C418.985 596.648 416.346 596.867 413.376 596.977C411.836 596.977 410.516 596.867 409.196 596.648ZM577.145 747.634C577.255 754.01 576.375 760.495 577.035 766.871C576.595 766.981 576.265 767.31 576.045 767.75C575.715 767.53 575.385 767.2 575.055 766.871C574.175 765.991 573.515 765.112 572.745 764.232C571.976 763.463 571.206 762.694 570.436 761.924C568.676 759.616 566.476 758.077 564.167 756.428C558.337 750.932 553.278 744.886 547.009 739.94C544.149 737.631 541.18 734.093 537.77 732.773C534.58 731.564 531.831 730.245 529.631 727.497C525.452 722.441 523.252 715.736 517.863 711.669C514.783 709.36 511.263 707.711 507.964 705.843C506.534 704.963 504.994 704.084 503.674 702.985C502.025 701.776 500.595 700.237 498.945 699.028C496.195 696.939 493.006 691.4 490.586 688.872C489.486 687.663 488.606 686.124 487.616 684.805C486.407 683.156 485.087 681.617 483.767 680.078C481.127 677.11 478.158 674.472 475.188 671.834C472.218 669.086 469.359 666.228 466.279 663.48C460.45 658.094 453.961 653.697 448.461 647.981C442.522 641.825 437.243 635.12 431.194 629.184C428.444 626.546 425.474 624.128 422.615 621.71C420.305 619.731 417.995 617.533 416.236 615.114C416.346 615.005 416.455 614.785 416.455 614.455C417.115 611.047 420.965 610.278 423.715 609.069C428.334 607.09 432.733 604.782 437.463 602.913C442.192 601.044 447.142 599.725 451.981 598.077C456.16 596.648 460.12 592.999 464.079 591.02C466.059 590.031 468.039 588.042 470.129 587.382C471.888 586.832 473.868 586.173 475.628 586.613C475.958 586.723 476.288 586.613 476.618 586.503C478.708 588.591 481.347 590.13 483.547 592.219C486.517 595.077 489.706 597.605 492.676 600.463C498.835 606.399 504.774 612.554 511.043 618.49C517.423 624.536 523.912 630.361 530.291 636.407C536.45 641.233 542.609 646.279 548.769 652.105C555.808 658.81 562.957 665.515 570.326 671.781C570.656 672.11 571.096 672.22 571.426 672.11C571.976 675.958 573.955 686.585 574.285 690.432C574.615 696.148 574.945 703.864 576.045 709.47C576.595 712.438 577.255 715.186 577.365 718.264C577.475 721.232 577.255 724.2 577.145 727.167C576.705 733.323 577.035 741.479 577.145 747.634ZM582.204 663.536C581.764 662.877 581.104 662.547 580.225 663.097C579.895 663.317 580.005 663.317 579.785 663.317C579.345 663.317 579.345 663.317 578.795 663.207C577.805 662.877 576.815 662.327 575.935 661.778C573.405 660.129 571.206 658.04 569.006 656.062C564.607 651.885 560.647 647.268 556.248 643.201C552.288 639.573 548.219 637.056 544.259 633.429C540.3 629.801 536.67 626.954 533.041 622.997C529.411 619.04 525.781 615.192 521.932 611.455C517.863 607.608 513.463 603.98 509.174 600.353C504.334 596.066 499.495 591.779 494.765 587.382C492.456 585.294 490.036 583.315 487.946 581.007C486.297 579.138 484.757 577.049 482.887 575.291C483.547 572.653 483.217 569.795 482.887 567.156C482.557 563.859 482.447 560.781 482.777 557.483C483.547 549.789 484.977 542.204 485.087 534.51C485.197 530.553 484.757 529.705 484.867 525.748C484.867 521.791 485.197 517.834 485.307 513.877C485.637 505.962 485.417 498.048 485.087 490.024C484.757 481.889 484.537 473.865 484.647 465.731C484.757 457.816 484.977 449.902 485.087 441.988C485.197 426.489 483.657 411.1 483.657 395.711C483.657 391.424 483.767 387.027 483.987 382.74C484.207 378.453 484.867 374.276 484.647 369.989C484.537 368.01 484.427 366.032 484.207 364.053C483.987 361.965 483.657 359.766 483.877 357.788C483.987 357.018 484.207 356.139 484.537 355.479C484.977 354.71 485.637 354.49 486.407 354.16C487.176 353.831 487.726 353.391 488.276 352.731C488.826 352.072 489.156 351.192 489.926 350.643C490.256 350.313 490.476 349.983 490.476 349.654C492.346 346.576 494.985 344.048 497.515 341.519C500.595 338.551 503.674 335.803 506.974 333.165C514.013 327.669 521.272 322.393 527.431 315.908C528.861 314.369 530.401 312.83 531.941 311.511C533.591 310.192 535.24 309.092 536.67 307.554C537.88 306.125 538.87 304.696 539.86 303.157C541.07 301.508 542.499 299.969 544.039 298.65C547.229 295.902 550.748 293.484 553.938 290.626C557.238 287.658 560.317 284.36 563.287 281.172C564.937 279.304 566.586 277.435 568.346 275.676C570.106 273.917 571.976 272.379 573.735 270.73C575.275 269.301 576.705 267.542 578.355 266.223C579.015 265.673 579.675 265.563 580.445 265.563C580.555 265.783 580.664 266.003 580.994 266.113C589.243 272.049 596.612 278.864 603.872 286.009C607.281 289.416 610.801 292.714 614.1 296.122C615.75 297.88 617.51 299.639 618.94 301.618C619.6 302.387 620.149 303.267 620.699 304.146C621.139 305.025 621.469 306.015 622.129 306.784C622.679 307.554 623.449 308.103 624.329 308.433C625.429 308.873 626.639 308.873 627.738 309.532C629.498 310.631 630.928 312.39 632.248 314.039C634.888 317.446 637.197 320.964 640.277 323.932C643.466 327.01 646.986 329.868 650.506 332.616C654.025 335.364 657.325 338.332 660.624 341.299C666.893 347.125 675.252 352.402 677.672 361.085C677.672 361.195 677.782 361.305 677.782 361.305C677.782 361.525 677.892 361.745 677.892 361.965C678.662 363.614 678.662 365.592 678.552 367.461C678.442 369.439 678.222 371.418 678.222 373.507C678.112 378.673 677.782 383.839 677.232 389.006C677.012 391.534 676.792 394.172 676.902 396.7C677.012 399.338 677.342 401.976 677.452 404.724C677.672 410.11 676.902 415.497 676.792 420.773C676.462 431.655 676.792 442.647 676.902 453.53C677.012 464.302 676.352 475.074 676.462 485.956C676.572 491.782 677.012 497.498 676.902 503.324C676.792 509.15 676.462 514.976 675.582 520.802C675.472 521.351 675.692 521.901 676.022 522.231C674.483 531.574 675.472 538.137 675.582 547.59C675.582 552.757 675.912 557.813 676.242 562.87C676.352 565.288 676.572 567.706 676.792 570.124C676.902 571.114 676.902 572.213 676.792 573.202C676.572 574.411 676.022 575.401 675.582 576.5C675.472 576.72 675.472 576.94 675.472 577.049C671.843 582.765 664.694 585.184 660.514 590.46C659.194 592.109 658.095 593.758 656.775 595.516C655.455 597.385 653.805 599.034 652.265 600.573C648.966 603.76 645.446 605.728 642.147 608.806C635.108 615.511 628.178 622.326 620.919 628.702C613.66 635.077 605.961 639.903 598.922 646.389C595.403 649.576 591.993 652.984 588.473 656.282C586.274 658.48 583.744 660.788 582.204 663.536ZM739.814 617.313C737.065 619.511 734.535 621.82 732.005 624.238C726.726 629.294 721.556 634.461 716.277 639.517C705.389 649.63 694.39 659.633 683.501 669.855C678.002 674.912 672.613 684.078 667.223 689.354C661.944 694.411 656.885 699.687 651.605 704.853C641.377 714.856 630.378 723.98 620.479 734.422C617.73 739.39 614.76 742.138 611.791 744.886C608.821 747.634 605.961 750.492 602.882 753.24C599.912 755.878 596.832 758.407 593.753 761.045C591.553 762.913 589.353 764.892 586.824 766.321C586.714 764.013 586.274 761.814 585.834 759.616C585.394 756.978 585.394 754.669 585.504 752.031C585.614 749.283 585.504 746.425 585.614 743.677C585.614 740.929 585.944 738.291 586.164 733.543C586.604 727.937 586.934 722.331 586.934 716.725C586.934 711.119 586.824 705.403 587.044 699.797C587.374 692.751 586.824 682.376 588.583 672.55C588.693 672.11 588.693 671.781 588.583 671.561C589.133 670.352 590.013 669.362 591.003 668.483C592.433 667.054 593.643 665.625 594.963 664.196C598.042 660.788 601.452 657.711 604.971 654.743C612.12 648.477 618.28 641.003 625.539 635.957C629.168 632.989 632.908 630.131 636.427 627.053C640.167 623.865 643.796 620.458 647.426 617.16C650.946 613.862 654.685 610.785 657.985 607.267C659.524 605.618 660.954 603.75 662.384 601.881C663.594 600.232 664.584 599.583 666.014 598.154C667.663 596.506 669.753 595.516 671.623 594.197C673.603 592.878 675.362 591.339 677.232 589.8C678.882 588.481 680.422 587.162 682.072 585.843C683.281 584.854 684.931 583.205 686.581 583.315C686.911 583.315 687.241 583.205 687.461 583.095C695.05 587.052 703.079 592.91 710.998 596.318C715.397 598.187 719.797 600.385 724.086 602.473C726.176 603.463 728.266 604.342 730.465 605.002C731.565 605.331 732.775 605.661 733.875 605.991C734.095 606.101 734.205 606.211 734.425 606.321C734.755 606.541 735.195 606.541 735.525 606.431C736.075 606.541 736.515 606.76 736.954 606.87C738.604 607.42 740.254 608.189 741.794 608.959C743.114 609.728 744.983 610.718 745.533 612.257C743.774 614.125 741.794 615.774 739.814 617.313ZM756.422 539.928C756.312 544.325 756.312 548.612 756.312 553.009C756.312 557.296 755.762 561.363 755.322 565.54C755.102 567.408 754.992 569.277 754.992 571.146C755.102 573.344 755.432 575.433 755.762 577.521C756.312 582.358 755.432 587.194 755.102 591.921C755.102 592.91 754.992 594.229 754.332 594.999C753.562 595.878 752.353 596.428 751.363 596.977C751.143 596.977 751.033 596.977 750.813 597.087C747.733 598.296 744.214 595.988 741.354 594.999C737.064 593.68 732.665 592.91 728.376 591.701C719.577 589.393 711.108 585.985 702.529 583.237C700.109 582.468 697.69 578.918 695.27 578.039C692.96 577.269 690.87 576.06 688.451 575.401C688.341 573.202 688.011 571.114 687.791 568.915C687.461 566.387 687.351 563.749 687.351 561.111C687.351 556.054 687.461 550.998 687.461 545.942C687.461 540.995 687.461 537.939 687.131 532.992C686.911 528.595 685.701 525.089 686.801 520.802C686.911 520.252 686.801 519.812 686.581 519.483C686.691 518.493 686.691 517.504 686.691 516.625C686.691 514.426 686.801 512.338 687.131 510.139C687.791 504.973 688.231 499.917 688.121 494.64C688.011 489.584 687.681 484.418 687.571 479.361C687.571 474.085 687.681 468.919 687.791 463.642C687.901 453.31 687.571 442.867 687.131 432.535C686.691 422.202 686.251 411.869 686.691 401.537C686.911 396.37 687.461 391.204 688.231 386.038C688.891 381.641 689.441 377.244 688.671 372.847C688.891 372.407 688.891 371.968 688.671 371.418C688.231 370.539 688.231 369.439 688.341 368.45C688.341 367.131 688.561 365.812 688.671 364.493C688.891 361.965 688.011 358.887 689.661 356.689C691.42 354.49 694.17 352.951 696.37 351.412C699.339 349.214 702.419 346.906 705.389 344.707C716.607 336.243 727.936 327.669 737.394 317.227C738.714 315.798 739.924 314.369 741.244 312.83C742.124 311.84 743.004 310.851 744.104 310.082C745.533 309.202 747.293 308.873 748.833 308.213C750.263 307.663 751.583 306.894 752.792 306.125C753.452 306.344 754.112 306.564 754.772 306.564C755.102 306.894 755.432 307.224 755.762 307.554C755.982 308.983 755.872 310.631 755.982 311.621C756.092 316.567 756.092 321.404 755.872 326.35C755.212 338.881 755.542 351.302 755.762 363.833C755.872 369.989 755.872 376.145 755.652 382.3C755.432 388.566 755.212 394.721 755.322 400.987C755.432 407.253 755.542 413.408 755.322 419.674C755.102 425.939 754.662 432.095 754.662 438.36C754.662 445.285 754.222 452.101 754.112 459.026C754.112 462.433 754.442 465.841 754.552 469.358C754.662 472.986 754.662 476.613 754.552 480.241C754.552 480.79 754.772 481.23 755.212 481.45C753.892 488.375 754.772 495.63 755.212 502.555C755.432 506.622 755.432 510.799 755.432 514.866C755.432 518.933 755.762 522.89 756.202 526.957C756.642 531.464 756.532 535.751 756.422 539.928Z" fill="#312E21" fill-opacity="0.8"/>
</g>
<g style="mix-blend-mode:screen" opacity="0.6" clip-path="url(#clip2_174_17615)">
<path d="M366.753 1214.63C373.132 1208.8 379.401 1202.98 385.78 1197.15C392.05 1191.43 398.319 1186.83 404.588 1181.33C410.857 1175.84 417.236 1170.56 423.176 1164.84C426.475 1161.66 429.445 1158.14 432.634 1154.95C433.954 1153.63 435.384 1152.31 436.374 1150.66C436.814 1150.22 437.364 1149.78 437.694 1149.23C438.904 1147.7 439.454 1145.94 439.344 1143.96C439.234 1142.86 439.234 1141.76 439.124 1140.55C439.344 1137.03 439.014 1133.63 438.684 1130.11C437.804 1119.12 437.914 1111.01 437.584 1100.02C437.364 1094.42 437.364 1088.81 437.804 1083.2C438.134 1077.6 438.684 1071.99 438.904 1066.39C439.124 1060.67 438.794 1054.84 438.684 1049.13C438.574 1043.52 438.464 1037.81 438.464 1032.09C438.574 1025.71 438.904 1019.23 439.014 1012.85C439.014 1007.36 439.014 1001.86 439.014 996.365C439.783 994.607 439.783 992.188 439.893 990.43C440.003 988.121 440.003 985.703 439.893 983.395C439.783 980.647 439.454 977.898 439.344 975.04C439.234 972.292 439.344 969.654 439.344 966.906C439.344 961.63 438.574 956.354 438.684 950.968C438.794 947.23 439.014 943.603 436.704 940.635C436.044 938.107 433.734 936.128 431.865 934.479C428.785 931.621 425.595 928.983 422.516 926.125C416.466 920.409 410.637 914.584 404.808 908.758C398.979 902.932 393.039 897.106 386.88 891.5C380.611 885.784 374.342 880.178 368.183 874.242C366.863 872.923 365.433 871.604 364.223 870.175C363.233 869.076 362.353 867.867 361.254 866.768C359.164 864.679 356.304 862.701 353.225 863.91C353.115 864.02 352.895 864.02 352.785 864.13C352.345 863.91 351.795 864.02 351.245 864.459C349.045 866.438 346.295 867.757 344.096 869.955C341.566 872.374 338.926 874.792 336.287 877.21C330.897 882.157 325.508 887.213 320.119 892.269C315.059 896.886 310.11 901.613 305.051 906.12C299.881 910.736 294.492 914.693 288.883 918.761C282.724 923.157 276.784 927.884 271.395 933.27C271.175 933.49 271.065 933.71 270.955 933.93C267.216 936.898 268.755 941.954 268.315 946.351C267.655 953.496 268.755 960.531 268.755 967.676C268.755 975.04 267.985 982.405 268.315 989.66C268.535 993.397 268.865 997.135 268.865 1000.87C268.975 1004.61 268.645 1008.35 268.535 1012.19C268.315 1019.56 268.535 1026.81 268.535 1034.18C268.535 1041.43 267.765 1048.69 267.875 1055.94C268.095 1063.53 268.425 1071.11 268.205 1078.81C268.095 1082.32 267.655 1085.84 267.326 1089.36C266.996 1092.99 267.326 1096.61 267.326 1100.35C267.546 1108.6 266.446 1113.73 266.116 1121.97C265.786 1129.23 268.205 1136.37 267.765 1143.52C267.326 1143.85 267.216 1144.4 267.436 1144.95C267.546 1145.06 267.545 1145.28 267.655 1145.39V1145.5C267.545 1146.16 267.875 1146.6 268.315 1146.82C269.635 1149.23 271.395 1151.21 273.485 1153.19C276.344 1155.94 278.984 1159.02 281.844 1161.77C287.673 1167.48 293.832 1172.76 299.991 1178.14C306.261 1183.64 312.31 1188.47 318.359 1194.29C321.329 1197.15 324.298 1200.01 327.048 1202.98C330.018 1206.05 332.767 1209.35 335.627 1212.43C338.706 1215.73 342.226 1217.69 345.416 1220.88C347.615 1222.97 350.255 1225.61 353.445 1224.4C353.664 1224.4 353.884 1224.4 354.214 1224.29C355.864 1223.96 357.074 1222.86 358.174 1221.65C360.924 1219.01 363.783 1217.27 366.753 1214.63ZM353.555 1211.22C353.005 1211.22 352.565 1211.33 352.345 1211.77C350.365 1211.33 348.605 1210.01 347.175 1208.91C345.086 1207.26 342.996 1205.5 340.796 1203.96C334.967 1200.01 329.468 1195.5 324.628 1190.44C319.459 1184.95 314.51 1180.23 309.23 1174.85C304.281 1169.79 298.782 1165.28 293.612 1160.45C290.753 1157.7 288.113 1154.73 285.363 1151.76C282.724 1148.79 279.974 1145.94 277.554 1142.75C277.994 1140.55 277.884 1138.13 277.664 1135.93C277.444 1132.86 277.444 1129.89 277.334 1126.81C277.114 1120 277.774 1116.29 277.334 1109.47C277.114 1106.18 276.784 1102.88 276.674 1099.47C276.564 1096.06 276.564 1092.66 276.674 1089.25C276.784 1082.54 277.004 1075.73 276.784 1068.91C276.564 1062.1 276.344 1055.28 276.454 1048.36C276.564 1041.54 276.784 1034.84 276.894 1028.02C277.114 1014.28 276.894 1000.54 276.674 986.802C276.564 979.327 276.234 971.853 277.004 964.378C277.884 957.013 279.204 949.759 279.314 942.394C279.314 942.284 279.314 942.174 279.314 942.064C280.524 939.756 282.724 937.887 284.483 936.238C287.233 933.6 289.653 930.742 292.402 928.214C298.452 922.498 304.831 917.222 310.88 911.616C316.709 906.12 322.099 899.964 328.478 895.018C333.427 891.17 338.486 887.653 342.776 883.036C344.646 881.057 346.625 878.969 348.715 877.32C350.145 876.221 352.345 874.462 354.324 875.342C354.874 875.561 355.314 875.451 355.644 875.122C357.844 876.111 359.384 878.199 361.034 879.848C363.343 882.047 365.763 884.025 368.073 886.114C370.492 888.312 373.022 890.621 375.662 892.709C378.081 894.688 380.611 896.556 383.141 898.425C385.67 900.404 388.09 902.382 390.18 904.691C392.27 906.889 394.249 909.417 396.229 911.726C400.519 916.672 405.578 920.959 409.867 925.796C412.177 928.324 414.267 930.852 417.016 932.94C419.106 934.479 421.196 936.018 423.176 937.667C424.935 939.316 426.695 940.965 428.345 942.833C430.875 945.691 430.655 949.319 430.545 952.946C430.435 957.343 430.655 961.74 430.765 966.137C430.875 970.863 430.985 975.7 430.875 980.427C430.765 982.955 430.655 985.593 430.655 988.121C430.655 988.451 430.655 988.891 430.655 989.33C430.105 989.66 429.775 990.21 429.995 990.979C431.205 995.486 430.655 1000.32 430.655 1005.05C430.545 1010.22 430.875 1015.38 430.765 1020.55C430.655 1026.04 430.435 1031.54 430.435 1037.04C430.545 1042.64 430.765 1048.25 430.765 1053.85C430.765 1059.35 430.435 1064.85 430.435 1070.34C430.325 1075.95 430.545 1081.44 430.655 1087.05C430.765 1092.55 430.985 1098.04 430.765 1103.54C430.655 1109.14 430.105 1111.75 430.105 1117.36C430.105 1123.4 430.325 1129.23 429.775 1135.27C429.555 1138.24 429.445 1141.21 429.005 1144.07C428.675 1145.94 427.905 1147.48 426.915 1149.01C421.746 1153.08 417.016 1157.59 412.287 1162.21C407.448 1166.93 402.388 1171.55 397.329 1176.17C392.49 1180.56 387.54 1183.74 382.591 1188.03C377.641 1192.42 373.242 1197.37 368.403 1201.88C365.873 1204.18 363.343 1206.49 360.594 1208.47C358.724 1209.35 356.084 1211.44 353.555 1211.22ZM547.57 857.204C546.36 855.336 544.49 853.907 542.73 852.588C540.311 850.829 538.001 849.18 535.801 847.202C533.602 845.223 531.402 843.244 528.872 841.705C526.342 840.167 524.583 837.968 522.383 836.099C520.403 834.451 518.093 833.242 516.224 831.483C514.024 829.504 512.374 827.086 510.065 825.107C507.645 823.019 505.005 821.26 502.585 819.172C502.255 818.842 501.926 818.622 501.596 818.292C501.046 817.743 500.496 817.193 499.946 816.753C499.946 816.314 499.726 815.874 499.396 815.434C497.636 813.236 495.216 810.817 492.467 809.389C490.707 807.63 488.947 805.871 487.077 804.222C486.857 804.002 486.637 803.892 486.308 803.892C482.458 799.935 478.059 796.638 474.319 792.68C470.25 788.393 466.29 783.997 461.891 780.039C457.381 775.972 452.432 772.345 447.812 768.278C443.083 764.211 438.354 760.034 433.734 755.857C424.605 747.503 415.807 738.929 407.008 730.245C398.539 722.001 390.95 712.877 382.261 704.853C377.311 700.346 371.922 696.169 367.083 691.552C364.993 689.574 363.123 687.705 361.473 685.507C360.484 684.188 359.274 682.869 357.844 682.099C357.734 681.879 357.514 681.769 357.294 681.55C353.555 679.131 349.595 682.759 347.065 685.287C345.746 686.606 344.646 688.145 343.436 689.574C341.896 691.443 340.136 693.201 338.376 694.85C333.647 699.247 328.478 703.314 323.968 707.931C319.789 712.108 316.049 716.615 312.09 720.902C299.991 733.652 287.563 745.964 274.475 757.725C272.825 758.715 271.285 759.814 269.745 761.023C262.706 764.431 256.547 769.927 250.828 775.203C247.638 778.171 244.778 781.468 241.699 784.546C240.489 785.755 239.279 787.074 237.959 788.284C234.22 791.251 230.48 794.219 226.961 797.297C214.202 808.289 202.434 820.491 189.785 831.593C185.386 835.44 180.987 839.507 176.917 843.794C174.827 845.443 172.958 847.311 171.088 849.29C168.338 852.148 165.369 854.896 163.389 858.414C161.519 861.601 160.639 865.229 160.309 868.966C159.979 873.583 160.639 878.309 160.529 882.926C160.419 887.763 159.869 892.489 159.759 897.216C159.649 902.162 159.759 907.109 159.869 912.055C159.979 921.838 159.979 931.621 160.419 941.404C160.639 946.791 160.859 952.067 160.859 957.453C160.859 959.981 161.079 962.619 161.079 965.148C161.079 967.346 161.079 969.654 161.629 971.853C161.629 971.853 161.629 971.963 161.739 971.963C161.629 972.183 161.519 972.402 161.519 972.732C161.409 974.711 161.519 976.799 161.629 978.778C161.629 979.657 161.629 980.427 161.739 981.306C161.959 985.703 162.289 990.1 162.179 994.497C162.069 1001.86 161.189 1009.12 161.189 1016.48C161.189 1023.74 162.179 1030.99 162.069 1038.36C161.959 1041.87 161.629 1045.39 161.629 1048.91C161.629 1052.65 161.739 1056.38 161.959 1060.12C162.619 1074.85 162.289 1089.58 161.409 1104.31C160.969 1111.67 160.309 1119.15 159.979 1126.51C159.649 1133.88 159.979 1141.24 159.319 1148.61C158.989 1152.67 158.439 1156.63 158.439 1160.7C158.439 1164.88 158.989 1168.94 159.319 1173.12C159.649 1176.75 159.979 1180.48 159.539 1184.11C159.209 1186.97 158.659 1190.05 159.869 1192.8C159.979 1193.13 160.309 1193.35 160.529 1193.45C170.648 1207.2 185.826 1215.44 198.804 1226.1C206.173 1232.26 212.663 1239.4 219.482 1246C221.241 1247.65 222.891 1249.19 224.871 1250.61C226.741 1251.93 228.72 1253.25 230.37 1254.79C232.13 1256.44 233.78 1258.2 235.43 1259.85C237.079 1261.5 238.949 1262.93 240.489 1264.68C241.919 1266.33 243.239 1268.2 244.668 1269.96C246.098 1271.72 247.748 1273.37 249.508 1275.02C250.828 1276.23 252.147 1277.33 253.577 1278.42C256.437 1281.17 259.407 1283.81 262.266 1286.56C268.865 1292.71 275.464 1302.76 282.284 1308.48C283.493 1309.47 284.593 1310.45 285.803 1311.33C292.072 1317.27 298.232 1325.32 304.501 1331.25C306.81 1333.45 309.23 1335.65 311.65 1337.85C314.07 1341.47 317.809 1344.11 320.999 1346.97C323.638 1349.28 325.948 1353.92 328.698 1356C332.767 1360.07 336.947 1364.03 340.906 1368.1C342.776 1370.07 344.756 1372.05 346.955 1373.7C348.605 1375.02 350.695 1376.67 352.895 1376.56C353.774 1376.56 354.654 1376.23 355.314 1375.57C355.754 1375.79 356.194 1375.79 356.634 1375.57C360.264 1373.81 362.683 1370.4 365.213 1367.44C368.293 1363.7 371.922 1360.62 375.332 1357.32C379.071 1353.59 382.481 1347.63 386.33 1344C389.96 1340.48 394.029 1337.63 397.549 1334.11C405.248 1326.85 412.947 1319.6 421.086 1310.78C429.225 1303.97 436.814 1296.71 444.623 1289.57C452.542 1282.53 460.021 1270.95 467.5 1263.48C474.869 1256.11 482.568 1249.08 490.377 1242.04C494.227 1238.63 497.966 1235.01 501.926 1231.71C505.775 1228.41 509.845 1225.22 513.804 1222.03C517.764 1218.85 521.723 1215.66 525.573 1212.25C529.312 1208.95 532.612 1205.22 536.571 1202.14C539.651 1199.72 543.94 1198.4 546.03 1194.77C547.9 1191.48 548.12 1187.41 548.23 1183.78C548.34 1179.49 548.34 1175.1 548.23 1170.81C548.12 1168.61 548.01 1166.3 548.01 1164.11C548.01 1162.46 548.23 1160.7 548.12 1159.05C548.12 1158.17 548.01 1157.18 547.79 1156.3C548.23 1154.65 547.9 1152.89 547.57 1151.14C547.13 1148.61 547.13 1146.41 547.24 1143.88C547.68 1137.94 546.91 1132.12 546.58 1126.18C546.47 1123.21 546.36 1120.36 546.58 1117.39C546.8 1114.75 547.46 1112.22 547.79 1109.58C548.12 1106.95 547.79 1104.31 546.47 1101.89C545.92 1100.9 545.15 1100.02 544.93 1098.81C544.6 1097.27 545.15 1095.73 545.59 1094.42C546.47 1091.67 547.02 1089.03 547.02 1086.17C546.91 1083.2 546.47 1080.35 546.36 1077.49C546.03 1071 545.48 1064.63 545.15 1058.14C544.6 1045.39 546.03 1032.75 545.92 1020C545.81 1012.96 545.81 1006.04 546.14 999.003C546.25 995.596 546.47 992.188 546.47 988.781C546.36 985.373 546.25 981.856 546.69 978.448C546.69 978.118 546.69 977.898 546.58 977.569C547.13 976.03 547.02 974.381 547.02 972.842C546.91 970.424 546.58 968.115 546.58 965.697C546.47 961.74 546.91 957.783 547.02 953.826C547.13 949.649 547.13 945.581 547.13 941.404C547.13 932.94 547.02 924.367 547.46 915.903C547.68 911.616 548.23 907.329 548.45 903.042C548.67 899.085 548.56 895.237 548.23 891.28C548.01 889.082 547.79 886.773 547.79 884.575C547.79 882.376 548.01 880.178 548.23 877.98C548.56 873.583 548.01 869.186 549.109 864.899C549.439 864.679 549.549 864.459 549.659 864.02C549.329 861.821 548.89 859.293 547.57 857.204ZM357.294 817.083C357.624 813.566 357.734 810.048 358.064 806.64C358.614 801.144 359.384 795.648 359.384 790.152C359.384 787.404 360.154 784.766 360.484 782.128C360.814 779.6 360.374 777.181 360.044 774.763C358.394 763.661 356.854 752.009 358.834 740.797C359.824 735.521 360.704 730.245 362.133 725.079C362.573 723.32 362.793 721.561 363.123 719.692C363.233 719.253 363.233 718.483 363.563 718.373C364.223 718.263 365.433 719.473 365.873 719.802C370.382 723.43 374.342 727.607 378.851 731.234C383.031 734.642 387.21 738.489 390.18 743.106C390.51 743.655 391.06 743.875 391.61 743.765C392.929 744.864 394.359 746.074 395.789 747.173C397.659 748.602 399.639 749.921 401.508 751.46C403.268 752.999 404.918 754.757 406.348 756.626C407.778 758.385 408.987 760.144 410.857 761.573C412.397 762.782 414.157 763.881 415.807 764.87C417.786 766.079 419.656 767.508 421.416 769.157C424.935 772.455 427.905 776.302 431.095 779.929C434.174 783.447 437.474 786.745 441.323 789.273C443.303 790.482 445.503 791.471 447.373 792.9C449.132 794.219 450.672 795.758 452.212 797.297C455.621 800.925 459.031 804.552 462.771 807.85C464.64 809.498 466.51 811.037 468.49 812.466C470.58 813.895 472.559 815.324 474.209 817.193C475.969 819.062 477.839 820.381 480.148 821.59C481.248 822.139 482.348 822.689 483.228 823.568C484.328 824.558 485.208 825.657 486.198 826.756C488.177 828.845 489.937 831.043 491.917 833.132C493.787 835.22 495.766 837.199 497.196 839.617C497.416 839.947 497.636 840.167 497.966 840.276C501.156 844.893 505.885 847.751 510.174 851.269C512.704 853.357 514.904 855.666 516.554 858.523C517.324 859.843 518.093 861.272 518.753 862.701C519.193 863.58 519.523 864.569 519.963 865.558C519.853 865.888 519.743 866.218 519.853 866.548C520.513 868.746 517.983 870.505 516.664 871.934C514.574 874.242 512.484 876.551 510.284 878.639C508.085 880.728 505.665 882.706 503.355 884.685C501.046 886.773 498.736 888.862 496.536 891.06C487.297 899.854 477.949 908.538 468.16 916.782C465.85 918.761 463.65 920.739 461.451 923.048C459.801 924.806 458.151 926.345 456.281 927.664C454.632 925.686 452.212 924.257 450.452 922.608C447.153 919.64 444.183 916.232 440.993 913.155C434.174 906.779 427.685 900.074 421.196 893.479C414.597 886.773 407.998 880.068 400.958 873.913C397.659 870.945 394.029 868.307 390.73 865.339C387.21 862.151 384.021 858.633 380.611 855.336C373.682 848.521 366.643 841.596 358.944 835.55C358.614 834.89 358.174 834.231 357.734 833.571C357.074 832.472 357.184 831.153 357.184 829.944C357.294 826.976 356.964 823.898 356.854 820.93C357.294 819.391 357.294 818.182 357.294 817.083ZM188.026 856.105C189.785 854.127 191.875 852.368 193.965 850.719C199.134 846.542 203.534 841.705 208.153 836.979C213.212 831.922 218.272 826.646 223.551 821.7C224.541 820.82 225.421 819.941 226.411 819.062C226.851 818.622 227.291 818.292 227.731 817.852C231.91 814.115 236.09 810.488 240.379 806.97C243.239 804.442 246.208 802.024 249.068 799.496C251.488 797.407 254.017 795.428 256.437 793.45C258.747 791.581 260.946 789.493 262.706 786.964C264.246 784.656 264.246 781.358 266.556 779.71C268.865 778.061 271.725 777.511 274.035 775.972C276.894 774.104 279.534 771.685 282.064 769.377C284.813 766.959 287.563 764.65 290.203 762.232C292.402 760.144 294.382 757.945 296.582 755.967C298.891 753.878 301.421 752.449 304.061 750.91C305.931 749.811 307.69 748.492 309.34 747.173C310.99 745.854 313.63 743.875 315.059 741.457C320.889 733.543 328.368 726.508 336.507 721.011C338.486 719.692 340.466 718.483 342.556 717.494C343.436 717.054 344.866 716.395 345.196 717.164C345.855 718.373 345.746 720.022 345.855 721.341C346.075 723.869 346.405 726.508 346.735 729.036C347.175 731.894 347.505 734.642 347.505 737.5C347.505 740.248 347.285 743.106 347.065 745.854C346.845 748.602 346.625 751.46 346.735 754.208C346.845 756.956 347.395 759.594 347.835 762.342C348.385 765.09 348.935 767.838 349.045 770.696C349.155 773.444 348.825 776.192 348.495 778.83C348.165 781.578 347.725 784.326 347.835 787.184C347.945 789.932 348.275 792.79 348.605 795.538C349.375 801.914 350.145 808.179 350.035 814.555C349.925 820.93 349.485 827.306 349.485 833.681C347.175 836.099 345.306 838.957 342.996 841.376C340.136 844.344 336.727 846.652 333.427 849.07C330.128 851.488 327.378 854.237 324.628 857.204C321.989 860.172 319.349 863.14 316.159 865.668C313.08 868.087 310.77 871.165 308.46 874.242C305.821 877.76 302.631 880.398 299.331 883.256C295.922 886.114 292.512 889.082 289.103 892.05C285.693 895.127 282.504 898.315 279.094 901.503C275.574 904.801 271.945 908.098 268.315 911.396C265.786 913.704 263.366 916.122 261.826 919.09C260.286 920.409 259.187 922.168 258.087 923.927C257.207 925.466 256.217 927.005 254.237 926.785C252.697 926.675 251.268 925.796 249.948 925.136C248.078 924.147 246.428 923.048 244.778 921.948C241.479 919.64 238.179 917.112 235.1 914.584C228.61 909.417 222.781 903.591 216.622 897.985C210.243 892.269 203.534 886.993 197.264 881.277C195.175 879.409 193.085 877.54 191.215 875.451C191.105 875.342 191.105 875.232 190.995 875.232C189.785 873.583 188.576 872.044 187.256 870.615C187.146 870.505 187.036 870.285 186.926 870.175C186.596 869.406 186.156 868.636 185.716 867.757C185.166 866.438 184.946 865.009 185.276 863.58C185.386 862.81 185.056 862.261 184.616 861.931C185.166 859.623 186.596 857.644 188.026 856.105ZM182.196 1175.65C181.536 1175.54 180.767 1175.43 180.217 1175.1C179.777 1174.88 179.667 1174.88 179.777 1174.55C180.217 1173.56 179.667 1172.68 178.897 1172.35C178.347 1170.15 178.457 1167.84 178.677 1165.53C178.897 1162.57 179.007 1159.71 178.897 1156.85C178.897 1153.44 178.897 1150.04 178.897 1146.52C178.787 1143.11 178.567 1139.59 178.237 1136.19C177.137 1122.45 176.257 1108.82 177.357 1095.08C178.457 1081.55 178.127 1067.92 178.127 1054.29C178.127 1040.55 178.347 1026.81 178.897 1013.07C179.007 1009.34 179.227 1005.49 179.227 1001.75C179.227 998.234 178.897 994.716 179.007 991.199C179.117 984.824 180.217 978.118 178.347 971.853C178.347 971.743 178.237 971.633 178.237 971.633C178.347 971.413 178.347 971.083 178.347 970.754C177.027 964.378 177.577 957.893 177.907 951.407C178.237 944.812 178.127 938.217 177.907 931.512C177.797 924.586 177.797 917.661 178.017 910.736C178.237 903.921 177.687 896.996 177.907 890.181C177.907 888.422 178.127 886.554 178.237 884.795C178.237 884.025 178.127 882.816 178.897 882.486C180.107 883.476 181.756 883.915 182.966 884.905C183.956 885.674 184.726 886.554 185.826 887.213C186.816 887.763 187.916 888.312 189.016 888.862C189.455 889.082 190.005 889.302 190.445 889.521C190.995 889.961 191.655 890.181 192.315 890.401C193.195 890.84 193.635 891.39 194.295 892.16C195.065 893.039 195.945 893.698 196.715 894.578C197.045 894.908 197.374 895.347 197.814 895.787C198.364 896.666 198.914 897.436 199.574 898.205C201.334 900.294 203.314 902.053 205.513 903.701C209.913 907.109 214.642 909.967 219.152 913.265C224.321 916.892 229.27 920.849 234.33 924.477C237.079 926.455 239.719 928.654 242.139 931.072C243.239 932.171 244.228 933.27 245.108 934.589C245.658 935.469 246.208 936.458 246.868 937.227C246.868 937.337 246.868 937.447 246.978 937.557C247.968 940.415 247.198 943.493 247.198 946.461C247.198 949.978 247.638 953.496 248.078 957.013C248.738 963.938 248.518 970.754 247.968 977.679C246.868 992.078 248.408 1006.48 248.628 1020.88C248.738 1028.02 248.408 1035.17 248.848 1042.31C249.288 1049.46 250.498 1056.49 250.718 1063.53C250.938 1070.67 250.608 1077.82 250.168 1084.96C249.618 1092.11 249.288 1099.25 249.178 1106.51C249.068 1114.53 248.848 1119.56 248.518 1127.69C248.408 1131.54 248.298 1135.49 248.078 1139.45C247.858 1143.3 247.198 1147.04 247.088 1150.77C246.648 1151.43 246.208 1152.09 245.768 1152.86C245.108 1153.96 244.118 1154.51 242.909 1155.06C240.599 1156.16 237.959 1157.93 235.54 1158.81C230.04 1160.57 224.321 1163.89 218.602 1165.21C212.992 1166.52 207.383 1168.06 201.994 1170.37C199.464 1171.47 197.155 1172.9 194.625 1174.22C191.985 1175.65 189.346 1175.87 186.376 1175.98C184.836 1175.98 183.516 1175.87 182.196 1175.65ZM350.145 1326.63C350.255 1333.01 349.375 1339.5 350.035 1345.87C349.595 1345.98 349.265 1346.31 349.045 1346.75C348.715 1346.53 348.385 1346.2 348.055 1345.87C347.175 1344.99 346.515 1344.11 345.745 1343.23C344.976 1342.46 344.206 1341.69 343.436 1340.92C341.676 1338.62 339.476 1337.08 337.167 1335.43C331.337 1329.93 326.278 1323.89 320.009 1318.94C317.149 1316.63 314.18 1313.09 310.77 1311.77C307.58 1310.56 304.831 1309.25 302.631 1306.5C298.452 1301.44 296.252 1294.74 290.863 1290.67C287.783 1288.36 284.263 1286.71 280.964 1284.84C279.534 1283.96 277.994 1283.08 276.674 1281.98C275.025 1280.78 273.595 1279.24 271.945 1278.03C269.195 1275.94 266.006 1270.4 263.586 1267.87C262.486 1266.66 261.606 1265.12 260.616 1263.8C259.407 1262.16 258.087 1260.62 256.767 1259.08C254.127 1256.11 251.158 1253.47 248.188 1250.83C245.218 1248.09 242.359 1245.23 239.279 1242.48C233.45 1237.09 226.961 1232.7 221.461 1226.98C215.522 1220.83 210.243 1214.12 204.194 1208.18C201.444 1205.55 198.474 1203.13 195.615 1200.71C193.305 1198.73 190.995 1196.53 189.236 1194.11C189.346 1194 189.455 1193.78 189.455 1193.45C190.115 1190.05 193.965 1189.28 196.715 1188.07C201.334 1186.09 205.733 1183.78 210.463 1181.91C215.192 1180.04 220.142 1178.73 224.981 1177.08C229.16 1175.65 233.12 1172 237.079 1170.02C239.059 1169.03 241.039 1167.04 243.129 1166.38C244.888 1165.83 246.868 1165.17 248.628 1165.61C248.958 1165.72 249.288 1165.61 249.618 1165.5C251.708 1167.59 254.347 1169.13 256.547 1171.22C259.517 1174.08 262.706 1176.6 265.676 1179.46C271.835 1185.4 277.774 1191.55 284.043 1197.49C290.423 1203.54 296.912 1209.36 303.291 1215.41C309.45 1220.23 315.609 1225.28 321.769 1231.1C328.808 1237.81 335.957 1244.51 343.326 1250.78C343.656 1251.11 344.096 1251.22 344.426 1251.11C344.976 1254.96 346.955 1265.58 347.285 1269.43C347.615 1275.15 347.945 1282.86 349.045 1288.47C349.595 1291.44 350.255 1294.19 350.365 1297.26C350.475 1300.23 350.255 1303.2 350.145 1306.17C349.705 1312.32 350.035 1320.48 350.145 1326.63ZM355.204 1242.54C354.764 1241.88 354.104 1241.55 353.225 1242.1C352.895 1242.32 353.005 1242.32 352.785 1242.32C352.345 1242.32 352.345 1242.32 351.795 1242.21C350.805 1241.88 349.815 1241.33 348.935 1240.78C346.405 1239.13 344.206 1237.04 342.006 1235.06C337.607 1230.88 333.647 1226.27 329.248 1222.2C325.288 1218.57 321.219 1216.06 317.259 1212.43C313.3 1208.8 309.67 1205.95 306.041 1202C302.411 1198.04 298.781 1194.19 294.932 1190.45C290.863 1186.61 286.463 1182.98 282.174 1179.35C277.334 1175.07 272.495 1170.78 267.765 1166.38C265.456 1164.29 263.036 1162.31 260.946 1160.01C259.297 1158.14 257.757 1156.05 255.887 1154.29C256.547 1151.65 256.217 1148.79 255.887 1146.16C255.557 1142.86 255.447 1139.78 255.777 1136.48C256.547 1128.79 257.977 1121.2 258.087 1113.51C258.197 1109.55 257.757 1108.71 257.867 1104.75C257.867 1100.79 258.197 1096.83 258.307 1092.88C258.637 1084.96 258.417 1077.05 258.087 1069.02C257.757 1060.89 257.537 1052.87 257.647 1044.73C257.757 1036.82 257.977 1028.9 258.087 1020.99C258.197 1005.49 256.657 990.1 256.657 974.711C256.657 970.424 256.767 966.027 256.987 961.74C257.207 957.453 257.867 953.276 257.647 948.989C257.537 947.01 257.427 945.032 257.207 943.053C256.987 940.965 256.657 938.766 256.877 936.788C256.987 936.018 257.207 935.139 257.537 934.479C257.977 933.71 258.637 933.49 259.407 933.16C260.176 932.831 260.726 932.391 261.276 931.731C261.826 931.072 262.156 930.192 262.926 929.643C263.256 929.313 263.476 928.983 263.476 928.654C265.346 925.576 267.985 923.048 270.515 920.519C273.595 917.551 276.674 914.803 279.974 912.165C287.013 906.669 294.272 901.393 300.431 894.908C301.861 893.369 303.401 891.83 304.941 890.511C306.591 889.192 308.24 888.092 309.67 886.554C310.88 885.125 311.87 883.696 312.86 882.157C314.07 880.508 315.499 878.969 317.039 877.65C320.229 874.902 323.748 872.484 326.938 869.626C330.238 866.658 333.317 863.36 336.287 860.172C337.937 858.304 339.586 856.435 341.346 854.676C343.106 852.917 344.976 851.379 346.735 849.73C348.275 848.301 349.705 846.542 351.355 845.223C352.015 844.673 352.675 844.563 353.445 844.563C353.555 844.783 353.664 845.003 353.994 845.113C362.243 851.049 369.612 857.864 376.872 865.009C380.281 868.416 383.801 871.714 387.1 875.122C388.75 876.88 390.51 878.639 391.94 880.618C392.6 881.387 393.149 882.267 393.699 883.146C394.139 884.025 394.469 885.015 395.129 885.784C395.679 886.554 396.449 887.103 397.329 887.433C398.429 887.873 399.639 887.873 400.738 888.532C402.498 889.631 403.928 891.39 405.248 893.039C407.888 896.446 410.197 899.964 413.277 902.932C416.466 906.01 419.986 908.868 423.506 911.616C427.025 914.364 430.325 917.332 433.624 920.299C439.893 926.125 448.252 931.402 450.672 940.085C450.672 940.195 450.782 940.305 450.782 940.305C450.782 940.525 450.892 940.745 450.892 940.965C451.662 942.614 451.662 944.592 451.552 946.461C451.442 948.439 451.222 950.418 451.222 952.507C451.112 957.673 450.782 962.839 450.232 968.006C450.012 970.534 449.792 973.172 449.902 975.7C450.012 978.338 450.342 980.976 450.452 983.724C450.672 989.11 449.902 994.497 449.792 999.773C449.462 1010.66 449.792 1021.65 449.902 1032.53C450.012 1043.3 449.352 1054.07 449.462 1064.96C449.572 1070.78 450.012 1076.5 449.902 1082.32C449.792 1088.15 449.462 1093.98 448.582 1099.8C448.472 1100.35 448.692 1100.9 449.022 1101.23C447.483 1110.57 448.472 1117.14 448.582 1126.59C448.582 1131.76 448.912 1136.81 449.242 1141.87C449.352 1144.29 449.572 1146.71 449.792 1149.12C449.902 1150.11 449.902 1151.21 449.792 1152.2C449.572 1153.41 449.022 1154.4 448.582 1155.5C448.472 1155.72 448.472 1155.94 448.472 1156.05C444.843 1161.77 437.694 1164.18 433.514 1169.46C432.194 1171.11 431.095 1172.76 429.775 1174.52C428.455 1176.38 426.805 1178.03 425.265 1179.57C421.966 1182.76 418.446 1184.73 415.147 1187.81C408.108 1194.51 401.178 1201.33 393.919 1207.7C386.66 1214.08 378.961 1218.9 371.922 1225.39C368.403 1228.58 364.993 1231.98 361.473 1235.28C359.274 1237.48 356.744 1239.79 355.204 1242.54ZM512.814 1196.31C510.065 1198.51 507.535 1200.82 505.005 1203.24C499.726 1208.29 494.556 1213.46 489.277 1218.52C478.389 1228.63 467.39 1238.63 456.501 1248.86C451.002 1253.91 445.613 1263.08 440.223 1268.35C434.944 1273.41 429.885 1278.69 424.605 1283.85C414.377 1293.86 403.378 1302.98 393.479 1313.42C390.73 1318.39 387.76 1321.14 384.791 1323.89C381.821 1326.63 378.961 1329.49 375.882 1332.24C372.912 1334.88 369.832 1337.41 366.753 1340.04C364.553 1341.91 362.353 1343.89 359.824 1345.32C359.714 1343.01 359.274 1340.81 358.834 1338.62C358.394 1335.98 358.394 1333.67 358.504 1331.03C358.614 1328.28 358.504 1325.43 358.614 1322.68C358.614 1319.93 358.944 1317.29 359.164 1312.54C359.604 1306.94 359.934 1301.33 359.934 1295.72C359.934 1290.12 359.824 1284.4 360.044 1278.8C360.374 1271.75 359.824 1261.38 361.583 1251.55C361.693 1251.11 361.693 1250.78 361.583 1250.56C362.133 1249.35 363.013 1248.36 364.003 1247.48C365.433 1246.05 366.643 1244.62 367.963 1243.2C371.042 1239.79 374.452 1236.71 377.971 1233.74C385.12 1227.48 391.28 1220 398.539 1214.96C402.168 1211.99 405.908 1209.13 409.427 1206.05C413.167 1202.87 416.796 1199.46 420.426 1196.16C423.946 1192.86 427.685 1189.78 430.985 1186.27C432.524 1184.62 433.954 1182.75 435.384 1180.88C436.594 1179.23 437.584 1178.58 439.014 1177.15C440.663 1175.51 442.753 1174.52 444.623 1173.2C446.603 1171.88 448.362 1170.34 450.232 1168.8C451.882 1167.48 453.422 1166.16 455.072 1164.84C456.281 1163.85 457.931 1162.21 459.581 1162.31C459.911 1162.31 460.241 1162.21 460.461 1162.1C468.05 1166.05 476.079 1171.91 483.998 1175.32C488.397 1177.19 492.797 1179.38 497.086 1181.47C499.176 1182.46 501.266 1183.34 503.465 1184C504.565 1184.33 505.775 1184.66 506.875 1184.99C507.095 1185.1 507.205 1185.21 507.425 1185.32C507.755 1185.54 508.195 1185.54 508.525 1185.43C509.075 1185.54 509.515 1185.76 509.954 1185.87C511.604 1186.42 513.254 1187.19 514.794 1187.96C516.114 1188.73 517.983 1189.72 518.533 1191.26C516.774 1193.13 514.794 1194.77 512.814 1196.31ZM529.422 1118.93C529.312 1123.32 529.312 1127.61 529.312 1132.01C529.312 1136.3 528.762 1140.36 528.322 1144.54C528.102 1146.41 527.992 1148.28 527.992 1150.15C528.102 1152.34 528.432 1154.43 528.762 1156.52C529.312 1161.36 528.432 1166.19 528.102 1170.92C528.102 1171.91 527.992 1173.23 527.332 1174C526.562 1174.88 525.353 1175.43 524.363 1175.98C524.143 1175.98 524.033 1175.98 523.813 1176.09C520.733 1177.3 517.214 1174.99 514.354 1174C510.064 1172.68 505.665 1171.91 501.376 1170.7C492.577 1168.39 484.108 1164.99 475.529 1162.24C473.109 1161.47 470.69 1157.92 468.27 1157.04C465.96 1156.27 463.87 1155.06 461.451 1154.4C461.341 1152.2 461.011 1150.11 460.791 1147.92C460.461 1145.39 460.351 1142.75 460.351 1140.11C460.351 1135.05 460.461 1130 460.461 1124.94C460.461 1120 460.461 1116.94 460.131 1111.99C459.911 1107.6 458.701 1104.09 459.801 1099.8C459.911 1099.25 459.801 1098.81 459.581 1098.48C459.691 1097.49 459.691 1096.5 459.691 1095.62C459.691 1093.43 459.801 1091.34 460.131 1089.14C460.791 1083.97 461.231 1078.92 461.121 1073.64C461.011 1068.58 460.681 1063.42 460.571 1058.36C460.571 1053.08 460.681 1047.92 460.791 1042.64C460.901 1032.31 460.571 1021.87 460.131 1011.53C459.691 1001.2 459.251 990.869 459.691 980.537C459.911 975.37 460.461 970.204 461.231 965.038C461.891 960.641 462.441 956.244 461.671 951.847C461.891 951.407 461.891 950.968 461.671 950.418C461.231 949.539 461.231 948.439 461.341 947.45C461.341 946.131 461.561 944.812 461.671 943.493C461.891 940.965 461.011 937.887 462.661 935.689C464.42 933.49 467.17 931.951 469.37 930.412C472.339 928.214 475.419 925.906 478.389 923.707C489.607 915.243 500.936 906.669 510.394 896.227C511.714 894.798 512.924 893.369 514.244 891.83C515.124 890.84 516.004 889.851 517.104 889.082C518.533 888.202 520.293 887.873 521.833 887.213C523.263 886.663 524.583 885.894 525.792 885.125C526.452 885.344 527.112 885.564 527.772 885.564C528.102 885.894 528.432 886.224 528.762 886.554C528.982 887.983 528.872 889.631 528.982 890.621C529.092 895.567 529.092 900.404 528.872 905.35C528.212 917.881 528.542 930.302 528.762 942.833C528.872 948.989 528.872 955.145 528.652 961.3C528.432 967.566 528.212 973.721 528.322 979.987C528.432 986.253 528.542 992.408 528.322 998.674C528.102 1004.94 527.662 1011.09 527.662 1017.36C527.662 1024.29 527.222 1031.1 527.112 1038.03C527.112 1041.43 527.442 1044.84 527.552 1048.36C527.662 1051.99 527.662 1055.61 527.552 1059.24C527.552 1059.79 527.772 1060.23 528.212 1060.45C526.892 1067.37 527.772 1074.63 528.212 1081.55C528.432 1085.62 528.432 1089.8 528.432 1093.87C528.432 1097.93 528.762 1101.89 529.202 1105.96C529.642 1110.46 529.532 1114.75 529.422 1118.93Z" fill="#312E21" fill-opacity="0.8"/>
</g>
<g style="mix-blend-mode:screen" opacity="0.6" clip-path="url(#clip3_174_17615)">
<path d="M819.753 1214.63C826.132 1208.8 832.401 1202.98 838.78 1197.15C845.05 1191.43 851.319 1186.83 857.588 1181.33C863.857 1175.84 870.236 1170.56 876.176 1164.84C879.475 1161.66 882.445 1158.14 885.634 1154.95C886.954 1153.63 888.384 1152.31 889.374 1150.66C889.814 1150.22 890.364 1149.78 890.694 1149.23C891.904 1147.7 892.454 1145.94 892.344 1143.96C892.234 1142.86 892.234 1141.76 892.124 1140.55C892.344 1137.03 892.014 1133.63 891.684 1130.11C890.804 1119.12 890.914 1111.01 890.584 1100.02C890.364 1094.42 890.364 1088.81 890.804 1083.2C891.134 1077.6 891.684 1071.99 891.904 1066.39C892.124 1060.67 891.794 1054.84 891.684 1049.13C891.574 1043.52 891.464 1037.81 891.464 1032.09C891.574 1025.71 891.904 1019.23 892.014 1012.85C892.014 1007.36 892.014 1001.86 892.014 996.365C892.783 994.607 892.783 992.188 892.893 990.43C893.003 988.121 893.003 985.703 892.893 983.395C892.783 980.647 892.454 977.898 892.344 975.04C892.234 972.292 892.344 969.654 892.344 966.906C892.344 961.63 891.574 956.354 891.684 950.968C891.794 947.23 892.014 943.603 889.704 940.635C889.044 938.107 886.734 936.128 884.865 934.479C881.785 931.621 878.595 928.983 875.516 926.125C869.466 920.409 863.637 914.584 857.808 908.758C851.979 902.932 846.039 897.106 839.88 891.5C833.611 885.784 827.342 880.178 821.183 874.242C819.863 872.923 818.433 871.604 817.223 870.175C816.233 869.076 815.353 867.867 814.254 866.768C812.164 864.679 809.304 862.701 806.225 863.91C806.115 864.02 805.895 864.02 805.785 864.13C805.345 863.91 804.795 864.02 804.245 864.459C802.045 866.438 799.295 867.757 797.096 869.955C794.566 872.374 791.926 874.792 789.287 877.21C783.897 882.157 778.508 887.213 773.119 892.269C768.059 896.886 763.11 901.613 758.051 906.12C752.881 910.736 747.492 914.693 741.883 918.761C735.724 923.157 729.784 927.884 724.395 933.27C724.175 933.49 724.065 933.71 723.955 933.93C720.216 936.898 721.755 941.954 721.315 946.351C720.655 953.496 721.755 960.531 721.755 967.676C721.755 975.04 720.985 982.405 721.315 989.66C721.535 993.397 721.865 997.135 721.865 1000.87C721.975 1004.61 721.645 1008.35 721.535 1012.19C721.315 1019.56 721.535 1026.81 721.535 1034.18C721.535 1041.43 720.765 1048.69 720.875 1055.94C721.095 1063.53 721.425 1071.11 721.205 1078.81C721.095 1082.32 720.655 1085.84 720.326 1089.36C719.996 1092.99 720.326 1096.61 720.326 1100.35C720.546 1108.6 719.446 1113.73 719.116 1121.97C718.786 1129.23 721.205 1136.37 720.765 1143.52C720.326 1143.85 720.216 1144.4 720.436 1144.95C720.546 1145.06 720.545 1145.28 720.655 1145.39V1145.5C720.545 1146.16 720.875 1146.6 721.315 1146.82C722.635 1149.23 724.395 1151.21 726.485 1153.19C729.344 1155.94 731.984 1159.02 734.844 1161.77C740.673 1167.48 746.832 1172.76 752.991 1178.14C759.261 1183.64 765.31 1188.47 771.359 1194.29C774.329 1197.15 777.298 1200.01 780.048 1202.98C783.018 1206.05 785.767 1209.35 788.627 1212.43C791.706 1215.73 795.226 1217.69 798.416 1220.88C800.615 1222.97 803.255 1225.61 806.445 1224.4C806.664 1224.4 806.884 1224.4 807.214 1224.29C808.864 1223.96 810.074 1222.86 811.174 1221.65C813.924 1219.01 816.783 1217.27 819.753 1214.63ZM806.555 1211.22C806.005 1211.22 805.565 1211.33 805.345 1211.77C803.365 1211.33 801.605 1210.01 800.175 1208.91C798.086 1207.26 795.996 1205.5 793.796 1203.96C787.967 1200.01 782.468 1195.5 777.628 1190.44C772.459 1184.95 767.51 1180.23 762.23 1174.85C757.281 1169.79 751.782 1165.28 746.612 1160.45C743.753 1157.7 741.113 1154.73 738.363 1151.76C735.724 1148.79 732.974 1145.94 730.554 1142.75C730.994 1140.55 730.884 1138.13 730.664 1135.93C730.444 1132.86 730.444 1129.89 730.334 1126.81C730.114 1120 730.774 1116.29 730.334 1109.47C730.114 1106.18 729.784 1102.88 729.674 1099.47C729.564 1096.06 729.564 1092.66 729.674 1089.25C729.784 1082.54 730.004 1075.73 729.784 1068.91C729.564 1062.1 729.344 1055.28 729.454 1048.36C729.564 1041.54 729.784 1034.84 729.894 1028.02C730.114 1014.28 729.894 1000.54 729.674 986.802C729.564 979.327 729.234 971.853 730.004 964.378C730.884 957.013 732.204 949.759 732.314 942.394C732.314 942.284 732.314 942.174 732.314 942.064C733.524 939.756 735.724 937.887 737.483 936.238C740.233 933.6 742.653 930.742 745.402 928.214C751.452 922.498 757.831 917.222 763.88 911.616C769.709 906.12 775.099 899.964 781.478 895.018C786.427 891.17 791.486 887.653 795.776 883.036C797.646 881.057 799.625 878.969 801.715 877.32C803.145 876.221 805.345 874.462 807.324 875.342C807.874 875.561 808.314 875.451 808.644 875.122C810.844 876.111 812.384 878.199 814.034 879.848C816.343 882.047 818.763 884.025 821.073 886.114C823.492 888.312 826.022 890.621 828.662 892.709C831.081 894.688 833.611 896.556 836.141 898.425C838.67 900.404 841.09 902.382 843.18 904.691C845.27 906.889 847.249 909.417 849.229 911.726C853.519 916.672 858.578 920.959 862.867 925.796C865.177 928.324 867.267 930.852 870.016 932.94C872.106 934.479 874.196 936.018 876.176 937.667C877.935 939.316 879.695 940.965 881.345 942.833C883.875 945.691 883.655 949.319 883.545 952.946C883.435 957.343 883.655 961.74 883.765 966.137C883.875 970.863 883.985 975.7 883.875 980.427C883.765 982.955 883.655 985.593 883.655 988.121C883.655 988.451 883.655 988.891 883.655 989.33C883.105 989.66 882.775 990.21 882.995 990.979C884.205 995.486 883.655 1000.32 883.655 1005.05C883.545 1010.22 883.875 1015.38 883.765 1020.55C883.655 1026.04 883.435 1031.54 883.435 1037.04C883.545 1042.64 883.765 1048.25 883.765 1053.85C883.765 1059.35 883.435 1064.85 883.435 1070.34C883.325 1075.95 883.545 1081.44 883.655 1087.05C883.765 1092.55 883.985 1098.04 883.765 1103.54C883.655 1109.14 883.105 1111.75 883.105 1117.36C883.105 1123.4 883.325 1129.23 882.775 1135.27C882.555 1138.24 882.445 1141.21 882.005 1144.07C881.675 1145.94 880.905 1147.48 879.915 1149.01C874.746 1153.08 870.016 1157.59 865.287 1162.21C860.448 1166.93 855.388 1171.55 850.329 1176.17C845.49 1180.56 840.54 1183.74 835.591 1188.03C830.641 1192.42 826.242 1197.37 821.403 1201.88C818.873 1204.18 816.343 1206.49 813.594 1208.47C811.724 1209.35 809.084 1211.44 806.555 1211.22ZM1000.57 857.204C999.36 855.336 997.49 853.907 995.73 852.588C993.311 850.829 991.001 849.18 988.801 847.202C986.602 845.223 984.402 843.244 981.872 841.705C979.342 840.167 977.583 837.968 975.383 836.099C973.403 834.451 971.093 833.242 969.224 831.483C967.024 829.504 965.374 827.086 963.065 825.107C960.645 823.019 958.005 821.26 955.585 819.172C955.255 818.842 954.926 818.622 954.596 818.292C954.046 817.743 953.496 817.193 952.946 816.753C952.946 816.314 952.726 815.874 952.396 815.434C950.636 813.236 948.216 810.817 945.467 809.389C943.707 807.63 941.947 805.871 940.077 804.222C939.857 804.002 939.637 803.892 939.308 803.892C935.458 799.935 931.059 796.638 927.319 792.68C923.25 788.393 919.29 783.997 914.891 780.039C910.381 775.972 905.432 772.345 900.812 768.278C896.083 764.211 891.354 760.034 886.734 755.857C877.605 747.503 868.807 738.929 860.008 730.245C851.539 722.001 843.95 712.877 835.261 704.853C830.311 700.346 824.922 696.169 820.083 691.552C817.993 689.574 816.123 687.705 814.473 685.507C813.484 684.188 812.274 682.869 810.844 682.099C810.734 681.879 810.514 681.769 810.294 681.55C806.555 679.131 802.595 682.759 800.065 685.287C798.746 686.606 797.646 688.145 796.436 689.574C794.896 691.443 793.136 693.201 791.376 694.85C786.647 699.247 781.478 703.314 776.968 707.931C772.789 712.108 769.049 716.615 765.09 720.902C752.991 733.652 740.563 745.964 727.475 757.725C725.825 758.715 724.285 759.814 722.745 761.023C715.706 764.431 709.547 769.927 703.828 775.203C700.638 778.171 697.778 781.468 694.699 784.546C693.489 785.755 692.279 787.074 690.959 788.284C687.22 791.251 683.48 794.219 679.961 797.297C667.202 808.289 655.434 820.491 642.785 831.593C638.386 835.44 633.987 839.507 629.917 843.794C627.827 845.443 625.958 847.311 624.088 849.29C621.338 852.148 618.369 854.896 616.389 858.414C614.519 861.601 613.639 865.229 613.309 868.966C612.979 873.583 613.639 878.309 613.529 882.926C613.419 887.763 612.869 892.489 612.759 897.216C612.649 902.162 612.759 907.109 612.869 912.055C612.979 921.838 612.979 931.621 613.419 941.404C613.639 946.791 613.859 952.067 613.859 957.453C613.859 959.981 614.079 962.619 614.079 965.148C614.079 967.346 614.079 969.654 614.629 971.853C614.629 971.853 614.629 971.963 614.739 971.963C614.629 972.183 614.519 972.402 614.519 972.732C614.409 974.711 614.519 976.799 614.629 978.778C614.629 979.657 614.629 980.427 614.739 981.306C614.959 985.703 615.289 990.1 615.179 994.497C615.069 1001.86 614.189 1009.12 614.189 1016.48C614.189 1023.74 615.179 1030.99 615.069 1038.36C614.959 1041.87 614.629 1045.39 614.629 1048.91C614.629 1052.65 614.739 1056.38 614.959 1060.12C615.619 1074.85 615.289 1089.58 614.409 1104.31C613.969 1111.67 613.309 1119.15 612.979 1126.51C612.649 1133.88 612.979 1141.24 612.319 1148.61C611.989 1152.67 611.439 1156.63 611.439 1160.7C611.439 1164.88 611.989 1168.94 612.319 1173.12C612.649 1176.75 612.979 1180.48 612.539 1184.11C612.209 1186.97 611.659 1190.05 612.869 1192.8C612.979 1193.13 613.309 1193.35 613.529 1193.45C623.648 1207.2 638.826 1215.44 651.804 1226.1C659.173 1232.26 665.663 1239.4 672.482 1246C674.241 1247.65 675.891 1249.19 677.871 1250.61C679.741 1251.93 681.72 1253.25 683.37 1254.79C685.13 1256.44 686.78 1258.2 688.43 1259.85C690.079 1261.5 691.949 1262.93 693.489 1264.68C694.919 1266.33 696.239 1268.2 697.668 1269.96C699.098 1271.72 700.748 1273.37 702.508 1275.02C703.828 1276.23 705.147 1277.33 706.577 1278.42C709.437 1281.17 712.407 1283.81 715.266 1286.56C721.865 1292.71 728.464 1302.76 735.284 1308.48C736.493 1309.47 737.593 1310.45 738.803 1311.33C745.072 1317.27 751.232 1325.32 757.501 1331.25C759.81 1333.45 762.23 1335.65 764.65 1337.85C767.07 1341.47 770.809 1344.11 773.999 1346.97C776.638 1349.28 778.948 1353.92 781.698 1356C785.767 1360.07 789.947 1364.03 793.906 1368.1C795.776 1370.07 797.756 1372.05 799.955 1373.7C801.605 1375.02 803.695 1376.67 805.895 1376.56C806.774 1376.56 807.654 1376.23 808.314 1375.57C808.754 1375.79 809.194 1375.79 809.634 1375.57C813.264 1373.81 815.683 1370.4 818.213 1367.44C821.293 1363.7 824.922 1360.62 828.332 1357.32C832.071 1353.59 835.481 1347.63 839.33 1344C842.96 1340.48 847.029 1337.63 850.549 1334.11C858.248 1326.85 865.947 1319.6 874.086 1310.78C882.225 1303.97 889.814 1296.71 897.623 1289.57C905.542 1282.53 913.021 1270.95 920.5 1263.48C927.869 1256.11 935.568 1249.08 943.377 1242.04C947.227 1238.63 950.966 1235.01 954.926 1231.71C958.775 1228.41 962.845 1225.22 966.804 1222.03C970.764 1218.85 974.723 1215.66 978.573 1212.25C982.312 1208.95 985.612 1205.22 989.571 1202.14C992.651 1199.72 996.94 1198.4 999.03 1194.77C1000.9 1191.48 1001.12 1187.41 1001.23 1183.78C1001.34 1179.49 1001.34 1175.1 1001.23 1170.81C1001.12 1168.61 1001.01 1166.3 1001.01 1164.11C1001.01 1162.46 1001.23 1160.7 1001.12 1159.05C1001.12 1158.17 1001.01 1157.18 1000.79 1156.3C1001.23 1154.65 1000.9 1152.89 1000.57 1151.14C1000.13 1148.61 1000.13 1146.41 1000.24 1143.88C1000.68 1137.94 999.91 1132.12 999.58 1126.18C999.47 1123.21 999.36 1120.36 999.58 1117.39C999.8 1114.75 1000.46 1112.22 1000.79 1109.58C1001.12 1106.95 1000.79 1104.31 999.47 1101.89C998.92 1100.9 998.15 1100.02 997.93 1098.81C997.6 1097.27 998.15 1095.73 998.59 1094.42C999.47 1091.67 1000.02 1089.03 1000.02 1086.17C999.91 1083.2 999.47 1080.35 999.36 1077.49C999.03 1071 998.48 1064.63 998.15 1058.14C997.6 1045.39 999.03 1032.75 998.92 1020C998.81 1012.96 998.81 1006.04 999.14 999.003C999.25 995.596 999.47 992.188 999.47 988.781C999.36 985.373 999.25 981.856 999.69 978.448C999.69 978.118 999.69 977.898 999.58 977.569C1000.13 976.03 1000.02 974.381 1000.02 972.842C999.91 970.424 999.58 968.115 999.58 965.697C999.47 961.74 999.91 957.783 1000.02 953.826C1000.13 949.649 1000.13 945.581 1000.13 941.404C1000.13 932.94 1000.02 924.367 1000.46 915.903C1000.68 911.616 1001.23 907.329 1001.45 903.042C1001.67 899.085 1001.56 895.237 1001.23 891.28C1001.01 889.082 1000.79 886.773 1000.79 884.575C1000.79 882.376 1001.01 880.178 1001.23 877.98C1001.56 873.583 1001.01 869.186 1002.11 864.899C1002.44 864.679 1002.55 864.459 1002.66 864.02C1002.33 861.821 1001.89 859.293 1000.57 857.204ZM810.294 817.083C810.624 813.566 810.734 810.048 811.064 806.64C811.614 801.144 812.384 795.648 812.384 790.152C812.384 787.404 813.154 784.766 813.484 782.128C813.814 779.6 813.374 777.181 813.044 774.763C811.394 763.661 809.854 752.009 811.834 740.797C812.824 735.521 813.704 730.245 815.133 725.079C815.573 723.32 815.793 721.561 816.123 719.692C816.233 719.253 816.233 718.483 816.563 718.373C817.223 718.263 818.433 719.473 818.873 719.802C823.382 723.43 827.342 727.607 831.851 731.234C836.031 734.642 840.21 738.489 843.18 743.106C843.51 743.655 844.06 743.875 844.61 743.765C845.929 744.864 847.359 746.074 848.789 747.173C850.659 748.602 852.639 749.921 854.508 751.46C856.268 752.999 857.918 754.757 859.348 756.626C860.778 758.385 861.987 760.144 863.857 761.573C865.397 762.782 867.157 763.881 868.807 764.87C870.786 766.079 872.656 767.508 874.416 769.157C877.935 772.455 880.905 776.302 884.095 779.929C887.174 783.447 890.474 786.745 894.323 789.273C896.303 790.482 898.503 791.471 900.373 792.9C902.132 794.219 903.672 795.758 905.212 797.297C908.621 800.925 912.031 804.552 915.771 807.85C917.64 809.498 919.51 811.037 921.49 812.466C923.58 813.895 925.559 815.324 927.209 817.193C928.969 819.062 930.839 820.381 933.148 821.59C934.248 822.139 935.348 822.689 936.228 823.568C937.328 824.558 938.208 825.657 939.198 826.756C941.177 828.845 942.937 831.043 944.917 833.132C946.787 835.22 948.766 837.199 950.196 839.617C950.416 839.947 950.636 840.167 950.966 840.276C954.156 844.893 958.885 847.751 963.174 851.269C965.704 853.357 967.904 855.666 969.554 858.523C970.324 859.843 971.093 861.272 971.753 862.701C972.193 863.58 972.523 864.569 972.963 865.558C972.853 865.888 972.743 866.218 972.853 866.548C973.513 868.746 970.983 870.505 969.664 871.934C967.574 874.242 965.484 876.551 963.284 878.639C961.085 880.728 958.665 882.706 956.355 884.685C954.046 886.773 951.736 888.862 949.536 891.06C940.297 899.854 930.949 908.538 921.16 916.782C918.85 918.761 916.65 920.739 914.451 923.048C912.801 924.806 911.151 926.345 909.281 927.664C907.632 925.686 905.212 924.257 903.452 922.608C900.153 919.64 897.183 916.232 893.993 913.155C887.174 906.779 880.685 900.074 874.196 893.479C867.597 886.773 860.998 880.068 853.958 873.913C850.659 870.945 847.029 868.307 843.73 865.339C840.21 862.151 837.021 858.633 833.611 855.336C826.682 848.521 819.643 841.596 811.944 835.55C811.614 834.89 811.174 834.231 810.734 833.571C810.074 832.472 810.184 831.153 810.184 829.944C810.294 826.976 809.964 823.898 809.854 820.93C810.294 819.391 810.294 818.182 810.294 817.083ZM641.026 856.105C642.785 854.127 644.875 852.368 646.965 850.719C652.134 846.542 656.534 841.705 661.153 836.979C666.212 831.922 671.272 826.646 676.551 821.7C677.541 820.82 678.421 819.941 679.411 819.062C679.851 818.622 680.291 818.292 680.731 817.852C684.91 814.115 689.09 810.488 693.379 806.97C696.239 804.442 699.208 802.024 702.068 799.496C704.488 797.407 707.017 795.428 709.437 793.45C711.747 791.581 713.946 789.493 715.706 786.964C717.246 784.656 717.246 781.358 719.556 779.71C721.865 778.061 724.725 777.511 727.035 775.972C729.894 774.104 732.534 771.685 735.064 769.377C737.813 766.959 740.563 764.65 743.203 762.232C745.402 760.144 747.382 757.945 749.582 755.967C751.891 753.878 754.421 752.449 757.061 750.91C758.931 749.811 760.69 748.492 762.34 747.173C763.99 745.854 766.63 743.875 768.059 741.457C773.889 733.543 781.368 726.508 789.507 721.011C791.486 719.692 793.466 718.483 795.556 717.494C796.436 717.054 797.866 716.395 798.196 717.164C798.855 718.373 798.746 720.022 798.855 721.341C799.075 723.869 799.405 726.508 799.735 729.036C800.175 731.894 800.505 734.642 800.505 737.5C800.505 740.248 800.285 743.106 800.065 745.854C799.845 748.602 799.625 751.46 799.735 754.208C799.845 756.956 800.395 759.594 800.835 762.342C801.385 765.09 801.935 767.838 802.045 770.696C802.155 773.444 801.825 776.192 801.495 778.83C801.165 781.578 800.725 784.326 800.835 787.184C800.945 789.932 801.275 792.79 801.605 795.538C802.375 801.914 803.145 808.179 803.035 814.555C802.925 820.93 802.485 827.306 802.485 833.681C800.175 836.099 798.306 838.957 795.996 841.376C793.136 844.344 789.727 846.652 786.427 849.07C783.128 851.488 780.378 854.237 777.628 857.204C774.989 860.172 772.349 863.14 769.159 865.668C766.08 868.087 763.77 871.165 761.46 874.242C758.821 877.76 755.631 880.398 752.331 883.256C748.922 886.114 745.512 889.082 742.103 892.05C738.693 895.127 735.504 898.315 732.094 901.503C728.574 904.801 724.945 908.098 721.315 911.396C718.786 913.704 716.366 916.122 714.826 919.09C713.286 920.409 712.187 922.168 711.087 923.927C710.207 925.466 709.217 927.005 707.237 926.785C705.697 926.675 704.268 925.796 702.948 925.136C701.078 924.147 699.428 923.048 697.778 921.948C694.479 919.64 691.179 917.112 688.1 914.584C681.61 909.417 675.781 903.591 669.622 897.985C663.243 892.269 656.534 886.993 650.264 881.277C648.175 879.409 646.085 877.54 644.215 875.451C644.105 875.342 644.105 875.232 643.995 875.232C642.785 873.583 641.576 872.044 640.256 870.615C640.146 870.505 640.036 870.285 639.926 870.175C639.596 869.406 639.156 868.636 638.716 867.757C638.166 866.438 637.946 865.009 638.276 863.58C638.386 862.81 638.056 862.261 637.616 861.931C638.166 859.623 639.596 857.644 641.026 856.105ZM635.196 1175.65C634.536 1175.54 633.767 1175.43 633.217 1175.1C632.777 1174.88 632.667 1174.88 632.777 1174.55C633.217 1173.56 632.667 1172.68 631.897 1172.35C631.347 1170.15 631.457 1167.84 631.677 1165.53C631.897 1162.57 632.007 1159.71 631.897 1156.85C631.897 1153.44 631.897 1150.04 631.897 1146.52C631.787 1143.11 631.567 1139.59 631.237 1136.19C630.137 1122.45 629.257 1108.82 630.357 1095.08C631.457 1081.55 631.127 1067.92 631.127 1054.29C631.127 1040.55 631.347 1026.81 631.897 1013.07C632.007 1009.34 632.227 1005.49 632.227 1001.75C632.227 998.234 631.897 994.716 632.007 991.199C632.117 984.824 633.217 978.118 631.347 971.853C631.347 971.743 631.237 971.633 631.237 971.633C631.347 971.413 631.347 971.083 631.347 970.754C630.027 964.378 630.577 957.893 630.907 951.407C631.237 944.812 631.127 938.217 630.907 931.512C630.797 924.586 630.797 917.661 631.017 910.736C631.237 903.921 630.687 896.996 630.907 890.181C630.907 888.422 631.127 886.554 631.237 884.795C631.237 884.025 631.127 882.816 631.897 882.486C633.107 883.476 634.756 883.915 635.966 884.905C636.956 885.674 637.726 886.554 638.826 887.213C639.816 887.763 640.916 888.312 642.016 888.862C642.455 889.082 643.005 889.302 643.445 889.521C643.995 889.961 644.655 890.181 645.315 890.401C646.195 890.84 646.635 891.39 647.295 892.16C648.065 893.039 648.945 893.698 649.715 894.578C650.045 894.908 650.374 895.347 650.814 895.787C651.364 896.666 651.914 897.436 652.574 898.205C654.334 900.294 656.314 902.053 658.513 903.701C662.913 907.109 667.642 909.967 672.152 913.265C677.321 916.892 682.27 920.849 687.33 924.477C690.079 926.455 692.719 928.654 695.139 931.072C696.239 932.171 697.228 933.27 698.108 934.589C698.658 935.469 699.208 936.458 699.868 937.227C699.868 937.337 699.868 937.447 699.978 937.557C700.968 940.415 700.198 943.493 700.198 946.461C700.198 949.978 700.638 953.496 701.078 957.013C701.738 963.938 701.518 970.754 700.968 977.679C699.868 992.078 701.408 1006.48 701.628 1020.88C701.738 1028.02 701.408 1035.17 701.848 1042.31C702.288 1049.46 703.498 1056.49 703.718 1063.53C703.938 1070.67 703.608 1077.82 703.168 1084.96C702.618 1092.11 702.288 1099.25 702.178 1106.51C702.068 1114.53 701.848 1119.56 701.518 1127.69C701.408 1131.54 701.298 1135.49 701.078 1139.45C700.858 1143.3 700.198 1147.04 700.088 1150.77C699.648 1151.43 699.208 1152.09 698.768 1152.86C698.108 1153.96 697.118 1154.51 695.909 1155.06C693.599 1156.16 690.959 1157.93 688.54 1158.81C683.04 1160.57 677.321 1163.89 671.602 1165.21C665.992 1166.52 660.383 1168.06 654.994 1170.37C652.464 1171.47 650.155 1172.9 647.625 1174.22C644.985 1175.65 642.346 1175.87 639.376 1175.98C637.836 1175.98 636.516 1175.87 635.196 1175.65ZM803.145 1326.63C803.255 1333.01 802.375 1339.5 803.035 1345.87C802.595 1345.98 802.265 1346.31 802.045 1346.75C801.715 1346.53 801.385 1346.2 801.055 1345.87C800.175 1344.99 799.515 1344.11 798.745 1343.23C797.976 1342.46 797.206 1341.69 796.436 1340.92C794.676 1338.62 792.476 1337.08 790.167 1335.43C784.337 1329.93 779.278 1323.89 773.009 1318.94C770.149 1316.63 767.18 1313.09 763.77 1311.77C760.58 1310.56 757.831 1309.25 755.631 1306.5C751.452 1301.44 749.252 1294.74 743.863 1290.67C740.783 1288.36 737.263 1286.71 733.964 1284.84C732.534 1283.96 730.994 1283.08 729.674 1281.98C728.025 1280.78 726.595 1279.24 724.945 1278.03C722.195 1275.94 719.006 1270.4 716.586 1267.87C715.486 1266.66 714.606 1265.12 713.616 1263.8C712.407 1262.16 711.087 1260.62 709.767 1259.08C707.127 1256.11 704.158 1253.47 701.188 1250.83C698.218 1248.09 695.359 1245.23 692.279 1242.48C686.45 1237.09 679.961 1232.7 674.461 1226.98C668.522 1220.83 663.243 1214.12 657.194 1208.18C654.444 1205.55 651.474 1203.13 648.615 1200.71C646.305 1198.73 643.995 1196.53 642.236 1194.11C642.346 1194 642.455 1193.78 642.455 1193.45C643.115 1190.05 646.965 1189.28 649.715 1188.07C654.334 1186.09 658.733 1183.78 663.463 1181.91C668.192 1180.04 673.142 1178.73 677.981 1177.08C682.16 1175.65 686.12 1172 690.079 1170.02C692.059 1169.03 694.039 1167.04 696.129 1166.38C697.888 1165.83 699.868 1165.17 701.628 1165.61C701.958 1165.72 702.288 1165.61 702.618 1165.5C704.708 1167.59 707.347 1169.13 709.547 1171.22C712.517 1174.08 715.706 1176.6 718.676 1179.46C724.835 1185.4 730.774 1191.55 737.043 1197.49C743.423 1203.54 749.912 1209.36 756.291 1215.41C762.45 1220.23 768.609 1225.28 774.769 1231.1C781.808 1237.81 788.957 1244.51 796.326 1250.78C796.656 1251.11 797.096 1251.22 797.426 1251.11C797.976 1254.96 799.955 1265.58 800.285 1269.43C800.615 1275.15 800.945 1282.86 802.045 1288.47C802.595 1291.44 803.255 1294.19 803.365 1297.26C803.475 1300.23 803.255 1303.2 803.145 1306.17C802.705 1312.32 803.035 1320.48 803.145 1326.63ZM808.204 1242.54C807.764 1241.88 807.104 1241.55 806.225 1242.1C805.895 1242.32 806.005 1242.32 805.785 1242.32C805.345 1242.32 805.345 1242.32 804.795 1242.21C803.805 1241.88 802.815 1241.33 801.935 1240.78C799.405 1239.13 797.206 1237.04 795.006 1235.06C790.607 1230.88 786.647 1226.27 782.248 1222.2C778.288 1218.57 774.219 1216.06 770.259 1212.43C766.3 1208.8 762.67 1205.95 759.041 1202C755.411 1198.04 751.781 1194.19 747.932 1190.45C743.863 1186.61 739.463 1182.98 735.174 1179.35C730.334 1175.07 725.495 1170.78 720.765 1166.38C718.456 1164.29 716.036 1162.31 713.946 1160.01C712.297 1158.14 710.757 1156.05 708.887 1154.29C709.547 1151.65 709.217 1148.79 708.887 1146.16C708.557 1142.86 708.447 1139.78 708.777 1136.48C709.547 1128.79 710.977 1121.2 711.087 1113.51C711.197 1109.55 710.757 1108.71 710.867 1104.75C710.867 1100.79 711.197 1096.83 711.307 1092.88C711.637 1084.96 711.417 1077.05 711.087 1069.02C710.757 1060.89 710.537 1052.87 710.647 1044.73C710.757 1036.82 710.977 1028.9 711.087 1020.99C711.197 1005.49 709.657 990.1 709.657 974.711C709.657 970.424 709.767 966.027 709.987 961.74C710.207 957.453 710.867 953.276 710.647 948.989C710.537 947.01 710.427 945.032 710.207 943.053C709.987 940.965 709.657 938.766 709.877 936.788C709.987 936.018 710.207 935.139 710.537 934.479C710.977 933.71 711.637 933.49 712.407 933.16C713.176 932.831 713.726 932.391 714.276 931.731C714.826 931.072 715.156 930.192 715.926 929.643C716.256 929.313 716.476 928.983 716.476 928.654C718.346 925.576 720.985 923.048 723.515 920.519C726.595 917.551 729.674 914.803 732.974 912.165C740.013 906.669 747.272 901.393 753.431 894.908C754.861 893.369 756.401 891.83 757.941 890.511C759.591 889.192 761.24 888.092 762.67 886.554C763.88 885.125 764.87 883.696 765.86 882.157C767.07 880.508 768.499 878.969 770.039 877.65C773.229 874.902 776.748 872.484 779.938 869.626C783.238 866.658 786.317 863.36 789.287 860.172C790.937 858.304 792.586 856.435 794.346 854.676C796.106 852.917 797.976 851.379 799.735 849.73C801.275 848.301 802.705 846.542 804.355 845.223C805.015 844.673 805.675 844.563 806.445 844.563C806.555 844.783 806.664 845.003 806.994 845.113C815.243 851.049 822.612 857.864 829.872 865.009C833.281 868.416 836.801 871.714 840.1 875.122C841.75 876.88 843.51 878.639 844.94 880.618C845.6 881.387 846.149 882.267 846.699 883.146C847.139 884.025 847.469 885.015 848.129 885.784C848.679 886.554 849.449 887.103 850.329 887.433C851.429 887.873 852.639 887.873 853.738 888.532C855.498 889.631 856.928 891.39 858.248 893.039C860.888 896.446 863.197 899.964 866.277 902.932C869.466 906.01 872.986 908.868 876.506 911.616C880.025 914.364 883.325 917.332 886.624 920.299C892.893 926.125 901.252 931.402 903.672 940.085C903.672 940.195 903.782 940.305 903.782 940.305C903.782 940.525 903.892 940.745 903.892 940.965C904.662 942.614 904.662 944.592 904.552 946.461C904.442 948.439 904.222 950.418 904.222 952.507C904.112 957.673 903.782 962.839 903.232 968.006C903.012 970.534 902.792 973.172 902.902 975.7C903.012 978.338 903.342 980.976 903.452 983.724C903.672 989.11 902.902 994.497 902.792 999.773C902.462 1010.66 902.792 1021.65 902.902 1032.53C903.012 1043.3 902.352 1054.07 902.462 1064.96C902.572 1070.78 903.012 1076.5 902.902 1082.32C902.792 1088.15 902.462 1093.98 901.582 1099.8C901.472 1100.35 901.692 1100.9 902.022 1101.23C900.483 1110.57 901.472 1117.14 901.582 1126.59C901.582 1131.76 901.912 1136.81 902.242 1141.87C902.352 1144.29 902.572 1146.71 902.792 1149.12C902.902 1150.11 902.902 1151.21 902.792 1152.2C902.572 1153.41 902.022 1154.4 901.582 1155.5C901.472 1155.72 901.472 1155.94 901.472 1156.05C897.843 1161.77 890.694 1164.18 886.514 1169.46C885.194 1171.11 884.095 1172.76 882.775 1174.52C881.455 1176.38 879.805 1178.03 878.265 1179.57C874.966 1182.76 871.446 1184.73 868.147 1187.81C861.108 1194.51 854.178 1201.33 846.919 1207.7C839.66 1214.08 831.961 1218.9 824.922 1225.39C821.403 1228.58 817.993 1231.98 814.473 1235.28C812.274 1237.48 809.744 1239.79 808.204 1242.54ZM965.814 1196.31C963.065 1198.51 960.535 1200.82 958.005 1203.24C952.726 1208.29 947.556 1213.46 942.277 1218.52C931.389 1228.63 920.39 1238.63 909.501 1248.86C904.002 1253.91 898.613 1263.08 893.223 1268.35C887.944 1273.41 882.885 1278.69 877.605 1283.85C867.377 1293.86 856.378 1302.98 846.479 1313.42C843.73 1318.39 840.76 1321.14 837.791 1323.89C834.821 1326.63 831.961 1329.49 828.882 1332.24C825.912 1334.88 822.832 1337.41 819.753 1340.04C817.553 1341.91 815.353 1343.89 812.824 1345.32C812.714 1343.01 812.274 1340.81 811.834 1338.62C811.394 1335.98 811.394 1333.67 811.504 1331.03C811.614 1328.28 811.504 1325.43 811.614 1322.68C811.614 1319.93 811.944 1317.29 812.164 1312.54C812.604 1306.94 812.934 1301.33 812.934 1295.72C812.934 1290.12 812.824 1284.4 813.044 1278.8C813.374 1271.75 812.824 1261.38 814.583 1251.55C814.693 1251.11 814.693 1250.78 814.583 1250.56C815.133 1249.35 816.013 1248.36 817.003 1247.48C818.433 1246.05 819.643 1244.62 820.963 1243.2C824.042 1239.79 827.452 1236.71 830.971 1233.74C838.12 1227.48 844.28 1220 851.539 1214.96C855.168 1211.99 858.908 1209.13 862.427 1206.05C866.167 1202.87 869.796 1199.46 873.426 1196.16C876.946 1192.86 880.685 1189.78 883.985 1186.27C885.524 1184.62 886.954 1182.75 888.384 1180.88C889.594 1179.23 890.584 1178.58 892.014 1177.15C893.663 1175.51 895.753 1174.52 897.623 1173.2C899.603 1171.88 901.362 1170.34 903.232 1168.8C904.882 1167.48 906.422 1166.16 908.072 1164.84C909.281 1163.85 910.931 1162.21 912.581 1162.31C912.911 1162.31 913.241 1162.21 913.461 1162.1C921.05 1166.05 929.079 1171.91 936.998 1175.32C941.397 1177.19 945.797 1179.38 950.086 1181.47C952.176 1182.46 954.266 1183.34 956.465 1184C957.565 1184.33 958.775 1184.66 959.875 1184.99C960.095 1185.1 960.205 1185.21 960.425 1185.32C960.755 1185.54 961.195 1185.54 961.525 1185.43C962.075 1185.54 962.515 1185.76 962.954 1185.87C964.604 1186.42 966.254 1187.19 967.794 1187.96C969.114 1188.73 970.983 1189.72 971.533 1191.26C969.774 1193.13 967.794 1194.77 965.814 1196.31ZM982.422 1118.93C982.312 1123.32 982.312 1127.61 982.312 1132.01C982.312 1136.3 981.762 1140.36 981.322 1144.54C981.102 1146.41 980.992 1148.28 980.992 1150.15C981.102 1152.34 981.432 1154.43 981.762 1156.52C982.312 1161.36 981.432 1166.19 981.102 1170.92C981.102 1171.91 980.992 1173.23 980.332 1174C979.562 1174.88 978.353 1175.43 977.363 1175.98C977.143 1175.98 977.033 1175.98 976.813 1176.09C973.733 1177.3 970.214 1174.99 967.354 1174C963.064 1172.68 958.665 1171.91 954.376 1170.7C945.577 1168.39 937.108 1164.99 928.529 1162.24C926.109 1161.47 923.69 1157.92 921.27 1157.04C918.96 1156.27 916.87 1155.06 914.451 1154.4C914.341 1152.2 914.011 1150.11 913.791 1147.92C913.461 1145.39 913.351 1142.75 913.351 1140.11C913.351 1135.05 913.461 1130 913.461 1124.94C913.461 1120 913.461 1116.94 913.131 1111.99C912.911 1107.6 911.701 1104.09 912.801 1099.8C912.911 1099.25 912.801 1098.81 912.581 1098.48C912.691 1097.49 912.691 1096.5 912.691 1095.62C912.691 1093.43 912.801 1091.34 913.131 1089.14C913.791 1083.97 914.231 1078.92 914.121 1073.64C914.011 1068.58 913.681 1063.42 913.571 1058.36C913.571 1053.08 913.681 1047.92 913.791 1042.64C913.901 1032.31 913.571 1021.87 913.131 1011.53C912.691 1001.2 912.251 990.869 912.691 980.537C912.911 975.37 913.461 970.204 914.231 965.038C914.891 960.641 915.441 956.244 914.671 951.847C914.891 951.407 914.891 950.968 914.671 950.418C914.231 949.539 914.231 948.439 914.341 947.45C914.341 946.131 914.561 944.812 914.671 943.493C914.891 940.965 914.011 937.887 915.661 935.689C917.42 933.49 920.17 931.951 922.37 930.412C925.339 928.214 928.419 925.906 931.389 923.707C942.607 915.243 953.936 906.669 963.394 896.227C964.714 894.798 965.924 893.369 967.244 891.83C968.124 890.84 969.004 889.851 970.104 889.082C971.533 888.202 973.293 887.873 974.833 887.213C976.263 886.663 977.583 885.894 978.792 885.125C979.452 885.344 980.112 885.564 980.772 885.564C981.102 885.894 981.432 886.224 981.762 886.554C981.982 887.983 981.872 889.631 981.982 890.621C982.092 895.567 982.092 900.404 981.872 905.35C981.212 917.881 981.542 930.302 981.762 942.833C981.872 948.989 981.872 955.145 981.652 961.3C981.432 967.566 981.212 973.721 981.322 979.987C981.432 986.253 981.542 992.408 981.322 998.674C981.102 1004.94 980.662 1011.09 980.662 1017.36C980.662 1024.29 980.222 1031.1 980.112 1038.03C980.112 1041.43 980.442 1044.84 980.552 1048.36C980.662 1051.99 980.662 1055.61 980.552 1059.24C980.552 1059.79 980.772 1060.23 981.212 1060.45C979.892 1067.37 980.772 1074.63 981.212 1081.55C981.432 1085.62 981.432 1089.8 981.432 1093.87C981.432 1097.93 981.762 1101.89 982.202 1105.96C982.642 1110.46 982.532 1114.75 982.422 1118.93Z" fill="#312E21" fill-opacity="0.8"/>
</g>
</g>
<defs>
<clipPath id="clip0_174_17615">
<rect width="800" height="1080" fill="white"/>
</clipPath>
<clipPath id="clip1_174_17615">
<rect width="392" height="697" fill="white" transform="translate(385 101)"/>
</clipPath>
<clipPath id="clip2_174_17615">
<rect width="392" height="697" fill="white" transform="translate(158 680)"/>
</clipPath>
<clipPath id="clip3_174_17615">
<rect width="392" height="697" fill="white" transform="translate(611 680)"/>
</clipPath>
</defs>
</svg>
