<svg width="77" height="77" viewBox="0 0 77 77" fill="none" xmlns="http://www.w3.org/2000/svg">
<path fill-rule="evenodd" clip-rule="evenodd" d="M13 26V19V15H17H24H28V18H49V15H53H60H64V19V26V30V37V41V48V52V59V63H60H53H49V60H28V63H24H17H13V59V52V48V41V37V30V26ZM53 59H60V52H53V59ZM24 52V59H17V52H24ZM49 52V48V41H28V48V52V56H49V52ZM53 48H60V41H53V48ZM17 48H24V41H17V48ZM17 37H24V30H17V37ZM49 37H28V30V26V22H49V26V30V37ZM53 37H60V30H53V37ZM60 19V26H53V19H60ZM17 26H24V19H17V26Z" fill="#E2DED3"/>
</svg>
